{
.appVersion = "3182";
.formatVersion = 3;
customParameters = (
{
name = fsType;
value = (
);
},
{
name = "Use Typo Metrics";
value = 1;
},
{
name = "Use Line Breaks";
value = 1;
}
);
date = "2022-08-31 02:17:19 +0000";
familyName = "Delicious Handrawn";
featurePrefixes = (
{
automatic = 1;
code = "languagesystem DFLT dflt;
languagesystem DFLT MAH;

languagesystem latn dflt;
languagesystem latn AZE;
languagesystem latn CRT;
languagesystem latn KAZ;
languagesystem latn TAT;
languagesystem latn TRK;
languagesystem latn ROM;
languagesystem latn MOL;
languagesystem latn MAH;
languagesystem latn CAT;
languagesystem latn NLD;
";
name = Languagesystems;
}
);
features = (
{
automatic = 1;
code = "feature locl;
feature ordn;
feature case;
";
tag = aalt;
},
{
code = "lookup ccmp_Other_1 {
	@CombiningTopAccents = [acutecomb brevecomb caroncomb circumflexcomb commaturnedabovecomb dieresiscomb dotaccentcomb gravecomb hungarumlautcomb macroncomb ringcomb tildecomb];
	@CombiningNonTopAccents = [cedillacomb ogonekcomb];
	sub [i j]' @CombiningTopAccents by [idotless jdotless];
	sub [i j]' @CombiningNonTopAccents @CombiningTopAccents by [idotless jdotless];
    sub iogonek' @CombiningTopAccents by idotless ogonekcomb;
} ccmp_Other_1;
";
tag = ccmp;
},
{
automatic = 1;
code = "lookup locl_noScript_0 {
	language MAH;
	sub commaaccentcomb by commaaccentcomb.loclMAH;
} locl_noScript_0;

lookup locl_latn_0 {
	script latn;
	language AZE;
	sub i by idotaccent;
	language CRT;
	sub i by idotaccent;
	language KAZ;
	sub i by idotaccent;
	language TAT;
	sub i by idotaccent;
	language TRK;
	sub i by idotaccent;
} locl_latn_0;

lookup locl_latn_1 {
	script latn;
	language ROM;
	sub Scedilla by Scommaaccent;
	sub scedilla by scommaaccent;
	sub Tcedilla by Tcommaaccent;
	sub tcedilla by tcommaaccent;
	language MOL;
	sub Scedilla by Scommaaccent;
	sub scedilla by scommaaccent;
	sub Tcedilla by Tcommaaccent;
	sub tcedilla by tcommaaccent;
} locl_latn_1;

lookup locl_latn_2 {
	script latn;

glyphs = (
{
glyphname = A;
kernLeft = A;
kernRight = A;
lastChange = "2023-01-05 15:41:16 +0000";
layers = (
{
anchors = (
{
name = bottom;
pos = (212,-131);
},
{
name = ogonek;
pos = (357,32);
},
{
name = top;
pos = (239,788);
}
);
layerId = m01;
shapes = (
{
closed = 1;
nodes = (
(224,593,o),
(222,589,o),
(222,586,c),
(210,541,o),
(201,496,o),
(195,449,c),
(191,409,o),
(186,368,o),
(182,328,c),
(180,316,o),
(180,314,o),
(194,316,c),
(212,317,o),
(231,320,o),
(249,322,c),
(260,322,o),
(263,326,o),
(261,335,c),
(257,362,o),
(255,388,o),
(251,413,c),
(248,442,o),
(243,470,o),
(242,499,c),
(239,532,o),
(234,565,o),
(228,599,c)
);
},
{
closed = 1;
nodes = (
(71,125,o),
(74,154,o),
(77,184,c),
(77,193,o),
(75,200,o),
(63,203,c),
(38,209,o),
(26,250,o),
(51,272,c),
(59,280,o),
(66,284,o),
(75,287,c),
(87,290,o),
(90,298,o),
(92,308,c),
(95,337,o),
(98,367,o),
(102,395,c),
(113,467,o),
(126,539,o),
(140,611,c),
(149,650,o),
(155,689,o),
(168,728,c),
(173,740,o),
(177,752,o),
(185,763,c),
(209,803,o),
(258,803,o),
(282,763,c),
(296,743,o),
(302,721,o),
(306,698,c),
(318,641,o),
(326,583,o),
(335,524,c),
(342,463,o),
(347,401,o),
(353,338,c),
(354,331,o),
(357,323,o),
(365,319,c),
(381,305,o),
(384,289,o),
(369,274,c),
(362,266,o),
(360,257,o),
(362,248,c),
(365,212,o),
(368,176,o),
(371,140,c),
(374,106,o),
(377,71,o),
(384,37,c),
(387,22,o),
(380,10,o),
(368,5,c),
(357,-1,o),
(344,2,o),
(333,13,c),
(323,22,o),
(317,35,o),
(312,49,c),
(300,83,o),
(294,119,o),
(288,155,c),
(284,182,o),
(279,209,o),
(275,236,c),
(273,244,o),
(272,248,o),
(263,247,c),
(237,241,o),
(210,235,o),
(185,229,c),
(177,227,o),
(174,223,o),
(174,215,c),
(170,166,o),
(164,118,o),
(159,68,c),
(158,56,o),
(158,44,o),
(158,32,c),
(155,13,o),
(146,-1,o),
(128,-7,c),
(110,-13,o),
(95,-5,o),
(83,7,c),
(74,16,o),
(72,26,o),
(72,38,c),
(71,56,o),
(71,76,o),
(71,97,c)
);
}
);
width = 422;
}
);
unicode = 65;
},
{
glyphname = AE;
kernLeft = A;
kernRight = E;
lastChange = "2023-01-05 15:41:16 +0000";
layers = (
{
layerId = m01;
shapes = (
{
closed = 1;
nodes = (
(261,322,o),
(263,326,o),
(263,335,c),
(258,362,o),
(255,388,o),
(252,413,c),
(249,442,o),
(245,470,o),
(242,499,c),
(240,532,o),
(236,565,o),
(230,599,c),
(225,593,o),
(224,589,o),
(224,586,c),
(212,541,o),
(203,496,o),
(197,449,c),
(192,409,o),
(188,368,o),
(183,328,c),
(182,316,o),
(182,314,o),
(195,316,c),
(213,317,o),
(233,320,o),
(251,322,c)
);
},
{
closed = 1;
nodes = (
(569,247,o),
(587,235,o),
(587,217,c),
(585,211,o),
(585,205,o),
(582,199,c),
(579,185,o),
(573,173,o),
(564,161,c),
(533,113,o),
(494,73,o),
(446,40,c),
(425,26,o),
(404,23,o),
(386,26,c),
(384,16,o),
(378,10,o),
(369,5,c),
(359,-1,o),
(345,2,o),
(335,13,c),
(324,22,o),
(318,35,o),
(314,49,c),
(302,83,o),
(296,119,o),
(290,155,c),
(284,182,o),
(281,209,o),
(276,236,c),
(275,244,o),
(273,248,o),
(264,247,c),
(239,241,o),
(212,235,o),
(186,229,c),
(179,227,o),
(176,223,o),
(176,215,c),
(171,166,o),
(165,118,o),
(161,68,c),
(159,56,o),
(159,44,o),
(159,32,c),
(156,13,o),
(147,-1,o),
(129,-7,c),
(110,-13,o),
(96,-5,o),
(84,7,c),
(75,16,o),
(74,26,o),
(74,38,c),
(72,56,o),
(71,76,o),
(72,97,c),
(72,125,o),
(75,154,o),
(77,184,c),
(78,193,o),
(77,200,o),
(65,203,c),
(38,209,o),
(26,250,o),
(53,272,c),
(60,280,o),
(68,284,o),
(77,287,c),
(89,290,o),
(92,298,o),
(92,308,c),
(96,337,o),
(99,367,o),
(104,395,c),
(114,467,o),
(126,539,o),
(141,611,c),
(150,650,o),
(156,689,o),
(170,728,c),
(174,740,o),
(179,752,o),
(185,763,c),
(210,803,o),
(260,803,o),
(284,763,c),
(290,754,o),
(294,745,o),
(297,734,c),
(305,739,o),
(312,740,o),
(320,742,c),
(368,749,o),
(416,758,o),
(464,760,c),
(486,760,o),
(509,760,o),
(530,755,c),
(546,751,o),
(560,743,o),
(572,730,c),
(582,718,o),
(584,706,o),
(576,694,c),
(569,683,o),
(557,679,o),
(542,685,c),
(525,691,o),
(507,689,o),
(489,688,c),
(453,682,o),
(419,674,o),
(384,667,c),
(375,665,o),
(371,662,o),
(371,652,c),
(375,574,o),
(371,494,o),
(374,416,c),
(375,400,o),
(375,400,o),
(390,403,c),
(414,407,o),
(440,406,o),
(464,407,c),
(482,407,o),
(500,407,o),
(519,406,c),
(536,406,o),
(545,398,o),
(548,385,c),
(549,373,o),
(543,362,o),
(528,355,c),
(510,346,o),
(488,344,o),
(468,340,c),
(441,335,o),
(416,331,o),
(390,328,c),
(380,326,o),
(378,322,o),
(378,311,c),
(378,308,o),
(380,304,o),
(380,301,c),
(380,298,o),
(380,295,o),
(380,293,c),
(384,245,o),
(389,197,o),
(399,151,c),
(407,118,o),
(405,116,o),
(437,136,c),
(473,158,o),
(504,188,o),
(531,221,c),
(537,229,o),
(543,235,o),
(552,239,c)
);
}
);
width = 624;
}
);
unicode = 198;
},
{
glyphname = B;
lastChange = "2023-01-05 15:41:16 +0000";
layers = (
{
anchors = (
{
name = bottom;
pos = (245,-131);
},
{
name = center;
pos = (245,469);
},
{
name = top;
pos = (212,784);
}
);
layerId = m01;
shapes = (
{
closed = 1;
nodes = (
(176,458,o),
(177,466,o),
(182,472,c),
(209,506,o),
(231,545,o),
(249,586,c),
(258,607,o),
(267,629,o),
(267,652,c),
(267,680,o),
(251,698,o),
(224,700,c),
(201,700,o),
(180,692,o),
(161,682,c),
(159,680,o),
(155,679,o),
(156,674,c),
(162,664,o),
(159,655,o),
(150,647,c),
(147,644,o),
(149,637,o),
(150,632,c),
(153,602,o),
(155,572,o),
(158,544,c),
(159,514,o),
(161,485,o),
(167,454,c)
);
},
{
closed = 1;
nodes = (
(204,100,o),
(216,106,o),
(228,112,c),
(275,134,o),
(314,164,o),
(338,211,c),
(353,238,o),
(362,268,o),
(359,299,c),
(357,323,o),
(348,334,o),
(324,341,c),
(302,347,o),
(279,346,o),
(258,343,c),
(231,341,o),
(206,331,o),
(179,328,c),
(171,328,o),
(173,322,o),
(173,316,c),
(177,274,o),
(179,232,o),
(180,190,c),
(182,160,o),
(183,128,o),
(189,94,c)
);
},
{
closed = 1;
nodes = (
(296,430,o),
(317,428,o),
(338,421,c),
(365,412,o),
(392,401,o),
(413,380,c),
(446,343,o),
(458,301,o),
(450,253,c),
(441,196,o),
(416,146,o),
(377,106,c),
(303,29,o),
(212,-5,o),
(107,-10,c),
(87,-10,o),
(69,-4,o),
(54,10,c),
(41,22,o),
(36,38,o),
(38,55,c),
(41,77,o),
(63,88,o),
(81,73,c),
(98,59,o),
(113,68,o),
(129,73,c),
(134,74,o),
(132,79,o),
(131,82,c),
(125,151,o),
(102,215,o),
(93,283,c),
(83,352,o),
(72,421,o),
(68,490,c),
(65,527,o),
(62,563,o),
(60,599,c),
(60,610,o),
(62,619,o),
(62,628,c),
(63,646,o),
(68,662,o),
(63,679,c),
(60,698,o),
(68,716,o),
(80,728,c),
(131,781,o),
(191,806,o),
(264,787,c),
(315,773,o),
(354,727,o),
(360,674,c),
(365,641,o),
(357,610,o),
(347,578,c),
(333,536,o),
(311,497,o),
(288,460,c),
(282,452,o),
(278,443,o),
(272,434,c)
);
}
);
width = 489;
}
);
unicode = 66;
},
{
glyphname = C;
kernLeft = C;
kernRight = C;
lastChange = "2023-01-05 15:41:16 +0000";
layers = (
{
anchors = (
{
name = bottom;
pos = (233,40);
},
{
name = top;
pos = (210,743);
}
);
layerId = m01;
shapes = (
{
closed = 1;
nodes = (
(38,469,o),
(50,545,o),
(81,617,c),
(93,649,o),
(110,677,o),
(132,703,c),
(150,722,o),
(170,739,o),
(194,748,c),
(234,766,o),
(291,754,o),
(320,704,c),
(336,674,o),
(341,643,o),
(327,610,c),
(326,605,o),
(324,601,o),
(321,598,c),
(314,589,o),
(303,589,o),
(297,599,c),
(296,604,o),
(294,608,o),
(293,613,c),
(285,641,o),
(263,653,o),
(237,662,c),
(228,665,o),
(221,658,o),
(215,653,c),
(201,641,o),
(191,626,o),
(182,611,c),
(164,580,o),
(152,545,o),
(144,511,c),
(125,415,o),
(126,322,o),
(155,227,c),
(162,199,o),
(176,172,o),
(195,148,c),
(204,137,o),
(215,128,o),
(227,121,c),
(252,104,o),
(272,110,o),
(291,131,c),
(305,145,o),
(314,161,o),
(323,176,c),
(327,184,o),
(332,190,o),
(336,196,c),
(345,205,o),
(357,208,o),
(368,202,c),
(378,196,o),
(386,185,o),
(383,173,c),
(371,127,o),
(354,83,o),
(314,53,c),
(279,26,o),
(240,22,o),
(200,38,c),
(158,53,o),
(126,82,o),
(102,118,c),
(77,155,o),
(63,196,o),
(54,239,c),
(42,289,o),
(38,338,o),
(38,389,c)
);
}
);
width = 390;
}
);
unicode = 67;
},
{
glyphname = D;
kernLeft = D;
kernRight = D;
lastChange = "2023-01-05 15:41:16 +0000";
layers = (
{
anchors = (
{
name = bottom;
pos = (248,-131);
},
{
name = center;
pos = (248,469);
},
{
name = top;
pos = (219,778);
}
);
layerId = m01;
shapes = (
{
closed = 1;
nodes = (
(167,76,o),
(174,83,o),
(182,89,c),
(221,122,o),
(251,163,o),
(279,206,c),
(317,263,o),
(339,328,o),
(353,394,c),
(366,460,o),
(366,526,o),
(339,590,c),
(329,614,o),
(315,637,o),
(297,655,c),
(240,712,o),
(173,689,o),
(134,650,c),
(129,644,o),
(126,640,o),
(126,632,c),
(126,619,o),
(126,605,o),
(128,590,c),
(137,520,o),
(141,448,o),
(146,377,c),
(149,343,o),
(152,310,o),
(153,275,c),
(155,214,o),
(155,154,o),
(155,92,c),
(155,86,o),
(153,79,o),
(156,71,c)
);
},
{
closed = 1;
nodes = (
(455,391,o),
(434,305,o),
(390,226,c),
(348,151,o),
(294,86,o),
(225,35,c),
(207,22,o),
(189,11,o),
(168,5,c),
(161,4,o),
(153,2,o),
(146,1,c),
(113,-2,o),
(77,26,o),
(74,61,c),
(74,70,o),
(75,79,o),
(83,83,c),
(92,86,o),
(90,92,o),
(89,98,c),
(83,124,o),
(78,151,o),
(74,178,c),
(68,212,o),
(62,248,o),
(59,284,c),
(51,382,o),
(45,481,o),
(38,580,c),
(38,598,o),
(38,616,o),
(38,634,c),
(38,656,o),
(45,674,o),
(57,694,c),
(89,743,o),
(134,770,o),
(191,781,c),
(249,791,o),
(300,773,o),
(345,737,c),
(410,683,o),
(443,611,o),
(453,527,c),
(455,518,o),
(455,509,o),
(456,499,c),
(456,493,o),
(456,488,o),
(456,482,c)
);
}
);
width = 494;
}
);
unicode = 68;
},
{
glyphname = Eth;
kernLeft = D;
kernRight = D;
lastChange = "2023-01-05 15:41:16 +0000";
layers = (
{
layerId = m01;
shapes = (
{
closed = 1;
nodes = (
(366,460,o),
(366,526,o),
(339,590,c),
(329,614,o),
(315,637,o),
(296,655,c),
(239,712,o),
(171,689,o),
(132,650,c),
(128,644,o),
(125,640,o),
(126,632,c),
(126,619,o),
(126,605,o),
(128,590,c),
(134,533,o),
(138,475,o),
(143,418,c),
(150,419,o),
(159,419,o),
(167,421,c),
(195,425,o),
(275,424,o),
(282,418,c),
(300,406,o),
(302,389,o),
(287,374,c),
(279,367,o),
(189,349,o),
(180,347,c),
(170,344,o),
(159,341,o),
(149,340,c),
(150,317,o),
(152,296,o),
(152,275,c),
(155,214,o),
(155,154,o),
(153,92,c),
(153,86,o),
(153,79,o),
(156,71,c),
(167,76,o),
(174,83,o),
(180,89,c),
(221,122,o),
(251,163,o),
(278,206,c),
(315,263,o),
(339,328,o),
(353,394,c)
);
},
{
closed = 1;
nodes = (
(456,493,o),
(456,488,o),
(456,482,c),
(455,391,o),
(434,305,o),
(389,226,c),
(348,151,o),
(293,86,o),
(224,35,c),
(207,22,o),
(189,11,o),
(168,5,c),
(161,4,o),
(153,2,o),
(146,1,c),
(111,-2,o),
(77,26,o),
(74,61,c),
(72,70,o),
(74,79,o),
(83,83,c),
(90,86,o),
(90,92,o),
(89,98,c),
(81,124,o),
(78,151,o),
(74,178,c),
(66,212,o),
(60,248,o),
(59,284,c),
(57,295,o),
(57,305,o),
(56,317,c),
(24,310,o),
(-12,301,o),
(-18,302,c),
(-45,310,o),
(-57,349,o),
(-31,373,c),
(-24,379,o),
(-15,385,o),
(-6,386,c),
(-1,389,o),
(18,394,o),
(50,401,c),
(45,461,o),
(42,520,o),
(38,580,c),
(36,598,o),
(38,616,o),
(38,634,c),
(38,656,o),
(45,674,o),
(57,694,c),
(89,743,o),
(134,770,o),
(191,781,c),
(248,791,o),
(300,773,o),
(344,737,c),
(410,683,o),
(443,611,o),
(453,527,c),
(453,518,o),
(455,509,o),
(456,499,c)
);
}
);
width = 494;
}
);
unicode = 208;
},
{
glyphname = E;
kernLeft = E;
kernRight = E;
lastChange = "2023-03-30 19:51:52 +0000";
layers = (
{
anchors = (
{
name = bottom;
pos = (173,38);
},
{
name = ogonek;
pos = (174,58);
},
{
name = top;
pos = (201,748);
},
{
name = topleft;
pos = (30,1069);
}
);
layerId = m01;
shapes = (
{
closed = 1;
nodes = (
(50,457,o),
(53,515,o),
(51,574,c),
(50,596,o),
(53,619,o),
(54,641,c),
(54,652,o),
(54,659,o),
(47,668,c),
(32,686,o),
(36,712,o),
(56,725,c),
(66,733,o),
(80,740,o),
(93,742,c),
(141,749,o),
(189,758,o),
(237,760,c),
(260,760,o),
(282,760,o),
(303,755,c),
(320,751,o),
(333,743,o),
(345,730,c),
(356,718,o),
(357,706,o),
(350,694,c),
(342,683,o),
(330,679,o),
(315,685,c),
(299,691,o),
(281,689,o),
(263,688,c),
(227,682,o),
(192,674,o),
(158,667,c),
(149,665,o),
(144,662,o),
(144,652,c),
(149,574,o),
(144,494,o),
(147,416,c),
(149,400,o),
(149,400,o),
(164,403,c),
(188,407,o),
(213,406,o),
(237,407,c),
(255,407,o),
(273,407,o),
(293,406,c),
(309,406,o),
(318,398,o),
(321,385,c),
(323,373,o),
(317,362,o),
(302,355,c),
(284,346,o),
(261,344,o),
(242,340,c),
(215,335,o),
(189,331,o),
(164,328,c),
(153,326,o),
(152,322,o),
(152,311,c),
(156,257,o),
(162,203,o),
(173,151,c),
(180,118,o),
(179,116,o),
(210,136,c),
(246,158,o),
(278,188,o),
(305,221,c),
(311,229,o),
(317,235,o),
(326,239,c),
(342,247,o),
(360,235,o),
(360,217,c),
(359,211,o),
(359,205,o),
(356,199,c),
(353,185,o),
(347,173,o),
(338,161,c),
(306,113,o),
(267,73,o),
(219,40,c),
(174,11,o),
(129,26,o),
(107,65,c),
(87,97,o),
(81,131,o),
(74,167,c),
(65,220,o),
(60,275,o),
(57,329,c),
(56,352,o),
(56,374,o),
(54,398,c)
);
}
);
width = 398;
}
);
unicode = 69;
},
{
glyphname = F;
lastChange = "2023-03-23 10:03:14 +0000";
layers = (
{
anchors = (
{
name = bottom;
pos = (242,-131);
},
{
name = top;
pos = (242,802);
}
);
layerId = m01;
shapes = (
{
closed = 1;
nodes = (
(161,442,o),
(161,442,o),
(177,445,c),
(230,455,o),
(282,457,o),
(335,451,c),
(341,451,o),
(345,449,o),
(350,448,c),
(372,436,o),
(375,410,o),
(356,394,c),
(342,382,o),
(324,376,o),
(305,373,c),
(264,367,o),
(222,361,o),
(180,353,c),
(167,352,o),
(165,352,o),
(167,337,c),
(170,296,o),
(173,256,o),
(176,217,c),
(179,176,o),
(182,136,o),
(186,95,c),
(188,76,o),
(189,56,o),
(198,38,c),
(203,26,o),
(198,11,o),
(188,2,c),
(176,-7,o),
(159,-7,o),
(147,1,c),
(137,10,o),
(131,22,o),
(125,34,c),
(113,70,o),
(105,107,o),
(98,146,c),
(86,206,o),
(78,266,o),
(74,328,c),
(68,403,o),
(65,476,o),
(63,550,c),
(62,587,o),
(59,623,o),
(60,659,c),
(60,664,o),
(60,670,o),
(56,674,c),
(24,707,o),
(35,746,o),
(78,761,c),
(96,767,o),
(116,772,o),
(134,775,c),
(188,782,o),
(242,788,o),
(297,788,c),
(327,790,o),
(357,788,o),
(386,779,c),
(405,775,o),
(423,764,o),
(437,746,c),
(443,737,o),
(446,728,o),
(444,716,c),
(440,700,o),
(423,686,o),
(407,692,c),
(366,706,o),
(326,697,o),
(287,695,c),
(248,694,o),
(210,689,o),
(171,686,c),
(155,685,o),
(155,685,o),
(155,668,c),
(155,634,o),
(158,494,o),
(159,458,c)
);
}
);
width = 422;
}
);
unicode = 70;
},
{
glyphname = G;
kernLeft = G;
kernRight = G;
lastChange = "2023-01-05 15:41:16 +0000";
layers = (
{
anchors = (
{
name = bottom;
pos = (155,23);
},
{
name = top;
pos = (284,767);
}
);
layerId = m01;
shapes = (
{
closed = 1;
nodes = (
(278,394,o),
(263,391,o),
(249,386,c),
(233,382,o),
(224,385,o),
(215,397,c),
(206,409,o),
(206,425,o),
(213,437,c),
(218,446,o),
(227,452,o),
(236,457,c),
(249,463,o),
(263,466,o),
(276,467,c),
(315,472,o),
(356,478,o),
(395,478,c),
(425,478,o),
(455,479,o),
(485,472,c),
(497,470,o),
(509,466,o),
(521,458,c),
(530,451,o),
(533,442,o),
(530,433,c),
(527,424,o),
(518,418,o),
(506,419,c),
(477,422,o),
(449,421,o),
(419,419,c),
(416,418,o),
(411,418,o),
(408,418,c),
(389,413,o),
(390,416,o),
(390,397,c),
(387,349,o),
(384,302,o),
(380,254,c),
(375,220,o),
(366,184,o),
(360,149,c),
(357,119,o),
(351,89,o),
(347,59,c),
(347,58,o),
(347,55,o),
(347,52,c),
(342,37,o),
(333,28,o),
(321,26,c),
(308,26,o),
(296,34,o),
(291,49,c),
(287,67,o),
(288,86,o),
(287,104,c),
(285,112,o),
(287,118,o),
(285,125,c),
(273,104,o),
(261,83,o),
(248,65,c),
(234,47,o),
(219,32,o),
(200,22,c),
(171,4,o),
(128,7,o),
(101,37,c),
(86,55,o),
(74,73,o),
(66,95,c),
(54,127,o),
(47,161,o),
(44,196,c),
(35,268,o),
(38,340,o),
(47,412,c),
(56,479,o),
(74,542,o),
(99,605,c),
(117,646,o),
(140,683,o),
(168,718,c),
(186,737,o),
(207,754,o),
(233,766,c),
(267,781,o),
(318,778,o),
(350,736,c),
(366,713,o),
(381,691,o),
(386,662,c),
(387,655,o),
(387,647,o),
(384,640,c),
(380,628,o),
(371,625,o),
(362,635,c),
(357,640,o),
(353,646,o),
(348,652,c),
(338,665,o),
(326,677,o),
(311,685,c),
(294,695,o),
(281,692,o),
(266,682,c),
(243,664,o),
(227,641,o),
(212,617,c),
(185,572,o),
(167,524,o),
(155,473,c),
(140,415,o),
(134,356,o),
(132,296,c),
(132,248,o),
(134,199,o),
(147,151,c),
(150,136,o),
(155,122,o),
(162,109,c),
(168,97,o),
(170,97,o),
(180,106,c),
(200,122,o),
(212,143,o),
(224,166,c),
(240,199,o),
(252,235,o),
(263,269,c),
(273,302,o),
(282,335,o),
(290,368,c),
(293,377,o),
(294,386,o),
(294,398,c)
);
}
);
width = 524;
}
);
unicode = 71;
},
{
glyphname = H;
kernLeft = H;
kernRight = H;
lastChange = "2023-01-05 15:43:59 +0000";
layers = (
{
anchors = (
{
name = bottom;
pos = (209,-131);
},
{
name = center;
pos = (209,469);
},
{
name = top;
pos = (239,740);
},
{
name = topleft;
pos = (62,1032);
}
);
layerId = m01;
shapes = (
{
closed = 1;
nodes = (
(248,371,o),
(213,359,o),
(180,347,c),
(168,343,o),
(155,337,o),
(143,332,c),
(134,331,o),
(131,326,o),
(131,316,c),
(132,263,o),
(134,212,o),
(138,160,c),
(141,127,o),
(143,95,o),
(147,64,c),
(149,50,o),
(141,40,o),
(131,37,c),
(122,34,o),
(110,40,o),
(102,50,c),
(98,59,o),
(95,68,o),
(93,77,c),
(80,127,o),
(72,178,o),
(66,229,c),
(62,253,o),
(59,277,o),
(56,301,c),
(54,311,o),
(53,322,o),
(45,331,c),
(36,341,o),
(36,355,o),
(42,367,c),
(45,373,o),
(47,379,o),
(45,386,c),
(36,469,o),
(38,550,o),
(39,632,c),
(41,658,o),
(42,682,o),
(45,707,c),
(48,721,o),
(54,734,o),
(65,745,c),
(84,764,o),
(114,758,o),
(125,731,c),
(131,719,o),
(131,706,o),
(131,692,c),
(131,641,o),
(132,589,o),
(131,538,c),
(131,502,o),
(134,467,o),
(132,431,c),
(132,419,o),
(134,418,o),
(146,421,c),
(186,434,o),
(228,442,o),
(270,449,c),
(285,452,o),
(285,452,o),
(285,466,c),
(284,505,o),
(282,544,o),
(285,583,c),
(288,617,o),
(290,653,o),
(300,686,c),
(303,698,o),
(308,709,o),
(314,718,c),
(323,728,o),
(332,734,o),
(345,733,c),
(359,731,o),
(366,722,o),
(371,710,c),
(378,688,o),
(380,664,o),
(380,641,c),
(378,583,o),
(377,524,o),
(372,466,c),
(372,458,o),
(371,449,o),
(375,442,c),
(380,436,o),
(380,428,o),
(377,424,c),
(365,406,o),
(368,385,o),
(366,365,c),
(363,304,o),
(360,241,o),
(357,178,c),
(357,151,o),
(357,122,o),
(357,95,c),
(357,83,o),
(359,71,o),
(362,59,c),
(365,46,o),
(360,37,o),
(350,31,c),
(341,26,o),
(332,28,o),
(321,37,c),
(309,46,o),
(306,59,o),
(302,73,c),
(294,98,o),
(293,125,o),
(291,152,c),
(287,217,o),
(290,281,o),
(285,346,c),
(284,356,o),
(285,368,o),
(285,382,c)
);
}
);
width = 417;
}
);
unicode = 72;
},
{
glyphname = Hbar;
kernLeft = H;
kernRight = H;
lastChange = "2023-01-05 15:41:16 +0000";
layers = (
{
layerId = m01;
shapes = (
{
closed = 1;
nodes = (
(287,452,o),
(287,452,o),
(287,466,c),
(285,502,o),
(284,538,o),
(287,574,c),
(236,566,o),
(177,556,o),
(132,545,c),
(132,544,o),
(132,541,o),
(132,538,c),
(132,502,o),
(135,467,o),
(134,431,c),
(134,419,o),
(135,418,o),
(146,421,c),
(188,434,o),
(230,442,o),
(272,449,c)
);
},
{
closed = 1;
nodes = (
(378,548,o),
(377,506,o),
(374,466,c),
(374,458,o),
(372,449,o),
(377,442,c),
(381,436,o),
(381,428,o),
(378,424,c),
(366,406,o),
(369,385,o),
(368,365,c),
(363,304,o),
(362,241,o),
(359,178,c),
(357,151,o),
(359,122,o),
(359,95,c),
(359,83,o),
(360,71,o),
(362,59,c),
(366,46,o),
(362,37,o),
(351,31,c),
(342,26,o),
(333,28,o),
(321,37,c),
(311,46,o),
(306,59,o),
(303,73,c),
(296,98,o),
(294,125,o),
(293,152,c),
(288,217,o),
(291,281,o),
(287,346,c),
(285,356,o),
(287,368,o),
(287,382,c),
(249,371,o),
(215,359,o),
(182,347,c),
(170,343,o),
(156,337,o),
(144,332,c),
(135,331,o),
(132,326,o),
(132,316,c),
(132,263,o),
(135,212,o),
(140,160,c),
(143,127,o),
(144,95,o),
(149,64,c),
(150,50,o),
(143,40,o),
(131,37,c),
(123,34,o),
(111,40,o),
(104,50,c),
(99,59,o),
(96,68,o),
(93,77,c),
(81,127,o),
(74,178,o),
(66,229,c),
(63,253,o),
(60,277,o),
(57,301,c),
(56,311,o),
(54,322,o),
(47,331,c),
(38,341,o),
(36,355,o),
(44,367,c),
(47,373,o),
(48,379,o),
(47,386,c),
(42,433,o),
(39,478,o),
(39,523,c),
(33,523,o),
(29,521,o),
(27,523,c),
(0,530,o),
(-12,569,o),
(14,593,c),
(21,599,o),
(30,604,o),
(39,607,c),
(39,607,o),
(39,607,o),
(41,607,c),
(41,616,o),
(41,623,o),
(41,632,c),
(42,658,o),
(42,682,o),
(47,707,c),
(50,721,o),
(56,734,o),
(66,745,c),
(86,764,o),
(116,758,o),
(126,731,c),
(132,719,o),
(132,706,o),
(132,692,c),
(132,670,o),
(132,646,o),
(132,623,c),
(186,631,o),
(245,635,o),
(291,637,c),
(293,655,o),
(296,671,o),
(302,686,c),
(305,698,o),
(309,709,o),
(315,718,c),
(323,728,o),
(333,734,o),
(347,733,c),
(360,731,o),
(368,722,o),
(372,710,c),
(380,688,o),
(381,664,o),
(380,641,c),
(380,640,o),
(380,640,o),
(380,638,c),
(387,638,o),
(392,638,o),
(393,637,c),
(411,625,o),
(413,608,o),
(398,593,c),
(396,592,o),
(390,590,o),
(380,589,c)
);
}
);
width = 431;
}
);
unicode = 294;
},
{
glyphname = I;
kernLeft = I;
kernRight = I;
lastChange = "2023-03-30 19:51:30 +0000";
layers = (
{
anchors = (
{
name = bottom;
pos = (90,-131);
},
{
name = ogonek;
pos = (119,40);
},
{
name = top;
pos = (95,773);
},
{
name = topleft;
pos = (30,1069);
}
);
layerId = m01;
shapes = (
{
closed = 1;
nodes = (
(125,536,o),
(122,451,o),
(123,367,c),
(125,307,o),
(125,247,o),
(128,188,c),
(129,151,o),
(129,113,o),
(134,77,c),
(135,67,o),
(137,55,o),
(140,44,c),
(144,29,o),
(143,22,o),
(131,16,c),
(119,8,o),
(104,11,o),
(96,23,c),
(86,38,o),
(80,56,o),
(77,73,c),
(68,128,o),
(62,184,o),
(57,239,c),
(53,311,o),
(48,382,o),
(44,454,c),
(39,529,o),
(33,602,o),
(44,677,c),
(47,697,o),
(53,716,o),
(57,736,c),
(59,743,o),
(63,751,o),
(68,758,c),
(74,767,o),
(81,773,o),
(95,773,c),
(107,772,o),
(114,763,o),
(117,752,c),
(125,731,o),
(126,710,o),
(126,688,c),
(128,667,o),
(131,644,o),
(128,631,c)
);
}
);
width = 180;
}
);
unicode = 73;
},
{
glyphname = J;
kernLeft = J;
kernRight = J;
lastChange = "2023-01-05 15:41:16 +0000";
layers = (
{
anchors = (
{
name = bottom;
pos = (194,-131);
},
{
name = top;
pos = (281,746);
}
);
layerId = m01;
shapes = (
{
closed = 1;
nodes = (
(257,529,o),
(251,592,o),
(243,655,c),
(240,679,o),
(239,703,o),
(239,725,c),
(239,733,o),
(239,740,o),
(242,746,c),
(252,772,o),
(281,778,o),
(299,758,c),
(308,748,o),
(315,736,o),
(320,724,c),
(336,673,o),
(342,620,o),
(347,568,c),
(353,488,o),
(351,407,o),
(344,326,c),
(338,278,o),
(330,230,o),
(317,184,c),
(305,146,o),
(290,110,o),
(266,79,c),
(239,43,o),
(204,22,o),
(161,16,c),
(113,8,o),
(68,34,o),
(51,83,c),
(47,94,o),
(44,106,o),
(41,118,c),
(39,122,o),
(38,128,o),
(38,133,c),
(39,140,o),
(42,145,o),
(50,148,c),
(57,149,o),
(63,146,o),
(66,142,c),
(72,131,o),
(77,121,o),
(83,110,c),
(84,107,o),
(86,103,o),
(87,98,c),
(105,64,o),
(140,56,o),
(171,80,c),
(183,89,o),
(192,101,o),
(198,115,c),
(215,149,o),
(224,187,o),
(231,224,c),
(240,262,o),
(246,298,o),
(249,335,c),
(254,368,o),
(257,401,o),
(255,436,c),
(255,445,o),
(255,455,o),
(255,466,c)
);
}
);
width = 387;
}
);
unicode = 74;
},
{
glyphname = K;
kernLeft = K;
kernRight = K;
lastChange = "2023-01-05 15:41:16 +0000";
layers = (
{
anchors = (
{
name = bottom;
pos = (224,58);
},
{
name = top;
pos = (240,706);
}
);
layerId = m01;
shapes = (
{
closed = 1;
nodes = (
(141,458,o),
(146,464,o),
(150,470,c),
(192,515,o),
(236,560,o),
(276,608,c),
(300,635,o),
(323,662,o),
(345,689,c),
(351,697,o),
(357,706,o),
(366,710,c),
(377,718,o),
(387,718,o),
(398,712,c),
(407,706,o),
(410,695,o),
(408,685,c),
(407,677,o),
(404,670,o),
(401,664,c),
(378,617,o),
(350,577,o),
(317,538,c),
(281,497,o),
(243,457,o),
(206,419,c),
(195,409,o),
(186,400,o),
(177,391,c),
(167,380,o),
(167,380,o),
(177,371,c),
(186,361,o),
(197,352,o),
(209,343,c),
(243,314,o),
(278,286,o),
(317,260,c),
(341,244,o),
(363,223,o),
(387,206,c),
(401,197,o),
(404,184,o),
(401,172,c),
(395,158,o),
(384,154,o),
(369,152,c),
(363,152,o),
(357,152,o),
(351,154,c),
(302,166,o),
(255,184,o),
(215,217,c),
(189,238,o),
(164,259,o),
(137,278,c),
(132,275,o),
(134,271,o),
(134,266,c),
(134,209,o),
(134,152,o),
(135,95,c),
(135,80,o),
(135,67,o),
(138,52,c),
(143,34,o),
(137,22,o),
(125,16,c),
(113,8,o),
(96,11,o),
(84,20,c),
(75,29,o),
(69,41,o),
(65,53,c),
(57,77,o),
(54,103,o),
(51,128,c),
(42,200,o),
(39,272,o),
(39,344,c),
(38,464,o),
(36,584,o),
(39,704,c),
(39,715,o),
(41,727,o),
(42,737,c),
(48,760,o),
(68,775,o),
(90,773,c),
(113,770,o),
(131,752,o),
(129,728,c),
(128,680,o),
(132,632,o),
(132,584,c),
(131,542,o),
(131,500,o),
(131,455,c)
);
}
);
width = 416;
}
);
unicode = 75;
},
{
glyphname = L;
kernLeft = L;
kernRight = L;
lastChange = "2023-03-23 09:44:04 +0000";
layers = (
{
anchors = (
{
name = bottom;
pos = (198,25);
},
{
name = center;
pos = (272,469);
},
{
name = top;
pos = (156,788);
},
{
name = topright;
pos = (367,531);
}
);
layerId = m01;
shapes = (
{
closed = 1;
nodes = (
(39,298,o),
(38,364,o),
(38,428,c),
(38,493,o),
(36,556,o),
(38,620,c),
(38,653,o),
(38,685,o),
(41,718,c),
(42,728,o),
(44,739,o),
(47,748,c),
(50,757,o),
(53,764,o),
(60,772,c),
(78,790,o),
(107,785,o),
(120,763,c),
(128,752,o),
(129,739,o),
(131,725,c),
(134,650,o),
(132,577,o),
(128,502,c),
(128,494,o),
(126,487,o),
(126,479,c),
(125,413,o),
(123,346,o),
(120,280,c),
(119,230,o),
(119,181,o),
(120,130,c),
(120,104,o),
(122,104,o),
(146,109,c),
(186,118,o),
(225,128,o),
(266,134,c),
(306,140,o),
(347,145,o),
(386,143,c),
(408,143,o),
(431,143,o),
(453,143,c),
(465,143,o),
(477,142,o),
(486,136,c),
(500,130,o),
(506,115,o),
(503,103,c),
(501,92,o),
(491,83,o),
(483,88,c),
(462,98,o),
(444,89,o),
(425,86,c),
(405,83,o),
(386,76,o),
(366,68,c),
(306,47,o),
(243,34,o),
(180,20,c),
(156,16,o),
(134,10,o),
(110,4,c),
(102,2,o),
(93,1,o),
(86,2,c),
(54,5,o),
(36,26,o),
(38,56,c),
(39,91,o),
(42,124,o),
(41,158,c),
(41,182,o),
(41,208,o),
(41,241,c)
);
}
);
width = 512;
}
);
unicode = 76;
},
{
glyphname = Lslash;
kernLeft = L;
kernRight = L;
lastChange = "2023-01-05 15:41:16 +0000";
layers = (
{
layerId = m01;
shapes = (
{
closed = 1;
nodes = (
(512,130,o),
(518,115,o),
(516,103,c),
(513,92,o),
(503,83,o),
(495,88,c),
(474,98,o),
(456,89,o),
(437,86,c),
(417,83,o),
(398,76,o),
(378,68,c),
(318,47,o),
(255,34,o),
(192,20,c),
(170,16,o),
(146,10,o),
(122,4,c),
(114,2,o),
(105,1,o),
(98,2,c),
(66,5,o),
(48,26,o),
(50,56,c),
(51,91,o),
(54,124,o),
(53,158,c),
(53,182,o),
(53,208,o),
(53,241,c),
(53,266,o),
(51,293,o),
(51,322,c),
(39,308,o),
(29,296,o),
(24,293,c),
(-1,283,o),
(-36,307,o),
(-30,341,c),
(-28,350,o),
(-24,361,o),
(-18,368,c),
(0,391,o),
(24,416,o),
(50,442,c),
(50,502,o),
(50,562,o),
(50,620,c),
(50,653,o),
(50,685,o),
(53,718,c),
(54,728,o),
(56,739,o),
(59,748,c),
(62,757,o),
(65,764,o),
(72,772,c),
(90,790,o),
(120,785,o),
(132,763,c),
(140,752,o),
(141,739,o),
(143,725,c),
(146,659,o),
(144,593,o),
(141,527,c),
(194,574,o),
(239,608,o),
(243,608,c),
(266,608,o),
(276,598,o),
(273,577,c),
(273,568,o),
(200,496,o),
(137,428,c),
(137,379,o),
(134,329,o),
(132,280,c),
(131,230,o),
(131,181,o),
(132,130,c),
(132,104,o),
(134,104,o),
(158,109,c),
(198,118,o),
(237,128,o),
(278,134,c),
(318,140,o),
(359,145,o),
(399,143,c),
(422,143,o),
(443,143,o),
(465,143,c),
(477,143,o),
(489,142,o),
(500,136,c)
);
}
);
width = 554;
}
);
unicode = 321;
},
{
glyphname = M;
kernLeft = M;
kernRight = M;
lastChange = "2023-01-05 15:41:16 +0000";
layers = (
{
anchors = (
{
name = bottom;
pos = (258,302);
},
{
name = top;
pos = (306,727);
}
);
layerId = m01;
shapes = (
{
closed = 1;
nodes = (
(428,578,o),
(420,563,o),
(413,548,c),
(389,506,o),
(368,463,o),
(347,418,c),
(330,383,o),
(314,347,o),
(297,310,c),
(290,293,o),
(276,284,o),
(258,283,c),
(240,281,o),
(227,290,o),
(216,305,c),
(209,316,o),
(204,329,o),
(201,341,c),
(185,397,o),
(165,451,o),
(153,506,c),
(152,512,o),
(149,518,o),
(144,524,c),
(144,514,o),
(143,503,o),
(141,494,c),
(138,427,o),
(135,359,o),
(132,292,c),
(129,242,o),
(123,193,o),
(116,143,c),
(114,127,o),
(113,112,o),
(110,95,c),
(108,85,o),
(104,76,o),
(92,73,c),
(81,68,o),
(68,73,o),
(62,85,c),
(56,92,o),
(56,101,o),
(53,110,c),
(44,167,o),
(36,226,o),
(38,284,c),
(39,347,o),
(42,412,o),
(47,475,c),
(51,518,o),
(53,560,o),
(56,604,c),
(59,638,o),
(63,674,o),
(72,709,c),
(74,719,o),
(77,730,o),
(83,739,c),
(95,758,o),
(113,766,o),
(135,760,c),
(165,752,o),
(180,733,o),
(189,706,c),
(216,634,o),
(234,559,o),
(257,485,c),
(261,469,o),
(266,451,o),
(272,434,c),
(281,437,o),
(281,445,o),
(284,451,c),
(314,500,o),
(336,553,o),
(365,604,c),
(384,638,o),
(405,673,o),
(428,706,c),
(432,713,o),
(437,722,o),
(440,730,c),
(444,748,o),
(462,761,o),
(479,763,c),
(497,764,o),
(516,754,o),
(524,737,c),
(530,727,o),
(531,713,o),
(533,701,c),
(536,667,o),
(536,631,o),
(537,595,c),
(537,508,o),
(534,422,o),
(527,335,c),
(524,305,o),
(525,274,o),
(524,242,c),
(521,178,o),
(521,113,o),
(521,49,c),
(521,34,o),
(513,25,o),
(503,22,c),
(492,20,o),
(480,25,o),
(474,37,c),
(468,49,o),
(465,62,o),
(464,74,c),
(459,104,o),
(459,136,o),
(456,166,c),
(452,221,o),
(452,277,o),
(447,332,c),
(440,415,o),
(440,497,o),
(441,580,c),
(441,583,o),
(441,586,o),
(440,595,c)
);
}
);
width = 575;
}
);
unicode = 77;
},
{
glyphname = N;
kernLeft = N;
kernRight = N;
lastChange = "2023-01-05 15:41:16 +0000";
layers = (
{
anchors = (
{
name = bottom;
pos = (236,67);
},
{
name = top;
pos = (227,758);
}
);
layerId = m01;
shapes = (
{
closed = 1;
nodes = (
(126,407,o),
(128,388,o),
(128,367,c),
(126,322,o),
(128,278,o),
(125,235,c),
(122,172,o),
(120,110,o),
(123,49,c),
(123,47,o),
(123,46,o),
(123,44,c),
(123,32,o),
(120,23,o),
(113,22,c),
(104,20,o),
(95,26,o),
(90,40,c),
(84,67,o),
(81,95,o),
(77,122,c),
(72,151,o),
(68,179,o),
(63,208,c),
(59,235,o),
(57,262,o),
(54,287,c),
(50,331,o),
(47,373,o),
(45,415,c),
(39,493,o),
(38,572,o),
(38,652,c),
(38,677,o),
(41,703,o),
(48,728,c),
(50,734,o),
(51,740,o),
(56,745,c),
(68,766,o),
(95,769,o),
(111,751,c),
(120,742,o),
(129,730,o),
(134,716,c),
(159,655,o),
(179,593,o),
(198,530,c),
(219,461,o),
(245,394,o),
(273,329,c),
(291,284,o),
(312,241,o),
(338,199,c),
(342,193,o),
(344,185,o),
(353,181,c),
(354,206,o),
(356,230,o),
(356,253,c),
(356,292,o),
(356,331,o),
(354,370,c),
(351,440,o),
(353,511,o),
(353,581,c),
(353,622,o),
(353,661,o),
(350,700,c),
(350,709,o),
(350,716,o),
(341,721,c),
(332,725,o),
(335,737,o),
(342,742,c),
(356,749,o),
(374,748,o),
(380,731,c),
(386,719,o),
(389,706,o),
(392,694,c),
(408,623,o),
(411,551,o),
(416,479,c),
(419,406,o),
(425,334,o),
(431,260,c),
(432,217,o),
(435,175,o),
(434,133,c),
(432,112,o),
(431,92,o),
(425,73,c),
(416,38,o),
(380,25,o),
(348,41,c),
(335,49,o),
(324,61,o),
(314,74,c),
(284,107,o),
(260,145,o),
(237,184,c),
(209,239,o),
(183,296,o),
(161,353,c),
(152,377,o),
(144,400,o),
(135,424,c),
(134,425,o),
(134,428,o),
(129,428,c)
);
}
);
width = 471;
}
);
unicode = 78;
},
{
glyphname = Eng;
kernLeft = N;
kernRight = J;
lastChange = "2023-01-05 15:41:16 +0000";
layers = (
{
layerId = m01;
shapes = (
{
closed = 1;
nodes = (
(437,343,o),
(435,263,o),
(426,182,c),
(422,134,o),
(414,86,o),
(401,40,c),
(389,2,o),
(374,-34,o),
(350,-65,c),
(323,-101,o),
(288,-122,o),
(245,-128,c),
(195,-136,o),
(152,-110,o),
(135,-62,c),
(131,-50,o),
(128,-38,o),
(125,-26,c),
(123,-22,o),
(122,-17,o),
(122,-11,c),
(123,-5,o),
(126,1,o),
(134,2,c),
(140,5,o),
(147,2,o),
(150,-4,c),
(156,-13,o),
(161,-23,o),
(167,-34,c),
(168,-37,o),
(170,-41,o),
(171,-46,c),
(189,-80,o),
(224,-88,o),
(255,-65,c),
(267,-55,o),
(276,-44,o),
(282,-31,c),
(297,2,o),
(306,38,o),
(314,73,c),
(314,73,o),
(314,73,o),
(314,74,c),
(284,107,o),
(260,145,o),
(239,184,c),
(209,239,o),
(185,296,o),
(162,353,c),
(153,377,o),
(144,400,o),
(135,424,c),
(134,425,o),
(134,428,o),
(129,428,c),
(126,407,o),
(128,388,o),
(128,367,c),
(126,322,o),
(128,278,o),
(126,235,c),
(122,172,o),
(120,110,o),
(123,49,c),
(123,47,o),
(123,46,o),
(123,44,c),
(123,32,o),
(120,23,o),
(113,22,c),
(104,20,o),
(95,26,o),
(92,40,c),
(84,67,o),
(81,95,o),
(77,122,c),
(72,151,o),
(68,179,o),
(63,208,c),
(59,235,o),
(57,262,o),
(54,287,c),
(51,331,o),
(48,373,o),
(45,415,c),
(41,493,o),
(38,572,o),
(38,652,c),
(39,677,o),
(42,703,o),
(48,728,c),
(50,734,o),
(53,740,o),
(56,745,c),
(69,766,o),
(96,769,o),
(111,751,c),
(122,742,o),
(129,730,o),
(135,716,c),
(159,655,o),
(179,593,o),
(198,530,c),
(219,461,o),
(245,394,o),
(273,329,c),
(291,286,o),
(311,244,o),
(335,205,c),
(338,233,o),
(339,262,o),
(339,290,c),
(339,301,o),
(339,311,o),
(339,322,c),
(341,385,o),
(321,569,o),
(314,632,c),
(311,656,o),
(308,680,o),
(309,703,c),
(309,710,o),
(309,718,o),
(312,724,c),
(323,749,o),
(350,755,o),
(369,734,c),
(378,725,o),
(386,713,o),
(389,700,c),
(405,650,o),
(426,476,o),
(431,424,c)
);
}
);
width = 471;
}
);
unicode = 330;
},
{
glyphname = O;
kernLeft = O;
kernRight = O;
lastChange = "2023-01-05 15:41:16 +0000";
layers = (
{
anchors = (
{
name = bottom;
pos = (240,-131);
},
{
name = center;
pos = (240,469);
},
{
name = ogonek;
pos = (293,23);
},
{
name = top;
pos = (246,797);
},
{
name = topleft;
pos = (30,1069);
},
{
name = topright;
pos = (449,1069);
}
);
layerId = m01;
shapes = (
{
closed = 1;
nodes = (
(209,695,o),
(207,689,o),
(206,685,c),
(198,668,o),
(191,653,o),
(185,637,c),
(150,554,o),
(135,467,o),
(132,379,c),
(131,338,o),
(132,298,o),
(138,256,c),
(143,217,o),
(152,178,o),
(167,142,c),
(173,127,o),
(180,112,o),
(191,100,c),
(212,74,o),
(239,68,o),
(267,85,c),
(293,100,o),
(311,124,o),
(323,149,c),
(335,178,o),
(344,206,o),
(350,236,c),
(360,292,o),
(360,347,o),
(353,404,c),
(347,445,o),
(336,484,o),
(326,523,c),
(314,565,o),
(300,605,o),
(282,644,c),
(275,662,o),
(266,680,o),
(251,694,c),
(248,697,o),
(245,700,o),
(242,697,c),
(231,686,o),
(224,694,o),
(216,698,c)
);
},
{
closed = 1;
nodes = (
(38,422,o),
(45,479,o),
(56,535,c),
(66,587,o),
(81,638,o),
(104,686,c),
(114,709,o),
(126,728,o),
(144,745,c),
(150,751,o),
(158,757,o),
(165,761,c),
(179,766,o),
(189,775,o),
(198,785,c),
(212,797,o),
(230,802,o),
(246,797,c),
(284,790,o),
(314,772,o),
(336,740,c),
(357,710,o),
(372,677,o),
(386,644,c),
(426,541,o),
(446,434,o),
(440,323,c),
(435,262,o),
(425,200,o),
(404,143,c),
(389,98,o),
(365,59,o),
(329,29,c),
(285,-7,o),
(237,-26,o),
(182,-7,c),
(152,2,o),
(129,23,o),
(111,49,c),
(86,83,o),
(72,122,o),
(60,163,c),
(44,223,o),
(38,286,o),
(38,349,c),
(38,355,o),
(38,359,o),
(38,365,c)
);
}
);
width = 479;
}
);
unicode = 79;
},
{
glyphname = Oslash;
kernLeft = O;
kernRight = O;
lastChange = "2023-01-05 15:41:16 +0000";
layers = (
{
layerId = m01;
shapes = (
{
closed = 1;
nodes = (
(371,292,o),
(371,347,o),
(363,404,c),
(360,431,o),
(354,460,o),
(347,487,c),
(285,380,o),
(210,254,o),
(167,173,c),
(170,163,o),
(174,152,o),
(179,142,c),
(185,127,o),
(192,112,o),
(201,100,c),
(222,74,o),
(249,68,o),
(278,85,c),
(305,100,o),
(321,124,o),
(335,149,c),
(347,178,o),
(354,206,o),
(360,236,c)
);
},
{
closed = 1;
nodes = (
(143,347,o),
(143,314,o),
(147,283,c),
(204,377,o),
(272,484,o),
(324,565,c),
(317,592,o),
(306,619,o),
(294,644,c),
(285,662,o),
(278,680,o),
(263,694,c),
(260,697,o),
(257,700,o),
(252,697,c),
(243,686,o),
(234,694,o),
(227,698,c),
(221,695,o),
(219,689,o),
(216,685,c),
(209,668,o),
(203,653,o),
(195,637,c),
(161,554,o),
(147,467,o),
(143,379,c)
);
},
{
closed = 1;
nodes = (
(443,511,o),
(456,419,o),
(450,323,c),
(447,262,o),
(437,200,o),
(416,143,c),
(399,98,o),
(377,59,o),
(341,29,c),
(297,-7,o),
(249,-26,o),
(192,-7,c),
(162,2,o),
(140,23,o),
(122,49,c),
(119,53,o),
(117,56,o),
(114,61,c),
(107,43,o),
(98,26,o),
(93,23,c),
(72,5,o),
(33,20,o),
(30,55,c),
(29,65,o),
(30,74,o),
(35,83,c),
(42,101,o),
(56,127,o),
(74,158,c),
(74,160,o),
(72,161,o),
(72,163,c),
(56,223,o),
(50,286,o),
(50,349,c),
(50,355,o),
(50,359,o),
(48,365,c),
(50,422,o),
(56,479,o),
(68,535,c),
(78,587,o),
(93,638,o),
(116,686,c),
(125,709,o),
(138,728,o),
(156,745,c),
(162,751,o),
(168,757,o),
(177,761,c),
(189,766,o),
(200,775,o),
(210,785,c),
(224,797,o),
(240,802,o),
(258,797,c),
(296,790,o),
(326,772,o),
(348,740,c),
(365,715,o),
(378,689,o),
(389,662,c),
(404,683,o),
(413,697,o),
(414,697,c),
(435,703,o),
(449,695,o),
(452,674,c),
(452,671,o),
(437,643,o),
(413,601,c)
);
}
);
width = 489;
}
);
unicode = 216;
},
{
glyphname = OE;
kernLeft = O;
kernRight = E;
lastChange = "2023-01-05 15:41:16 +0000";
layers = (
{
layerId = m01;
shapes = (
{
closed = 1;
nodes = (
(360,292,o),
(360,347,o),
(353,404,c),
(348,445,o),
(338,484,o),
(326,523,c),
(315,565,o),
(302,605,o),
(284,644,c),
(275,662,o),
(267,680,o),
(252,694,c),
(249,697,o),
(246,700,o),
(242,697,c),
(233,686,o),
(224,694,o),
(216,698,c),
(210,695,o),
(209,689,o),
(206,685,c),
(198,668,o),
(192,653,o),
(185,637,c),
(150,554,o),
(137,467,o),
(132,379,c),
(131,338,o),
(134,298,o),
(140,256,c),
(144,217,o),
(152,178,o),
(168,142,c),
(174,127,o),
(182,112,o),
(191,100,c),
(212,74,o),
(239,68,o),
(269,85,c),
(294,100,o),
(311,124,o),
(324,149,c),
(336,178,o),
(344,206,o),
(350,236,c)
);
},
{
closed = 1;
nodes = (
(647,247,o),
(665,235,o),
(665,217,c),
(665,211,o),
(663,205,o),
(662,199,c),
(657,185,o),
(651,173,o),
(642,161,c),
(611,113,o),
(572,73,o),
(524,40,c),
(479,11,o),
(435,26,o),
(411,65,c),
(402,79,o),
(396,94,o),
(392,110,c),
(377,79,o),
(357,52,o),
(330,29,c),
(287,-7,o),
(239,-26,o),
(182,-7,c),
(152,2,o),
(129,23,o),
(111,49,c),
(87,83,o),
(72,122,o),
(62,163,c),
(45,223,o),
(39,286,o),
(39,349,c),
(39,355,o),
(39,359,o),
(38,365,c),
(39,422,o),
(45,479,o),
(57,535,c),
(68,587,o),
(83,638,o),
(105,686,c),
(114,709,o),
(128,728,o),
(146,745,c),
(152,751,o),
(158,757,o),
(167,761,c),
(179,766,o),
(189,775,o),
(200,785,c),
(213,797,o),
(230,802,o),
(248,797,c),
(285,790,o),
(315,772,o),
(338,740,c),
(342,733,o),
(347,725,o),
(351,718,c),
(354,719,o),
(357,722,o),
(360,725,c),
(371,733,o),
(384,740,o),
(398,742,c),
(446,749,o),
(494,758,o),
(543,760,c),
(564,760,o),
(587,760,o),
(608,755,c),
(624,751,o),
(639,743,o),
(650,730,c),
(660,718,o),
(662,706,o),
(654,694,c),
(647,683,o),
(635,679,o),
(620,685,c),
(603,691,o),
(585,689,o),
(567,688,c),
(531,682,o),
(497,674,o),
(462,667,c),
(453,665,o),
(449,662,o),
(449,652,c),
(453,574,o),
(449,494,o),
(452,416,c),
(453,400,o),
(453,400,o),
(468,403,c),
(492,407,o),
(518,406,o),
(542,407,c),
(560,407,o),
(579,407,o),
(597,406,c),
(614,406,o),
(623,398,o),
(626,385,c),
(627,373,o),
(621,362,o),
(608,355,c),
(588,346,o),
(567,344,o),
(546,340,c),
(521,335,o),
(494,331,o),
(468,328,c),
(458,326,o),
(456,322,o),
(456,311,c),
(461,257,o),
(467,203,o),
(479,151,c),
(486,118,o),
(483,116,o),
(515,136,c),
(551,158,o),
(582,188,o),
(609,221,c),
(615,229,o),
(621,235,o),
(630,239,c)
);
}
);
width = 702;
}
);
unicode = 338;
},
{
glyphname = P;
lastChange = "2023-01-05 15:41:16 +0000";
layers = (
{
anchors = (
{
name = bottom;
pos = (239,-131);
},
{
name = top;
pos = (239,817);
}
);
layerId = m01;
shapes = (
{
closed = 1;
nodes = (
(152,457,o),
(150,416,o),
(149,376,c),
(149,356,o),
(149,337,o),
(147,319,c),
(147,316,o),
(147,311,o),
(150,308,c),
(155,307,o),
(158,310,o),
(161,313,c),
(179,326,o),
(197,340,o),
(215,353,c),
(245,374,o),
(270,400,o),
(293,430,c),
(318,463,o),
(335,502,o),
(345,544,c),
(350,559,o),
(353,575,o),
(353,590,c),
(353,608,o),
(351,625,o),
(344,641,c),
(315,707,o),
(239,734,o),
(168,691,c),
(161,686,o),
(158,680,o),
(159,673,c),
(159,664,o),
(159,655,o),
(159,646,c),
(161,596,o),
(156,547,o),
(155,518,c)
);
},
{
closed = 1;
nodes = (
(441,547,o),
(429,502,o),
(411,458,c),
(380,383,o),
(327,325,o),
(263,277,c),
(228,251,o),
(194,229,o),
(155,215,c),
(147,212,o),
(146,208,o),
(146,200,c),
(146,136,o),
(143,119,o),
(144,56,c),
(146,44,o),
(149,32,o),
(147,20,c),
(147,-1,o),
(138,-13,o),
(123,-14,c),
(108,-16,o),
(92,-4,o),
(87,13,c),
(80,37,o),
(75,62,o),
(71,86,c),
(63,133,o),
(60,131,o),
(56,178,c),
(56,182,o),
(56,187,o),
(56,190,c),
(57,203,o),
(56,214,o),
(47,226,c),
(32,242,o),
(35,257,o),
(51,269,c),
(57,274,o),
(57,278,o),
(57,283,c),
(59,322,o),
(60,359,o),
(60,398,c),
(63,457,o),
(65,514,o),
(68,572,c),
(69,610,o),
(77,647,o),
(83,683,c),
(84,688,o),
(86,692,o),
(84,697,c),
(81,721,o),
(95,737,o),
(111,751,c),
(144,778,o),
(182,794,o),
(224,800,c),
(251,805,o),
(276,800,o),
(302,790,c),
(380,763,o),
(425,709,o),
(440,628,c),
(441,617,o),
(440,607,o),
(440,595,c)
);
}
);
width = 447;
}
);
unicode = 80;
},
{
glyphname = Thorn;
kernLeft = P;
kernRight = P;
lastChange = "2023-01-05 15:41:16 +0000";
layers = (
{
layerId = m01;
shapes = (
{
closed = 1;
nodes = (
(149,212,o),
(162,229,o),
(177,245,c),
(212,283,o),
(237,325,o),
(254,373,c),
(267,407,o),
(272,443,o),
(267,479,c),
(258,547,o),
(200,566,o),
(147,542,c),
(132,535,o),
(126,526,o),
(126,509,c),
(128,424,o),
(126,338,o),
(128,253,c),
(128,235,o),
(128,218,o),
(128,197,c)
);
},
{
closed = 1;
nodes = (
(165,641,o),
(203,644,o),
(239,634,c),
(272,623,o),
(297,605,o),
(317,577,c),
(336,548,o),
(347,518,o),
(350,484,c),
(356,398,o),
(336,319,o),
(282,251,c),
(243,203,o),
(200,164,o),
(149,131,c),
(135,124,o),
(131,115,o),
(132,100,c),
(137,71,o),
(134,41,o),
(138,13,c),
(138,8,o),
(138,2,o),
(137,-2,c),
(134,-13,o),
(126,-20,o),
(117,-22,c),
(107,-22,o),
(99,-17,o),
(95,-10,c),
(90,-1,o),
(87,7,o),
(86,16,c),
(81,43,o),
(77,70,o),
(74,98,c),
(72,106,o),
(71,112,o),
(62,116,c),
(54,119,o),
(51,125,o),
(50,133,c),
(47,142,o),
(48,151,o),
(57,157,c),
(65,161,o),
(66,167,o),
(65,175,c),
(59,229,o),
(54,283,o),
(48,335,c),
(42,385,o),
(39,433,o),
(38,481,c),
(36,491,o),
(38,502,o),
(38,511,c),
(38,557,o),
(36,605,o),
(38,652,c),
(39,688,o),
(42,722,o),
(45,758,c),
(45,766,o),
(47,772,o),
(50,778,c),
(59,797,o),
(77,808,o),
(96,803,c),
(114,799,o),
(128,782,o),
(126,761,c),
(125,725,o),
(126,688,o),
(126,652,c),
(126,644,o),
(126,637,o),
(128,628,c)
);
}
);
width = 389;
}
);
unicode = 222;
},
{
glyphname = Q;
lastChange = "2023-01-05 15:41:16 +0000";
layers = (
{
anchors = (
{
name = bottom;
pos = (270,-131);
},
{
name = top;
pos = (270,1069);
}
);
layerId = m01;
shapes = (
{
closed = 1;
nodes = (
(348,248,o),
(350,248,o),
(351,251,c),
(357,263,o),
(363,275,o),
(368,287,c),
(399,373,o),
(408,460,o),
(393,550,c),
(390,568,o),
(386,586,o),
(378,602,c),
(368,622,o),
(360,643,o),
(341,655,c),
(327,664,o),
(314,662,o),
(300,661,c),
(288,661,o),
(285,652,o),
(279,644,c),
(270,629,o),
(257,625,o),
(242,632,c),
(231,638,o),
(225,635,o),
(219,626,c),
(216,622,o),
(212,616,o),
(209,611,c),
(182,572,o),
(165,529,o),
(152,484,c),
(134,425,o),
(128,367,o),
(132,307,c),
(137,260,o),
(146,217,o),
(168,175,c),
(176,161,o),
(185,146,o),
(198,136,c),
(216,122,o),
(230,121,o),
(249,131,c),
(258,137,o),
(266,143,o),
(273,151,c),
(299,172,o),
(299,172,o),
(276,196,c),
(260,211,o),
(243,226,o),
(231,244,c),
(219,260,o),
(221,283,o),
(233,296,c),
(245,308,o),
(263,311,o),
(281,302,c),
(296,295,o),
(306,283,o),
(318,271,c),
(327,262,o),
(335,253,o),
(347,245,c)
);
},
{
closed = 1;
nodes = (
(350,92,o),
(335,77,o),
(318,65,c),
(294,47,o),
(267,34,o),
(237,31,c),
(197,28,o),
(162,41,o),
(132,68,c),
(108,91,o),
(90,118,o),
(77,148,c),
(42,227,o),
(33,308,o),
(39,394,c),
(44,457,o),
(59,515,o),
(81,574,c),
(99,620,o),
(125,664,o),
(161,698,c),
(183,721,o),
(209,736,o),
(242,734,c),
(246,733,o),
(251,736,o),
(255,739,c),
(302,767,o),
(347,761,o),
(392,734,c),
(419,718,o),
(437,692,o),
(452,664,c),
(471,628,o),
(482,589,o),
(488,547,c),
(498,482,o),
(497,416,o),
(482,350,c),
(470,296,o),
(449,245,o),
(422,196,c),
(408,170,o),
(408,170,o),
(428,148,c),
(446,125,o),
(465,104,o),
(485,83,c),
(489,76,o),
(495,70,o),
(500,62,c),
(504,53,o),
(504,44,o),
(497,35,c),
(491,28,o),
(480,26,o),
(471,29,c),
(464,32,o),
(456,37,o),
(449,41,c),
(426,56,o),
(404,74,o),
(383,92,c),
(377,98,o),
(371,103,o),
(365,109,c)
);
}
);
width = 540;
}
);
unicode = 81;
},
{
glyphname = R;
kernLeft = R;
kernRight = R;
lastChange = "2023-01-05 15:41:16 +0000";
layers = (
{
anchors = (
{
name = bottom;
pos = (234,56);
},
{
name = top;
pos = (270,814);
}
);
layerId = m01;
shapes = (
{
closed = 1;
nodes = (
(140,286,o),
(143,290,o),
(149,293,c),
(185,317,o),
(218,346,o),
(246,377,c),
(279,413,o),
(308,452,o),
(329,496,c),
(350,539,o),
(363,583,o),
(357,631,c),
(353,664,o),
(333,706,o),
(285,715,c),
(267,718,o),
(249,719,o),
(233,715,c),
(197,707,o),
(164,694,o),
(132,677,c),
(123,671,o),
(120,667,o),
(120,658,c),
(122,632,o),
(122,608,o),
(122,584,c),
(122,512,o),
(125,442,o),
(126,371,c),
(128,343,o),
(129,314,o),
(131,286,c)
);
},
{
closed = 1;
nodes = (
(245,236,o),
(260,230,o),
(275,226,c),
(317,211,o),
(357,193,o),
(395,170,c),
(422,155,o),
(447,137,o),
(471,121,c),
(480,113,o),
(489,106,o),
(494,97,c),
(503,82,o),
(506,67,o),
(497,52,c),
(485,37,o),
(470,34,o),
(452,37,c),
(443,40,o),
(432,43,o),
(423,49,c),
(390,73,o),
(357,95,o),
(320,113,c),
(266,139,o),
(209,161,o),
(150,172,c),
(146,172,o),
(141,173,o),
(137,172,c),
(137,154,o),
(137,134,o),
(138,116,c),
(140,88,o),
(141,58,o),
(143,29,c),
(144,11,o),
(140,4,o),
(129,-1,c),
(116,-5,o),
(104,-1,o),
(95,13,c),
(81,32,o),
(77,53,o),
(74,76,c),
(65,122,o),
(59,170,o),
(53,217,c),
(45,269,o),
(42,322,o),
(41,374,c),
(38,449,o),
(36,526,o),
(38,602,c),
(38,628,o),
(41,655,o),
(44,682,c),
(45,701,o),
(54,716,o),
(74,722,c),
(78,724,o),
(81,725,o),
(83,728,c),
(125,766,o),
(174,785,o),
(228,797,c),
(300,814,o),
(372,785,o),
(414,722,c),
(437,686,o),
(446,646,o),
(444,604,c),
(444,553,o),
(429,506,o),
(408,461,c),
(369,380,o),
(312,316,o),
(245,259,c),
(239,254,o),
(233,251,o),
(228,242,c)
);
}
);
width = 510;
}
);
unicode = 82;
},
{
glyphname = S;
kernLeft = S;
kernRight = S;
lastChange = "2023-01-05 15:41:16 +0000";
layers = (
{
anchors = (
{
name = bottom;
pos = (251,20);
},
{
name = top;
pos = (249,803);
}
);
layerId = m01;
shapes = (
{
closed = 1;
nodes = (
(120,457,o),
(153,397,o),
(219,353,c),
(251,332,o),
(287,317,o),
(321,302,c),
(354,289,o),
(389,272,o),
(417,250,c),
(432,239,o),
(444,226,o),
(452,209,c),
(467,176,o),
(462,145,o),
(444,115,c),
(428,85,o),
(402,64,o),
(374,44,c),
(336,20,o),
(296,2,o),
(251,1,c),
(230,-1,o),
(209,2,o),
(189,11,c),
(155,29,o),
(143,64,o),
(158,98,c),
(165,115,o),
(177,128,o),
(191,140,c),
(203,151,o),
(215,152,o),
(224,143,c),
(234,136,o),
(236,124,o),
(230,110,c),
(228,106,o),
(225,100,o),
(222,95,c),
(218,85,o),
(219,83,o),
(230,83,c),
(251,82,o),
(270,85,o),
(288,92,c),
(317,104,o),
(344,119,o),
(365,143,c),
(384,166,o),
(384,175,o),
(359,191,c),
(336,208,o),
(309,218,o),
(284,230,c),
(245,247,o),
(206,263,o),
(171,287,c),
(125,317,o),
(89,356,o),
(65,407,c),
(50,439,o),
(41,475,o),
(38,511,c),
(35,563,o),
(41,616,o),
(62,665,c),
(81,713,o),
(111,754,o),
(156,779,c),
(206,809,o),
(273,817,o),
(333,758,c),
(383,713,o),
(413,655,o),
(431,590,c),
(435,574,o),
(435,556,o),
(434,538,c),
(432,527,o),
(428,517,o),
(417,512,c),
(405,508,o),
(395,512,o),
(386,521,c),
(381,526,o),
(377,533,o),
(374,539,c),
(363,556,o),
(356,575,o),
(347,593,c),
(333,623,o),
(318,653,o),
(297,679,c),
(288,689,o),
(279,700,o),
(267,707,c),
(248,722,o),
(227,724,o),
(204,713,c),
(188,704,o),
(173,692,o),
(162,676,c),
(138,646,o),
(126,610,o),
(122,572,c),
(120,560,o),
(117,548,o),
(119,539,c)
);
}
);
width = 468;
}
);
unicode = 83;
},
{
glyphname = Germandbls;
lastChange = "2023-01-05 15:41:16 +0000";
layers = (
{
layerId = m01;
shapes = (
{
closed = 1;
nodes = (
(152,200,o),
(165,209,o),
(177,218,c),
(200,235,o),
(222,251,o),
(242,271,c),
(248,278,o),
(254,286,o),
(258,293,c),
(263,301,o),
(261,307,o),
(254,310,c),
(243,314,o),
(233,314,o),
(222,313,c),
(213,311,o),
(206,310,o),
(197,310,c),
(164,310,o),
(143,343,o),
(152,373,c),
(155,380,o),
(158,388,o),
(162,395,c),
(182,425,o),
(201,457,o),
(219,488,c),
(239,520,o),
(254,553,o),
(263,590,c),
(272,629,o),
(267,667,o),
(239,698,c),
(221,719,o),
(212,718,o),
(197,695,c),
(192,689,o),
(189,682,o),
(185,674,c),
(173,650,o),
(165,625,o),
(158,598,c),
(126,484,o),
(120,368,o),
(131,250,c),
(132,230,o),
(132,209,o),
(138,187,c)
);
},
{
closed = 1;
nodes = (
(284,394,o),
(297,386,o),
(309,379,c),
(348,353,o),
(359,305,o),
(342,266,c),
(333,245,o),
(321,229,o),
(306,212,c),
(275,181,o),
(240,154,o),
(204,131,c),
(183,118,o),
(176,116,o),
(149,115,c),
(150,95,o),
(153,77,o),
(156,58,c),
(156,53,o),
(158,47,o),
(158,43,c),
(159,25,o),
(153,14,o),
(140,8,c),
(126,4,o),
(108,7,o),
(99,17,c),
(89,31,o),
(80,44,o),
(74,61,c),
(63,97,o),
(56,134,o),
(50,170,c),
(39,247,o),
(36,325,o),
(39,401,c),
(44,472,o),
(51,541,o),
(69,608,c),
(80,647,o),
(92,686,o),
(111,722,c),
(120,740,o),
(131,757,o),
(146,770,c),
(183,806,o),
(225,812,o),
(270,785,c),
(311,761,o),
(335,724,o),
(348,679,c),
(360,634,o),
(356,590,o),
(342,548,c),
(330,506,o),
(309,467,o),
(287,430,c),
(281,419,o),
(275,409,o),
(269,397,c)
);
}
);
width = 393;
}
);
unicode = 7838;
},
{
glyphname = T;
kernLeft = T;
kernRight = T;
lastChange = "2023-03-30 19:52:37 +0000";
layers = (
{
anchors = (
{
name = bottom;
pos = (354,25);
},
{
name = center;
pos = (327,469);
},
{
name = top;
pos = (318,800);
}
);
layerId = m01;
shapes = (
{
closed = 1;
nodes = (
(353,475,o),
(354,415,o),
(359,355,c),
(362,316,o),
(363,278,o),
(366,239,c),
(369,182,o),
(372,127,o),
(377,71,c),
(378,61,o),
(381,52,o),
(383,41,c),
(384,31,o),
(380,19,o),
(371,13,c),
(362,7,o),
(350,8,o),
(339,16,c),
(330,23,o),
(324,32,o),
(320,44,c),
(308,71,o),
(302,101,o),
(297,131,c),
(284,215,o),
(276,301,o),
(272,386,c),
(270,416,o),
(267,448,o),
(266,478,c),
(264,530,o),
(263,583,o),
(263,634,c),
(263,656,o),
(264,679,o),
(267,700,c),
(270,713,o),
(269,715,o),
(257,715,c),
(204,713,o),
(150,712,o),
(99,704,c),
(89,703,o),
(80,701,o),
(69,703,c),
(54,706,o),
(44,715,o),
(39,730,c),
(35,745,o),
(42,760,o),
(56,769,c),
(63,775,o),
(72,778,o),
(81,779,c),
(137,793,o),
(192,799,o),
(249,800,c),
(297,800,o),
(345,797,o),
(393,793,c),
(452,787,o),
(510,781,o),
(566,763,c),
(575,760,o),
(584,757,o),
(593,752,c),
(611,745,o),
(618,731,o),
(615,716,c),
(612,701,o),
(600,692,o),
(582,692,c),
(543,692,o),
(506,692,o),
(467,698,c),
(432,703,o),
(396,706,o),
(360,710,c),
(348,712,o),
(348,710,o),
(348,698,c),
(345,671,o),
(348,643,o),
(348,616,c),
(348,589,o),
(348,562,o),
(348,535,c)
);
}
);
width = 516;
}
);
unicode = 84;
},
{
glyphname = U;
kernLeft = U;
kernRight = U;
lastChange = "2023-01-05 15:41:16 +0000";
layers = (
{
anchors = (
{
name = bottom;
pos = (300,-131);
},
{
name = ogonek;
pos = (323,73);
},
{
name = top;
pos = (320,775);
},
{
name = topright;
pos = (570,1069);
}
);
layerId = m01;
shapes = (
{
closed = 1;
nodes = (
(38,599,o),
(39,644,o),
(47,689,c),
(53,719,o),
(60,749,o),
(77,776,c),
(83,787,o),
(90,796,o),
(99,803,c),
(110,809,o),
(122,812,o),
(132,805,c),
(144,799,o),
(147,788,o),
(147,776,c),
(144,743,o),
(141,712,o),
(138,679,c),
(135,628,o),
(131,577,o),
(132,526,c),
(134,452,o),
(143,382,o),
(162,311,c),
(171,275,o),
(186,239,o),
(203,206,c),
(215,182,o),
(231,161,o),
(249,143,c),
(252,139,o),
(255,136,o),
(260,134,c),
(275,122,o),
(287,121,o),
(303,133,c),
(323,146,o),
(338,163,o),
(351,182,c),
(380,223,o),
(404,268,o),
(423,316,c),
(449,379,o),
(467,443,o),
(476,511,c),
(482,548,o),
(482,586,o),
(485,623,c),
(488,667,o),
(491,710,o),
(485,754,c),
(485,761,o),
(486,767,o),
(489,775,c),
(498,802,o),
(530,802,o),
(545,785,c),
(555,775,o),
(560,761,o),
(563,746,c),
(563,745,o),
(563,742,o),
(563,739,c),
(563,631,o),
(564,521,o),
(540,415,c),
(533,379,o),
(522,346,o),
(510,311,c),
(494,256,o),
(470,203,o),
(441,154,c),
(423,125,o),
(402,97,o),
(377,73,c),
(344,41,o),
(305,25,o),
(258,32,c),
(243,35,o),
(230,40,o),
(218,49,c),
(185,68,o),
(161,97,o),
(140,130,c),
(102,187,o),
(78,251,o),
(63,319,c),
(45,397,o),
(38,475,o),
(38,545,c)
);
}
);
width = 600;
}
);
unicode = 85;
},
{
glyphname = V;
lastChange = "2023-01-05 15:41:16 +0000";
layers = (
{
anchors = (
{
name = bottom;
pos = (258,-131);
},
{
name = top;
pos = (258,1069);
}
);
layerId = m01;
shapes = (
{
closed = 1;
nodes = (
(249,161,o),
(257,185,o),
(264,211,c),
(291,304,o),
(314,398,o),
(336,493,c),
(351,556,o),
(375,617,o),
(392,680,c),
(398,700,o),
(405,721,o),
(411,740,c),
(414,749,o),
(419,757,o),
(422,764,c),
(431,779,o),
(447,787,o),
(459,782,c),
(473,778,o),
(482,758,o),
(479,743,c),
(456,655,o),
(447,563,o),
(429,472,c),
(420,428,o),
(408,386,o),
(396,343,c),
(377,262,o),
(356,182,o),
(329,104,c),
(320,79,o),
(309,53,o),
(297,28,c),
(293,19,o),
(287,10,o),
(281,2,c),
(255,-25,o),
(218,-25,o),
(194,2,c),
(182,16,o),
(174,32,o),
(168,49,c),
(153,89,o),
(137,130,o),
(125,172,c),
(113,218,o),
(101,266,o),
(90,314,c),
(69,418,o),
(54,523,o),
(42,628,c),
(38,667,o),
(35,707,o),
(41,748,c),
(42,760,o),
(45,772,o),
(51,782,c),
(62,800,o),
(83,806,o),
(99,802,c),
(114,797,o),
(128,785,o),
(129,763,c),
(129,760,o),
(129,757,o),
(129,754,c),
(129,683,o),
(138,613,o),
(147,544,c),
(153,499,o),
(161,455,o),
(168,410,c),
(183,325,o),
(201,239,o),
(230,157,c),
(231,151,o),
(233,143,o),
(239,136,c)
);
}
);
width = 486;
}
);
unicode = 86;
},
{
glyphname = W;
kernLeft = W;
kernRight = W;
lastChange = "2023-03-30 19:43:09 +0000";
layers = (
{
anchors = (
{
name = bottom;
pos = (390,-131);
},
{
name = top;
pos = (387,680);
}
);
layerId = m01;
shapes = (
{
closed = 1;
nodes = (
(380,253,o),
(378,236,o),
(377,220,c),
(374,176,o),
(363,136,o),
(350,94,c),
(342,73,o),
(333,53,o),
(320,35,c),
(290,-5,o),
(243,-5,o),
(210,26,c),
(192,43,o),
(180,62,o),
(170,83,c),
(135,154,o),
(116,229,o),
(96,304,c),
(78,373,o),
(65,442,o),
(53,511,c),
(45,553,o),
(39,595,o),
(38,637,c),
(38,656,o),
(41,676,o),
(48,695,c),
(56,710,o),
(68,719,o),
(83,718,c),
(98,716,o),
(107,707,o),
(113,695,c),
(120,677,o),
(123,658,o),
(126,638,c),
(135,587,o),
(144,536,o),
(155,484,c),
(164,436,o),
(174,386,o),
(185,338,c),
(194,295,o),
(204,253,o),
(219,212,c),
(230,184,o),
(239,157,o),
(254,131,c),
(255,128,o),
(255,125,o),
(260,124,c),
(266,136,o),
(269,148,o),
(270,160,c),
(287,236,o),
(299,313,o),
(308,391,c),
(312,436,o),
(315,481,o),
(321,524,c),
(324,542,o),
(326,560,o),
(330,577,c),
(333,589,o),
(339,599,o),
(347,607,c),
(366,623,o),
(399,620,o),
(414,601,c),
(428,586,o),
(432,566,o),
(434,548,c),
(443,481,o),
(455,413,o),
(467,347,c),
(476,298,o),
(488,250,o),
(504,203,c),
(515,173,o),
(527,145,o),
(546,121,c),
(554,110,o),
(555,110,o),
(564,121,c),
(581,145,o),
(591,172,o),
(599,199,c),
(618,262,o),
(630,326,o),
(638,391,c),
(642,434,o),
(645,479,o),
(648,523,c),
(650,560,o),
(647,596,o),
(644,634,c),
(641,673,o),
(641,710,o),
(645,749,c),
(648,772,o),
(663,784,o),
(686,781,c),
(693,779,o),
(699,775,o),
(704,769,c),
(711,760,o),
(716,748,o),
(719,737,c),
(734,688,o),
(740,635,o),
(741,584,c),
(744,464,o),
(732,346,o),
(705,229,c),
(695,185,o),
(681,142,o),
(660,101,c),
(650,79,o),
(636,59,o),
(618,43,c),
(578,4,o),
(528,5,o),
(489,44,c),
(474,59,o),
(462,74,o),
(452,92,c),
(423,142,o),
(407,196,o),
(392,250,c),
(390,256,o),
(389,262,o),
(387,269,c)
);
}
);
width = 779;
}
);
unicode = 87;
},
{
glyphname = X;
lastChange = "2023-01-05 15:41:16 +0000";
layers = (
{
anchors = (
{
name = bottom;
pos = (297,-131);
},
{
name = top;
pos = (297,1069);
}
);
layerId = m01;
shapes = (
{
closed = 1;
nodes = (
(243,265,o),
(219,224,o),
(195,182,c),
(171,139,o),
(146,95,o),
(123,50,c),
(117,40,o),
(111,29,o),
(102,20,c),
(89,10,o),
(75,5,o),
(60,13,c),
(45,19,o),
(38,34,o),
(38,52,c),
(39,64,o),
(44,74,o),
(48,85,c),
(66,121,o),
(86,157,o),
(105,191,c),
(141,254,o),
(177,316,o),
(213,379,c),
(219,389,o),
(219,397,o),
(215,406,c),
(189,457,o),
(164,506,o),
(140,557,c),
(125,592,o),
(108,628,o),
(95,664,c),
(92,671,o),
(87,680,o),
(87,688,c),
(84,709,o),
(98,727,o),
(117,731,c),
(137,736,o),
(155,725,o),
(162,706,c),
(173,683,o),
(183,661,o),
(194,638,c),
(216,590,o),
(240,542,o),
(263,494,c),
(264,490,o),
(266,484,o),
(272,479,c),
(282,496,o),
(293,514,o),
(303,530,c),
(332,577,o),
(359,625,o),
(390,671,c),
(416,709,o),
(443,745,o),
(476,776,c),
(483,784,o),
(492,791,o),
(501,794,c),
(515,802,o),
(528,802,o),
(542,793,c),
(555,784,o),
(558,769,o),
(557,752,c),
(555,740,o),
(548,733,o),
(536,731,c),
(527,731,o),
(524,727,o),
(519,722,c),
(506,701,o),
(492,682,o),
(480,661,c),
(456,619,o),
(428,580,o),
(405,538,c),
(384,502,o),
(360,467,o),
(341,430,c),
(335,419,o),
(329,409,o),
(321,398,c),
(317,394,o),
(317,388,o),
(321,382,c),
(342,344,o),
(363,308,o),
(389,274,c),
(413,239,o),
(438,203,o),
(462,167,c),
(480,142,o),
(495,115,o),
(512,89,c),
(516,83,o),
(519,77,o),
(522,71,c),
(527,58,o),
(524,47,o),
(512,38,c),
(503,31,o),
(494,31,o),
(480,38,c),
(468,46,o),
(458,56,o),
(447,67,c),
(417,100,o),
(386,134,o),
(359,172,c),
(332,208,o),
(306,247,o),
(281,284,c),
(276,292,o),
(275,299,o),
(267,305,c)
);
}
);
width = 549;
}
);
unicode = 88;
},
{
glyphname = Y;
kernLeft = Y;
kernRight = Y;
lastChange = "2023-01-05 15:41:16 +0000";
layers = (
{
anchors = (
{
name = bottom;
pos = (266,-131);
},
{
name = top;
pos = (249,761);
},
{
name = topleft;
pos = (30,1069);
}
);
layerId = m01;
shapes = (
{
closed = 1;
nodes = (
(260,436,o),
(260,443,o),
(263,449,c),
(293,535,o),
(327,617,o),
(369,698,c),
(380,719,o),
(393,742,o),
(407,761,c),
(414,773,o),
(422,784,o),
(434,791,c),
(440,797,o),
(447,800,o),
(455,802,c),
(479,806,o),
(497,788,o),
(494,764,c),
(491,748,o),
(482,733,o),
(474,718,c),
(429,631,o),
(387,544,o),
(356,452,c),
(321,359,o),
(293,265,o),
(266,169,c),
(255,136,o),
(245,103,o),
(236,70,c),
(234,61,o),
(233,52,o),
(234,41,c),
(236,28,o),
(230,16,o),
(221,11,c),
(207,7,o),
(189,10,o),
(179,19,c),
(168,31,o),
(164,46,o),
(164,61,c),
(164,91,o),
(170,119,o),
(176,148,c),
(188,205,o),
(203,262,o),
(221,319,c),
(224,329,o),
(224,335,o),
(215,344,c),
(188,368,o),
(171,398,o),
(155,428,c),
(123,490,o),
(95,553,o),
(72,617,c),
(60,649,o),
(50,682,o),
(39,715,c),
(33,734,o),
(42,754,o),
(60,763,c),
(78,770,o),
(98,764,o),
(110,748,c),
(116,737,o),
(120,725,o),
(125,715,c),
(149,661,o),
(168,604,o),
(192,550,c),
(209,511,o),
(228,473,o),
(249,437,c),
(249,434,o),
(252,433,o),
(254,430,c)
);
}
);
width = 411;
}
);
unicode = 89;
},
{
glyphname = Z;
kernLeft = Z;
kernRight = Z;
lastChange = "2023-01-05 15:41:16 +0000";
layers = (
{
anchors = (
{
name = bottom;
pos = (321,-131);
},
{
name = center;
pos = (321,469);
},
{
name = top;
pos = (360,794);
}
);
layerId = m01;
shapes = (
{
closed = 1;
nodes = (
(185,127,o),
(192,128,o),
(200,130,c),
(288,143,o),
(378,148,o),
(468,148,c),
(485,148,o),
(501,143,o),
(516,139,c),
(521,137,o),
(525,136,o),
(528,133,c),
(543,124,o),
(551,112,o),
(548,94,c),
(546,80,o),
(534,71,o),
(518,67,c),
(479,58,o),
(441,55,o),
(402,53,c),
(362,50,o),
(321,50,o),
(281,46,c),
(228,38,o),
(176,31,o),
(125,19,c),
(111,16,o),
(96,13,o),
(81,16,c),
(50,23,o),
(32,50,o),
(39,82,c),
(42,94,o),
(48,106,o),
(54,116,c),
(93,178,o),
(137,238,o),
(182,295,c),
(236,365,o),
(291,431,o),
(345,502,c),
(390,557,o),
(435,614,o),
(476,674,c),
(480,680,o),
(485,685,o),
(486,695,c),
(464,691,o),
(443,688,o),
(422,685,c),
(344,671,o),
(266,652,o),
(189,635,c),
(168,631,o),
(149,626,o),
(129,623,c),
(117,620,o),
(107,623,o),
(98,629,c),
(72,643,o),
(71,677,o),
(92,695,c),
(98,700,o),
(102,703,o),
(108,704,c),
(152,716,o),
(195,731,o),
(237,742,c),
(287,755,o),
(338,766,o),
(389,773,c),
(423,781,o),
(459,787,o),
(494,791,c),
(515,794,o),
(534,796,o),
(555,790,c),
(588,781,o),
(608,752,o),
(602,718,c),
(600,701,o),
(594,686,o),
(585,673,c),
(557,622,o),
(522,574,o),
(485,527,c),
(453,487,o),
(422,446,o),
(389,406,c),
(350,356,o),
(311,308,o),
(272,259,c),
(242,220,o),
(213,179,o),
(183,140,c),
(180,137,o),
(176,133,o),
(176,127,c)
);
}
);
width = 566;
}
);
unicode = 90;
},
{
glyphname = a;
kernLeft = a;
kernRight = a;
lastChange = "2023-01-05 15:41:16 +0000";
layers = (
{
anchors = (
{
name = bottom;
pos = (198,-131);
},
{
name = ogonek;
pos = (284,32);
},
{
name = top;
pos = (204,502);
}
);
layerId = m01;
shapes = (
{
closed = 1;
nodes = (
(197,122,o),
(218,143,o),
(233,170,c),
(237,178,o),
(231,191,o),
(222,197,c),
(213,203,o),
(209,196,o),
(203,193,c),
(201,190,o),
(198,188,o),
(197,185,c),
(179,160,o),
(170,133,o),
(176,100,c)
);
},
{
closed = 1;
nodes = (
(252,70,o),
(248,59,o),
(242,52,c),
(228,32,o),
(213,14,o),
(191,5,c),
(153,-13,o),
(110,5,o),
(95,44,c),
(66,118,o),
(80,187,o),
(128,248,c),
(155,281,o),
(192,296,o),
(236,287,c),
(239,287,o),
(240,286,o),
(243,286,c),
(248,296,o),
(243,305,o),
(242,314,c),
(236,343,o),
(230,370,o),
(219,395,c),
(203,430,o),
(195,431,o),
(167,407,c),
(144,388,o),
(125,365,o),
(110,340,c),
(105,334,o),
(102,328,o),
(102,320,c),
(102,305,o),
(96,296,o),
(81,292,c),
(71,289,o),
(56,295,o),
(48,305,c),
(39,319,o),
(36,332,o),
(39,349,c),
(44,379,o),
(57,407,o),
(74,431,c),
(92,457,o),
(113,479,o),
(140,497,c),
(182,524,o),
(237,523,o),
(276,479,c),
(293,461,o),
(302,440,o),
(311,418,c),
(326,377,o),
(335,334,o),
(341,290,c),
(348,230,o),
(353,172,o),
(357,112,c),
(359,95,o),
(359,77,o),
(357,59,c),
(354,19,o),
(317,-1,o),
(284,20,c),
(270,29,o),
(266,43,o),
(264,58,c),
(263,64,o),
(264,70,o),
(261,77,c)
);
}
);
width = 396;
}
);
unicode = 97;
},
{
glyphname = ae;
kernLeft = a;
kernRight = e;
lastChange = "2023-01-05 15:41:16 +0000";
layers = (
{
layerId = m01;
shapes = (
{
closed = 1;
nodes = (
(236,178,o),
(230,191,o),
(221,197,c),
(213,203,o),
(207,196,o),
(203,193,c),
(200,190,o),
(198,188,o),
(195,185,c),
(177,160,o),
(170,133,o),
(174,100,c),
(195,122,o),
(216,143,o),
(231,170,c)
);
},
{
closed = 1;
nodes = (
(366,271,o),
(365,266,o),
(368,263,c),
(372,260,o),
(375,262,o),
(378,263,c),
(410,280,o),
(431,305,o),
(443,337,c),
(443,340,o),
(443,344,o),
(443,344,c),
(443,353,o),
(441,361,o),
(435,364,c),
(429,367,o),
(423,364,o),
(419,359,c),
(413,356,o),
(408,352,o),
(404,347,c),
(386,325,o),
(375,299,o),
(366,274,c)
);
},
{
closed = 1;
nodes = (
(356,184,o),
(353,182,o),
(351,178,c),
(353,163,o),
(354,148,o),
(356,134,c),
(357,125,o),
(360,118,o),
(363,109,c),
(369,91,o),
(375,89,o),
(392,100,c),
(404,107,o),
(414,116,o),
(426,127,c),
(437,137,o),
(449,146,o),
(461,155,c),
(465,158,o),
(468,161,o),
(473,163,c),
(492,170,o),
(509,158,o),
(510,137,c),
(510,128,o),
(507,118,o),
(504,109,c),
(488,58,o),
(456,19,o),
(402,2,c),
(374,-7,o),
(347,-2,o),
(323,14,c),
(311,10,o),
(296,11,o),
(282,20,c),
(269,29,o),
(264,43,o),
(263,58,c),
(263,64,o),
(264,70,o),
(260,77,c),
(251,70,o),
(248,59,o),
(242,52,c),
(227,32,o),
(213,14,o),
(191,5,c),
(152,-13,o),
(108,5,o),
(93,44,c),
(65,118,o),
(78,187,o),
(128,248,c),
(153,281,o),
(191,296,o),
(234,287,c),
(237,287,o),
(240,286,o),
(243,286,c),
(246,296,o),
(242,305,o),
(240,314,c),
(236,343,o),
(230,370,o),
(218,395,c),
(203,430,o),
(194,431,o),
(167,407,c),
(144,388,o),
(123,365,o),
(108,340,c),
(105,334,o),
(102,328,o),
(102,320,c),
(102,305,o),
(95,296,o),
(80,292,c),
(69,289,o),
(54,295,o),
(47,305,c),
(38,319,o),
(36,332,o),
(38,349,c),
(42,379,o),
(56,407,o),
(72,431,c),
(90,457,o),
(111,479,o),
(138,497,c),
(180,524,o),
(237,523,o),
(276,479,c),
(291,461,o),
(302,440,o),
(309,418,c),
(314,406,o),
(318,394,o),
(323,380,c),
(335,397,o),
(348,412,o),
(365,424,c),
(381,436,o),
(399,443,o),
(420,445,c),
(480,449,o),
(528,397,o),
(519,334,c),
(516,322,o),
(513,308,o),
(507,296,c),
(489,262,o),
(465,232,o),
(434,209,c),
(413,194,o),
(389,182,o),
(362,184,c)
);
}
);
width = 558;
}
);
unicode = 230;
},
{
glyphname = b;
lastChange = "2023-03-23 09:57:59 +0000";
layers = (
{
anchors = (
{
name = bottom;
pos = (183,5);
},
{
name = center;
pos = (192,469);
},
{
name = top;
pos = (191,668);
}
);
layerId = m01;
shapes = (
{
closed = 1;
nodes = (
(138,175,o),
(140,175,o),
(140,175,c),
(140,158,o),
(140,143,o),
(140,127,c),
(140,100,o),
(146,95,o),
(173,100,c),
(186,101,o),
(198,109,o),
(207,119,c),
(221,133,o),
(231,149,o),
(237,167,c),
(246,194,o),
(252,221,o),
(251,250,c),
(251,272,o),
(246,293,o),
(236,313,c),
(230,323,o),
(224,332,o),
(215,337,c),
(201,346,o),
(188,344,o),
(180,331,c),
(158,292,o),
(134,253,o),
(137,203,c),
(138,194,o),
(138,184,o),
(138,175,c)
);
},
{
closed = 1;
nodes = (
(140,419,o),
(143,421,o),
(146,422,c),
(189,446,o),
(233,439,o),
(272,412,c),
(308,386,o),
(327,350,o),
(336,310,c),
(356,227,o),
(344,148,o),
(294,77,c),
(267,38,o),
(231,13,o),
(183,5,c),
(167,4,o),
(150,5,o),
(135,10,c),
(128,13,o),
(122,14,o),
(114,8,c),
(86,-16,o),
(41,5,o),
(39,44,c),
(36,86,o),
(38,128,o),
(42,169,c),
(47,211,o),
(45,251,o),
(44,293,c),
(44,367,o),
(41,439,o),
(39,512,c),
(38,562,o),
(35,611,o),
(41,662,c),
(44,694,o),
(48,727,o),
(60,757,c),
(65,769,o),
(72,776,o),
(84,781,c),
(102,790,o),
(122,779,o),
(122,758,c),
(126,650,o),
(129,541,o),
(132,433,c),
(134,428,o),
(132,424,o),
(137,418,c)
);
}
);
width = 383;
}
);
unicode = 98;
},
{
glyphname = c;
kernLeft = c;
kernRight = c;
lastChange = "2023-03-23 09:46:38 +0000";
layers = (
{
anchors = (
{
name = bottom;
pos = (140,14);
},
{
name = top;
pos = (177,415);
}
);
layerId = m01;
shapes = (
{
closed = 1;
nodes = (
(36,230,o),
(60,286,o),
(98,335,c),
(117,359,o),
(143,377,o),
(173,388,c),
(198,395,o),
(224,394,o),
(248,379,c),
(258,371,o),
(266,362,o),
(269,350,c),
(276,317,o),
(252,292,o),
(221,299,c),
(203,304,o),
(191,298,o),
(179,286,c),
(137,238,o),
(122,184,o),
(137,122,c),
(146,83,o),
(165,76,o),
(201,94,c),
(213,100,o),
(224,109,o),
(233,121,c),
(236,127,o),
(240,131,o),
(245,136,c),
(251,143,o),
(260,146,o),
(269,142,c),
(279,137,o),
(285,131,o),
(285,119,c),
(287,89,o),
(273,67,o),
(254,46,c),
(228,20,o),
(198,7,o),
(164,-1,c),
(135,-5,o),
(108,2,o),
(87,23,c),
(60,50,o),
(47,83,o),
(41,119,c),
(38,134,o),
(36,151,o),
(38,164,c)
);
}
);
width = 323;
}
);
unicode = 99;
},
{
glyphname = d;
kernLeft = d;
kernRight = d;
lastChange = "2023-03-23 09:58:03 +0000";
layers = (
{
anchors = (
{
name = bottom;
pos = (209,0);
},
{
name = center;
pos = (209,469);
},
{
name = top;
pos = (323,767);
},
{
name = topright;
pos = (458,518);
}
);
layerId = m01;
shapes = (
{
closed = 1;
nodes = (
(228,307,o),
(218,302,o),
(209,295,c),
(197,287,o),
(188,277,o),
(179,265,c),
(147,224,o),
(129,179,o),
(134,127,c),
(134,115,o),
(134,98,o),
(146,95,c),
(156,92,o),
(165,106,o),
(171,115,c),
(197,151,o),
(213,188,o),
(225,229,c),
(233,254,o),
(237,278,o),
(243,305,c)
);
},
{
closed = 1;
nodes = (
(281,113,o),
(273,97,o),
(263,80,c),
(246,55,o),
(228,34,o),
(203,17,c),
(180,2,o),
(155,-5,o),
(128,-1,c),
(98,5,o),
(75,23,o),
(60,49,c),
(44,77,o),
(38,107,o),
(38,140,c),
(39,226,o),
(74,296,o),
(134,355,c),
(152,371,o),
(171,388,o),
(197,392,c),
(219,397,o),
(240,395,o),
(261,389,c),
(264,388,o),
(269,386,o),
(275,389,c),
(275,410,o),
(276,434,o),
(275,457,c),
(275,482,o),
(276,508,o),
(278,533,c),
(279,563,o),
(278,592,o),
(278,622,c),
(279,647,o),
(279,674,o),
(282,700,c),
(284,718,o),
(288,736,o),
(299,751,c),
(303,760,o),
(311,767,o),
(323,767,c),
(336,769,o),
(347,763,o),
(353,751,c),
(362,736,o),
(366,719,o),
(368,701,c),
(372,667,o),
(372,632,o),
(371,598,c),
(371,518,o),
(369,437,o),
(368,356,c),
(368,311,o),
(369,266,o),
(368,221,c),
(366,176,o),
(366,130,o),
(371,83,c),
(371,74,o),
(372,64,o),
(375,53,c),
(381,37,o),
(375,22,o),
(360,14,c),
(347,8,o),
(332,13,o),
(321,26,c),
(315,35,o),
(312,46,o),
(309,56,c),
(303,80,o),
(299,106,o),
(293,134,c)
);
}
);
width = 416;
}
);
unicode = 100;
},
{
glyphname = eth;
kernLeft = d;
kernRight = d;
lastChange = "2023-01-05 15:41:16 +0000";
layers = (
{
layerId = m01;
shapes = (
{
closed = 1;
nodes = (
(278,311,o),
(278,314,o),
(278,317,c),
(276,333,o),
(273,335,o),
(258,329,c),
(244,323,o),
(230,319,o),
(219,309,c),
(182,278,o),
(155,237,o),
(143,190,c),
(137,175,o),
(136,158,o),
(144,143,c),
(151,128,o),
(155,123,o),
(172,126,c),
(193,131,o),
(211,143,o),
(224,159,c),
(258,201,o),
(278,250,o),
(278,305,c)
);
},
{
closed = 1;
nodes = (
(248,441,o),
(237,470,o),
(223,503,c),
(211,493,o),
(200,483,o),
(190,473,c),
(179,464,o),
(167,458,o),
(155,449,c),
(151,444,o),
(144,444,o),
(137,444,c),
(123,446,o),
(115,462,o),
(123,475,c),
(131,491,o),
(148,505,o),
(159,518,c),
(169,527,o),
(179,537,o),
(188,545,c),
(197,552,o),
(200,558,o),
(193,568,c),
(185,580,o),
(179,593,o),
(172,605,c),
(169,612,o),
(165,615,o),
(159,619,c),
(144,629,o),
(141,633,o),
(143,647,c),
(146,661,o),
(158,672,o),
(170,676,c),
(182,677,o),
(193,672,o),
(201,666,c),
(219,655,o),
(233,638,o),
(245,622,c),
(260,602,o),
(257,602,o),
(278,619,c),
(298,633,o),
(317,648,o),
(338,659,c),
(343,662,o),
(350,668,o),
(358,666,c),
(368,666,o),
(376,662,o),
(379,653,c),
(383,643,o),
(376,637,o),
(369,632,c),
(345,615,o),
(325,596,o),
(304,576,c),
(284,562,o),
(287,565,o),
(299,547,c),
(337,482,o),
(362,413,o),
(371,338,c),
(384,219,o),
(341,122,o),
(247,50,c),
(212,23,o),
(172,17,o),
(130,29,c),
(74,43,o),
(47,90,o),
(40,140,c),
(30,205,o),
(51,262,o),
(94,312,c),
(113,335,o),
(133,355,o),
(158,371,c),
(190,394,o),
(215,405,o),
(260,408,c)
);
}
);
width = 402;
}
);
unicode = 240;
},
{
glyphname = dcroat;
kernLeft = d;
kernRight = d;
lastChange = "2023-01-05 15:41:16 +0000";
layers = (
{
layerId = m01;
shapes = (
{
closed = 1;
nodes = (
(231,254,o),
(236,278,o),
(243,305,c),
(228,307,o),
(218,302,o),
(207,295,c),
(197,287,o),
(186,277,o),
(179,265,c),
(146,224,o),
(129,179,o),
(132,127,c),
(134,115,o),
(132,98,o),
(146,95,c),
(156,92,o),
(164,106,o),
(171,115,c),
(195,151,o),
(212,188,o),
(224,229,c)
);
},
{
closed = 1;
nodes = (
(476,529,o),
(477,512,o),
(461,499,c),
(455,494,o),
(419,493,o),
(369,487,c),
(369,443,o),
(368,400,o),
(368,356,c),
(366,311,o),
(368,266,o),
(368,221,c),
(366,176,o),
(366,130,o),
(369,83,c),
(371,74,o),
(371,64,o),
(375,53,c),
(381,37,o),
(375,22,o),
(360,14,c),
(347,8,o),
(332,13,o),
(321,26,c),
(315,35,o),
(311,46,o),
(309,56,c),
(303,80,o),
(297,106,o),
(291,134,c),
(281,113,o),
(273,97,o),
(263,80,c),
(246,55,o),
(227,34,o),
(201,17,c),
(179,2,o),
(155,-5,o),
(126,-1,c),
(96,5,o),
(75,23,o),
(60,49,c),
(44,77,o),
(38,107,o),
(38,140,c),
(39,226,o),
(74,296,o),
(134,355,c),
(152,371,o),
(170,388,o),
(197,392,c),
(218,397,o),
(240,395,o),
(261,389,c),
(264,388,o),
(267,386,o),
(275,389,c),
(275,410,o),
(275,434,o),
(275,457,c),
(275,463,o),
(275,469,o),
(275,476,c),
(272,475,o),
(270,475,o),
(267,475,c),
(260,473,o),
(188,460,o),
(177,463,c),
(150,473,o),
(143,514,o),
(170,535,c),
(179,541,o),
(188,545,o),
(197,547,c),
(224,550,o),
(251,553,o),
(278,554,c),
(278,577,o),
(278,599,o),
(278,622,c),
(278,647,o),
(278,674,o),
(281,700,c),
(284,718,o),
(288,736,o),
(297,751,c),
(303,760,o),
(311,767,o),
(323,767,c),
(336,769,o),
(345,763,o),
(353,751,c),
(362,736,o),
(365,719,o),
(368,701,c),
(371,667,o),
(371,632,o),
(371,598,c),
(371,584,o),
(371,569,o),
(371,554,c),
(422,553,o),
(456,547,o),
(461,544,c)
);
}
);
width = 420;
}
);
unicode = 273;
},
{
glyphname = e;
kernLeft = e;
kernRight = e;
lastChange = "2023-03-30 19:51:07 +0000";
layers = (
{
anchors = (
{
name = bottom;
pos = (146,23);
},
{
name = ogonek;
pos = (175,23);
},
{
name = top;
pos = (201,445);
}
);
layerId = m01;
shapes = (
{
closed = 1;
nodes = (
(225,353,o),
(224,361,o),
(218,364,c),
(212,367,o),
(206,364,o),
(200,359,c),
(195,356,o),
(191,352,o),
(186,347,c),
(168,325,o),
(158,299,o),
(149,274,c),
(147,271,o),
(146,266,o),
(150,263,c),
(153,260,o),
(158,262,o),
(161,263,c),
(191,280,o),
(212,305,o),
(224,337,c),
(225,340,o),
(225,344,o),
(225,344,c)
);
},
{
closed = 1;
nodes = (
(38,242,o),
(57,299,o),
(87,355,c),
(102,382,o),
(122,406,o),
(147,424,c),
(164,436,o),
(182,443,o),
(201,445,c),
(261,449,o),
(309,397,o),
(300,334,c),
(299,322,o),
(294,308,o),
(288,296,c),
(270,262,o),
(248,232,o),
(215,209,c),
(194,194,o),
(171,182,o),
(144,184,c),
(135,184,o),
(134,182,o),
(134,173,c),
(132,151,o),
(137,130,o),
(144,109,c),
(152,91,o),
(156,89,o),
(173,100,c),
(186,107,o),
(197,116,o),
(207,127,c),
(219,137,o),
(231,146,o),
(243,155,c),
(246,158,o),
(251,161,o),
(255,163,c),
(275,170,o),
(291,158,o),
(291,137,c),
(291,128,o),
(290,118,o),
(287,109,c),
(269,58,o),
(239,19,o),
(185,2,c),
(147,-8,o),
(114,1,o),
(86,29,c),
(57,58,o),
(47,95,o),
(41,134,c),
(39,149,o),
(39,164,o),
(38,179,c)
);
}
);
width = 339;
}
);
unicode = 101;
},
{
glyphname = f;
lastChange = "2023-03-30 19:49:17 +0000";
layers = (
{
anchors = (
{
name = bottom;
pos = (147,-131);
},
{
name = top;
pos = (147,500);
}
);
layerId = m01;
shapes = (
{
closed = 1;
nodes = (
(153,335,o),
(150,314,o),
(147,293,c),
(143,238,o),
(143,181,o),
(143,125,c),
(143,116,o),
(146,112,o),
(156,115,c),
(176,118,o),
(197,119,o),
(218,118,c),
(239,116,o),
(252,103,o),
(251,82,c),
(251,67,o),
(239,59,o),
(228,52,c),
(207,41,o),
(186,35,o),
(165,28,c),
(147,22,o),
(147,22,o),
(149,2,c),
(150,-16,o),
(152,-34,o),
(150,-53,c),
(150,-91,o),
(149,-130,o),
(147,-167,c),
(147,-175,o),
(147,-181,o),
(144,-187,c),
(137,-199,o),
(128,-206,o),
(113,-205,c),
(101,-205,o),
(89,-194,o),
(84,-179,c),
(81,-166,o),
(77,-151,o),
(75,-137,c),
(69,-100,o),
(59,-64,o),
(57,-25,c),
(56,-17,o),
(56,-8,o),
(54,-1,c),
(54,10,o),
(43,19,o),
(35,28,c),
(25,41,o),
(25,58,o),
(34,73,c),
(38,80,o),
(51,88,o),
(51,95,c),
(48,152,o),
(48,208,o),
(51,263,c),
(53,302,o),
(57,343,o),
(69,382,c),
(77,404,o),
(87,425,o),
(105,440,c),
(131,463,o),
(164,466,o),
(192,446,c),
(204,439,o),
(213,428,o),
(221,416,c),
(237,391,o),
(249,361,o),
(254,331,c),
(255,323,o),
(255,316,o),
(254,308,c),
(254,295,o),
(248,284,o),
(234,280,c),
(221,275,o),
(210,281,o),
(203,290,c),
(197,299,o),
(191,308,o),
(188,317,c),
(180,331,o),
(174,346,o),
(161,358,c)
);
}
);
width = 293;
}
);
unicode = 102;
},
{
glyphname = g;
kernLeft = g;
kernRight = g;
lastChange = "2023-01-05 15:41:16 +0000";
layers = (
{
anchors = (
{
name = bottom;
pos = (188,-164);
},
{
name = top;
pos = (201,421);
}
);
layerId = m01;
shapes = (
{
closed = 1;
nodes = (
(159,161,o),
(165,176,o),
(173,193,c),
(189,233,o),
(200,277,o),
(207,322,c),
(209,337,o),
(203,343,o),
(188,338,c),
(179,335,o),
(173,331,o),
(167,325,c),
(156,313,o),
(150,301,o),
(144,287,c),
(131,253,o),
(131,217,o),
(135,181,c),
(137,170,o),
(138,160,o),
(146,151,c)
);
},
{
closed = 1;
nodes = (
(231,140,o),
(225,128,o),
(219,116,c),
(212,100,o),
(201,83,o),
(188,71,c),
(155,40,o),
(111,41,o),
(80,76,c),
(62,95,o),
(53,121,o),
(47,146,c),
(32,203,o),
(35,262,o),
(56,317,c),
(69,353,o),
(89,386,o),
(122,409,c),
(155,431,o),
(189,439,o),
(227,424,c),
(237,421,o),
(245,419,o),
(255,424,c),
(282,434,o),
(312,416,o),
(318,388,c),
(326,353,o),
(327,319,o),
(329,284,c),
(333,209,o),
(335,134,o),
(332,59,c),
(330,23,o),
(329,-14,o),
(317,-50,c),
(305,-91,o),
(285,-127,o),
(254,-155,c),
(242,-166,o),
(228,-173,o),
(213,-176,c),
(174,-184,o),
(132,-154,o),
(126,-115,c),
(125,-104,o),
(128,-95,o),
(137,-89,c),
(144,-85,o),
(153,-83,o),
(162,-88,c),
(170,-92,o),
(174,-97,o),
(180,-103,c),
(188,-109,o),
(192,-107,o),
(198,-100,c),
(210,-83,o),
(219,-64,o),
(224,-43,c),
(239,20,o),
(240,86,o),
(237,152,c)
);
}
);
width = 371;
}
);
unicode = 103;
},
{
glyphname = h;
kernLeft = l;
kernRight = h;
lastChange = "2023-03-30 19:51:45 +0000";
layers = (
{
anchors = (
{
name = bottom;
pos = (180,-131);
},
{
name = center;
pos = (180,469);
},
{
name = top;
pos = (180,749);
}
);
layerId = m01;
shapes = (
{
closed = 1;
nodes = (
(140,337,o),
(143,352,o),
(147,368,c),
(152,386,o),
(159,403,o),
(173,416,c),
(195,439,o),
(227,445,o),
(255,428,c),
(273,416,o),
(285,400,o),
(293,380,c),
(309,343,o),
(315,302,o),
(320,262,c),
(324,202,o),
(318,143,o),
(312,85,c),
(311,74,o),
(308,64,o),
(300,55,c),
(293,44,o),
(279,38,o),
(267,43,c),
(255,46,o),
(249,55,o),
(248,70,c),
(243,119,o),
(237,169,o),
(230,218,c),
(225,247,o),
(225,275,o),
(219,302,c),
(213,302,o),
(213,298,o),
(212,295,c),
(183,227,o),
(164,157,o),
(158,83,c),
(156,62,o),
(153,40,o),
(150,19,c),
(147,-1,o),
(134,-14,o),
(114,-16,c),
(98,-16,o),
(81,-2,o),
(78,17,c),
(74,38,o),
(72,58,o),
(71,79,c),
(65,125,o),
(60,173,o),
(56,220,c),
(50,274,o),
(45,328,o),
(42,382,c),
(39,430,o),
(38,476,o),
(38,524,c),
(38,575,o),
(36,628,o),
(47,679,c),
(50,695,o),
(54,710,o),
(63,724,c),
(74,740,o),
(92,749,o),
(108,743,c),
(125,739,o),
(135,724,o),
(135,704,c),
(137,625,o),
(129,545,o),
(131,466,c),
(132,418,o),
(131,370,o),
(131,322,c),
(132,322,o),
(134,322,o),
(135,322,c)
);
}
);
width = 359;
}
);
unicode = 104;
},
{
glyphname = hbar;
kernLeft = h;
kernRight = h;
lastChange = "2023-01-05 15:41:16 +0000";
layers = (
{
layerId = m01;
shapes = (
{
closed = 1;
nodes = (
(326,202,o),
(320,143,o),
(314,85,c),
(312,74,o),
(309,64,o),
(302,55,c),
(294,44,o),
(281,38,o),
(269,43,c),
(257,46,o),
(251,55,o),
(249,70,c),
(245,119,o),
(239,169,o),
(231,218,c),
(227,247,o),
(227,275,o),
(221,302,c),
(215,302,o),
(215,298,o),
(213,295,c),
(185,227,o),
(165,157,o),
(159,83,c),
(158,62,o),
(155,40,o),
(152,19,c),
(149,-1,o),
(134,-14,o),
(116,-16,c),
(99,-16,o),
(83,-2,o),
(80,17,c),
(75,38,o),
(74,58,o),
(72,79,c),
(66,125,o),
(62,173,o),
(57,220,c),
(51,274,o),
(47,328,o),
(44,382,c),
(42,412,o),
(41,442,o),
(41,470,c),
(15,466,o),
(-21,461,o),
(-28,463,c),
(-55,473,o),
(-63,514,o),
(-36,535,c),
(-27,541,o),
(-18,545,o),
(-9,547,c),
(8,548,o),
(24,550,o),
(39,551,c),
(39,595,o),
(41,637,o),
(48,679,c),
(51,695,o),
(56,710,o),
(65,724,c),
(75,740,o),
(93,749,o),
(110,743,c),
(126,739,o),
(137,724,o),
(137,704,c),
(138,655,o),
(135,605,o),
(134,556,c),
(201,554,o),
(251,547,o),
(255,544,c),
(270,529,o),
(272,512,o),
(255,499,c),
(249,494,o),
(197,491,o),
(132,484,c),
(132,478,o),
(132,472,o),
(132,466,c),
(134,418,o),
(132,370,o),
(132,322,c),
(137,322,l),
(141,337,o),
(144,352,o),
(149,368,c),
(153,386,o),
(161,403,o),
(174,416,c),
(197,439,o),
(228,445,o),
(257,428,c),
(275,416,o),
(287,400,o),
(294,380,c),
(311,343,o),
(317,302,o),
(321,262,c)
);
}
);
width = 360;
}
);
unicode = 295;
},
{
glyphname = i;
kernLeft = i;
kernRight = i;
lastChange = "2023-03-30 19:47:43 +0000";
layers = (
{
anchors = (
{
name = bottom;
pos = (105,17);
}
);
layerId = m01;
shapes = (
{
closed = 1;
nodes = (
(141,64,o),
(137,55,o),
(125,49,c),
(113,43,o),
(101,44,o),
(89,53,c),
(78,62,o),
(74,74,o),
(69,88,c),
(65,106,o),
(62,127,o),
(59,146,c),
(51,212,o),
(45,280,o),
(50,347,c),
(51,362,o),
(53,377,o),
(62,391,c),
(69,404,o),
(80,413,o),
(96,413,c),
(113,412,o),
(123,403,o),
(129,389,c),
(135,377,o),
(138,364,o),
(138,350,c),
(138,307,o),
(138,265,o),
(138,212,c),
(137,196,o),
(135,172,o),
(135,146,c),
(135,124,o),
(135,101,o),
(138,79,c)
);
},
{
closed = 1;
nodes = (
(76,471,o),
(56,474,o),
(37,493,c),
(24,506,o),
(20,532,o),
(29,553,c),
(40,575,o),
(67,592,o),
(91,592,c),
(115,592,o),
(134,579,o),
(142,557,c),
(150,536,o),
(145,513,o),
(125,497,c),
(117,491,o),
(110,487,o),
(102,483,c)
);
}
);
width = 177;
}
);
unicode = 105;
},
{
glyphname = idotless;
kernLeft = i;
kernRight = i;
lastChange = "2023-03-23 09:58:23 +0000";
layers = (
{
anchors = (
{
name = bottom;
pos = (98,0);
},
{
name = ogonek;
pos = (102,65);
},
{
name = top;
pos = (86,413);
}
);
layerId = m01;
shapes = (
{
closed = 1;
nodes = (
(131,64,o),
(126,55,o),
(114,49,c),
(102,43,o),
(90,44,o),
(78,53,c),
(68,62,o),
(63,74,o),
(59,88,c),
(54,106,o),
(51,127,o),
(48,146,c),
(41,212,o),
(35,280,o),
(39,347,c),
(41,362,o),
(42,377,o),
(51,391,c),
(59,404,o),
(69,413,o),
(86,413,c),
(102,412,o),
(113,403,o),
(119,389,c),
(125,377,o),
(128,364,o),
(128,350,c),
(128,307,o),
(128,265,o),
(128,212,c),
(126,196,o),
(125,172,o),
(125,146,c),
(125,124,o),
(125,101,o),
(128,79,c)
);
}
);
width = 167;
}
);
unicode = 305;
},
{
glyphname = j;
kernLeft = j;
kernRight = j;
lastChange = "2023-03-30 19:47:39 +0000";
layers = (
{
layerId = m01;
shapes = (
{
closed = 1;
nodes = (
(174,320,o),
(192,98,o),
(191,-4,c),
(189,-55,o),
(179,-104,o),
(162,-152,c),
(146,-197,o),
(116,-229,o),
(68,-238,c),
(48,-242,o),
(29,-241,o),
(11,-235,c),
(-10,-226,o),
(-25,-209,o),
(-31,-187,c),
(-34,-178,o),
(-36,-167,o),
(-37,-157,c),
(-39,-145,o),
(-33,-136,o),
(-24,-133,c),
(-13,-128,o),
(-3,-131,o),
(5,-143,c),
(8,-148,o),
(11,-152,o),
(12,-158,c),
(15,-166,o),
(20,-173,o),
(30,-173,c),
(41,-173,o),
(48,-169,o),
(54,-158,c),
(80,-113,o),
(93,-64,o),
(95,-11,c),
(96,1,o),
(95,13,o),
(95,26,c),
(95,61,o),
(89,220,o),
(83,254,c),
(78,280,o),
(74,305,o),
(69,329,c),
(65,343,o),
(63,358,o),
(56,370,c),
(53,377,o),
(51,385,o),
(50,392,c),
(47,418,o),
(59,431,o),
(84,440,c),
(101,446,o),
(125,433,o),
(134,415,c)
);
},
{
closed = 1;
nodes = (
(53,485,o),
(29,506,o),
(29,534,cs),
(29,558,o),
(46,577,o),
(73,577,cs),
(101,577,o),
(125,556,o),
(125,528,cs),
(125,504,o),
(105,485,o),
(81,485,cs)
);
}
);
width = 228;
}
);
unicode = 106;
},
{
glyphname = jdotless;
kernLeft = j;
kernRight = j;
lastChange = "2023-01-05 15:41:16 +0000";
layers = (
{
anchors = (
{
name = bottom;
pos = (152,-431);
},
{
name = top;
pos = (159,421);
}
);
layerId = m01;
shapes = (
{
closed = 1;
nodes = (
(249,320,o),
(267,98,o),
(266,-4,c),
(264,-55,o),
(254,-104,o),
(237,-152,c),
(221,-197,o),
(191,-229,o),
(143,-238,c),
(123,-242,o),
(104,-241,o),
(86,-235,c),
(65,-226,o),
(50,-209,o),
(44,-187,c),
(41,-178,o),
(39,-167,o),
(38,-157,c),
(36,-145,o),
(42,-136,o),
(51,-133,c),
(62,-128,o),
(72,-131,o),
(80,-143,c),
(83,-148,o),
(86,-152,o),
(87,-158,c),
(90,-166,o),
(95,-173,o),
(105,-173,c),
(116,-173,o),
(123,-169,o),
(129,-158,c),
(155,-113,o),
(168,-64,o),
(170,-11,c),
(171,1,o),
(170,13,o),
(170,26,c),
(170,61,o),
(164,220,o),
(158,254,c),
(153,280,o),
(149,305,o),
(144,329,c),
(140,343,o),
(138,358,o),
(131,370,c),
(128,377,o),
(126,385,o),
(125,392,c),
(122,418,o),
(134,431,o),
(159,440,c),
(176,446,o),
(200,433,o),
(209,415,c)
);
}
);
width = 303;
}
);
unicode = 567;
},
{
glyphname = k;
kernLeft = k;
kernRight = k;
lastChange = "2023-03-23 09:58:31 +0000";
layers = (
{
anchors = (
{
name = bottom;
pos = (197,10);
},
{
name = top;
pos = (197,806);
}
);
layerId = m01;
shapes = (
{
closed = 1;
nodes = (
(158,278,o),
(165,289,o),
(173,299,c),
(197,335,o),
(218,373,o),
(239,409,c),
(243,418,o),
(251,425,o),
(258,430,c),
(279,440,o),
(302,428,o),
(305,406,c),
(306,394,o),
(305,383,o),
(300,373,c),
(275,320,o),
(248,269,o),
(210,226,c),
(197,211,o),
(197,214,o),
(209,197,c),
(236,161,o),
(267,131,o),
(306,107,c),
(312,104,o),
(317,100,o),
(324,98,c),
(342,95,o),
(353,83,o),
(354,67,c),
(356,49,o),
(345,32,o),
(330,26,c),
(315,20,o),
(300,20,o),
(285,23,c),
(257,31,o),
(233,43,o),
(210,61,c),
(191,76,o),
(174,94,o),
(155,110,c),
(156,91,o),
(158,73,o),
(159,53,c),
(161,43,o),
(162,32,o),
(165,23,c),
(167,11,o),
(164,1,o),
(153,-5,c),
(143,-13,o),
(132,-11,o),
(123,-4,c),
(114,2,o),
(108,10,o),
(104,20,c),
(95,43,o),
(90,68,o),
(86,94,c),
(75,139,o),
(69,185,o),
(65,232,c),
(59,283,o),
(51,334,o),
(48,385,c),
(45,422,o),
(42,460,o),
(42,497,c),
(42,554,o),
(38,613,o),
(38,670,c),
(39,706,o),
(38,740,o),
(42,775,c),
(44,785,o),
(45,793,o),
(51,800,c),
(62,814,o),
(75,821,o),
(93,818,c),
(110,814,o),
(125,802,o),
(126,784,c),
(128,776,o),
(128,769,o),
(128,760,c),
(132,686,o),
(134,613,o),
(135,539,c),
(138,451,o),
(143,362,o),
(146,274,c),
(146,271,o),
(146,269,o),
(150,268,c)
);
}
);
width = 392;
}
);
unicode = 107;
},
{
glyphname = l;
kernLeft = l;
kernRight = l;
lastChange = "2023-03-23 09:58:33 +0000";
layers = (
{
anchors = (
{
name = bottom;
pos = (99,-28);
},
{
name = center;
pos = (86,469);
},
{
name = top;
pos = (83,706);
},
{
name = topright;
pos = (219,464);
}
);
layerId = m01;
shapes = (
{
closed = 1;
nodes = (
(132,76,o),
(135,56,o),
(132,35,c),
(132,29,o),
(132,22,o),
(131,14,c),
(129,2,o),
(123,-7,o),
(110,-10,c),
(96,-11,o),
(87,-8,o),
(78,2,c),
(69,13,o),
(65,26,o),
(60,40,c),
(54,64,o),
(51,88,o),
(50,112,c),
(42,185,o),
(41,259,o),
(39,332,c),
(38,437,o),
(36,541,o),
(38,646,c),
(38,655,o),
(38,664,o),
(41,673,c),
(47,692,o),
(63,706,o),
(83,706,c),
(102,706,o),
(117,694,o),
(123,673,c),
(125,667,o),
(126,661,o),
(126,655,c),
(131,568,o),
(132,482,o),
(134,395,c),
(134,370,o),
(134,170,o),
(132,95,c)
);
}
);
width = 171;
}
);
unicode = 108;
},
{
glyphname = lslash;
kernLeft = l;
kernRight = l;
lastChange = "2023-01-05 15:41:16 +0000";
layers = (
{
layerId = m01;
shapes = (
{
closed = 1;
nodes = (
(215,394,o),
(179,358,o),
(135,308,c),
(135,236,o),
(135,142,o),
(135,95,c),
(135,76,o),
(138,56,o),
(135,35,c),
(135,29,o),
(134,22,o),
(134,14,c),
(131,2,o),
(125,-7,o),
(111,-10,c),
(99,-11,o),
(89,-8,o),
(81,2,c),
(72,13,o),
(66,26,o),
(63,40,c),
(57,64,o),
(54,88,o),
(51,112,c),
(50,140,o),
(47,169,o),
(45,197,c),
(39,191,o),
(33,185,o),
(30,184,c),
(5,173,o),
(-28,197,o),
(-22,232,c),
(-19,242,o),
(-16,251,o),
(-10,259,c),
(6,280,o),
(24,299,o),
(42,317,c),
(42,323,o),
(42,328,o),
(42,332,c),
(41,437,o),
(39,541,o),
(41,646,c),
(41,655,o),
(41,664,o),
(44,673,c),
(50,692,o),
(66,706,o),
(86,706,c),
(105,706,o),
(120,694,o),
(126,673,c),
(128,667,o),
(128,661,o),
(129,655,c),
(134,569,o),
(135,485,o),
(135,401,c),
(162,422,o),
(182,434,o),
(186,434,c),
(207,434,o),
(219,424,o),
(216,403,c)
);
}
);
width = 179;
}
);
unicode = 322;
},
{
glyphname = m;
lastChange = "2023-01-05 15:41:16 +0000";
layers = (
{
anchors = (
{
name = bottom;
pos = (294,70);
},
{
name = top;
pos = (294,412);
}
);
layerId = m01;
shapes = (
{
closed = 1;
nodes = (
(147,275,o),
(150,287,o),
(156,298,c),
(168,328,o),
(186,356,o),
(210,379,c),
(224,391,o),
(237,400,o),
(255,400,c),
(284,400,o),
(300,383,o),
(312,361,c),
(318,349,o),
(320,335,o),
(324,322,c),
(332,326,o),
(333,332,o),
(335,338,c),
(348,364,o),
(363,389,o),
(384,409,c),
(422,442,o),
(474,448,o),
(509,398,c),
(527,373,o),
(534,344,o),
(539,316,c),
(548,259,o),
(552,203,o),
(545,146,c),
(540,119,o),
(539,94,o),
(537,67,c),
(536,59,o),
(537,52,o),
(539,44,c),
(542,29,o),
(533,14,o),
(519,10,c),
(506,4,o),
(492,10,o),
(483,23,c),
(479,32,o),
(476,41,o),
(474,50,c),
(468,91,o),
(461,133,o),
(455,173,c),
(452,200,o),
(452,226,o),
(452,253,c),
(450,275,o),
(446,296,o),
(443,319,c),
(441,325,o),
(440,332,o),
(434,338,c),
(419,331,o),
(410,319,o),
(399,305,c),
(381,278,o),
(366,248,o),
(354,217,c),
(344,188,o),
(335,158,o),
(330,127,c),
(329,116,o),
(329,106,o),
(327,97,c),
(326,74,o),
(314,61,o),
(294,59,c),
(276,56,o),
(261,67,o),
(255,88,c),
(248,110,o),
(248,133,o),
(243,155,c),
(239,193,o),
(237,230,o),
(236,268,c),
(236,271,o),
(236,274,o),
(233,275,c),
(225,271,o),
(224,262,o),
(221,256,c),
(194,188,o),
(179,118,o),
(177,44,c),
(177,34,o),
(176,22,o),
(170,11,c),
(153,-14,o),
(120,-17,o),
(99,7,c),
(92,16,o),
(87,28,o),
(84,41,c),
(72,86,o),
(63,133,o),
(56,179,c),
(47,235,o),
(39,290,o),
(39,346,c),
(38,365,o),
(38,385,o),
(45,404,c),
(53,419,o),
(69,431,o),
(84,430,c),
(101,430,o),
(114,418,o),
(120,401,c),
(126,385,o),
(125,368,o),
(128,350,c),
(131,325,o),
(134,299,o),
(137,272,c),
(137,269,o),
(138,266,o),
(143,263,c)
);
}
);
width = 587;
}
);
unicode = 109;
},
{
glyphname = n;
kernLeft = n;
kernRight = n;
lastChange = "2023-03-23 09:47:30 +0000";
layers = (
{
anchors = (
{
name = bottom;
pos = (185,0);
},
{
name = top;
pos = (212,386);
}
);
layerId = m01;
shapes = (
{
closed = 1;
nodes = (
(224,254,o),
(216,244,o),
(210,232,c),
(182,182,o),
(165,127,o),
(156,70,c),
(155,56,o),
(150,43,o),
(144,32,c),
(135,17,o),
(122,8,o),
(104,10,c),
(87,10,o),
(75,20,o),
(66,35,c),
(60,47,o),
(59,61,o),
(57,74,c),
(50,127,o),
(42,181,o),
(39,235,c),
(36,271,o),
(39,307,o),
(45,343,c),
(45,349,o),
(48,355,o),
(50,361,c),
(56,377,o),
(68,385,o),
(83,383,c),
(96,382,o),
(108,370,o),
(110,355,c),
(114,323,o),
(117,293,o),
(122,262,c),
(123,256,o),
(122,248,o),
(126,242,c),
(132,245,o),
(132,250,o),
(134,254,c),
(147,281,o),
(159,307,o),
(177,329,c),
(185,340,o),
(192,350,o),
(203,358,c),
(237,386,o),
(282,379,o),
(308,341,c),
(320,320,o),
(326,296,o),
(329,272,c),
(335,232,o),
(339,191,o),
(345,151,c),
(348,127,o),
(353,104,o),
(356,80,c),
(359,71,o),
(362,64,o),
(371,58,c),
(386,50,o),
(389,38,o),
(384,23,c),
(372,-11,o),
(338,-20,o),
(311,2,c),
(299,13,o),
(291,25,o),
(285,38,c),
(264,76,o),
(254,116,o),
(249,160,c),
(245,191,o),
(243,223,o),
(237,254,c),
(237,257,o),
(236,259,o),
(236,265,c)
);
}
);
width = 423;
}
);
unicode = 110;
},
{
glyphname = eng;
kernLeft = n;
kernRight = j;
lastChange = "2023-01-05 15:41:16 +0000";
layers = (
{
layerId = m01;
shapes = (
{
closed = 1;
nodes = (
(335,232,o),
(377,-26,o),
(318,-152,c),
(299,-196,o),
(273,-229,o),
(224,-238,c),
(204,-242,o),
(186,-241,o),
(167,-235,c),
(146,-226,o),
(131,-209,o),
(125,-187,c),
(122,-178,o),
(120,-167,o),
(120,-157,c),
(119,-145,o),
(125,-136,o),
(134,-133,c),
(143,-128,o),
(153,-131,o),
(161,-143,c),
(164,-148,o),
(167,-152,o),
(170,-158,c),
(173,-166,o),
(177,-173,o),
(186,-173,c),
(197,-173,o),
(204,-169,o),
(210,-158,c),
(236,-113,o),
(249,-64,o),
(252,-11,c),
(252,1,o),
(252,13,o),
(252,26,c),
(252,50,o),
(249,134,o),
(245,194,c),
(243,215,o),
(242,235,o),
(237,254,c),
(237,257,o),
(236,259,o),
(236,265,c),
(224,254,o),
(216,244,o),
(210,232,c),
(182,182,o),
(165,127,o),
(156,70,c),
(155,56,o),
(150,43,o),
(144,32,c),
(135,17,o),
(122,8,o),
(104,10,c),
(87,10,o),
(75,20,o),
(66,35,c),
(60,47,o),
(59,61,o),
(57,74,c),
(50,127,o),
(42,181,o),
(39,235,c),
(36,271,o),
(39,307,o),
(45,343,c),
(45,349,o),
(48,355,o),
(50,361,c),
(56,377,o),
(68,385,o),
(83,383,c),
(96,382,o),
(108,370,o),
(110,355,c),
(114,323,o),
(117,293,o),
(122,262,c),
(123,256,o),
(122,248,o),
(126,242,c),
(132,245,o),
(132,250,o),
(134,254,c),
(147,281,o),
(159,307,o),
(177,329,c),
(185,340,o),
(192,350,o),
(203,358,c),
(237,386,o),
(282,379,o),
(308,341,c),
(320,320,o),
(326,296,o),
(329,272,c)
);
}
);
width = 386;
}
);
unicode = 331;
},
{
glyphname = o;
kernLeft = o;
kernRight = o;
lastChange = "2023-03-30 19:50:41 +0000";
layers = (
{
anchors = (
{
name = bottom;
pos = (188,-131);
},
{
name = center;
pos = (188,469);
},
{
name = ogonek;
pos = (207,22);
},
{
name = top;
pos = (188,427);
},
{
name = topright;
pos = (344,442);
}
);
layerId = m01;
shapes = (
{
closed = 1;
nodes = (
(186,296,o),
(179,295,o),
(171,293,c),
(158,293,o),
(152,286,o),
(147,274,c),
(128,224,o),
(128,176,o),
(143,125,c),
(147,113,o),
(153,103,o),
(162,92,c),
(171,83,o),
(174,82,o),
(183,91,c),
(195,103,o),
(207,115,o),
(215,130,c),
(222,146,o),
(230,163,o),
(234,181,c),
(240,206,o),
(246,232,o),
(240,259,c),
(233,287,o),
(222,296,o),
(194,296,c)
);
},
{
closed = 1;
nodes = (
(333,158,o),
(309,95,o),
(264,38,c),
(248,17,o),
(227,1,o),
(200,-7,c),
(173,-13,o),
(149,-10,o),
(125,2,c),
(107,13,o),
(90,28,o),
(80,46,c),
(45,100,o),
(35,158,o),
(39,220,c),
(44,275,o),
(62,325,o),
(98,367,c),
(113,383,o),
(132,394,o),
(153,398,c),
(173,403,o),
(188,398,o),
(203,386,c),
(207,382,o),
(212,382,o),
(219,382,c),
(255,386,o),
(284,370,o),
(305,341,c),
(329,308,o),
(336,271,o),
(336,221,c)
);
}
);
width = 374;
}
);
unicode = 111;
},
{
glyphname = oslash;
kernLeft = o;
kernRight = o;
lastChange = "2023-01-05 15:41:16 +0000";
layers = (
{
layerId = m01;
shapes = (
{
closed = 1;
nodes = (
(239,191,o),
(242,200,o),
(243,209,c),
(210,176,o),
(177,140,o),
(152,110,c),
(155,104,o),
(159,98,o),
(164,92,c),
(173,83,o),
(177,82,o),
(186,91,c),
(198,103,o),
(209,115,o),
(216,130,c),
(224,146,o),
(233,163,o),
(237,181,c)
);
},
{
closed = 1;
nodes = (
(159,293,o),
(153,286,o),
(149,274,c),
(140,248,o),
(134,224,o),
(134,199,c),
(167,230,o),
(200,260,o),
(228,287,c),
(222,293,o),
(212,296,o),
(195,296,c),
(188,296,o),
(180,295,o),
(173,293,c)
);
},
{
closed = 1;
nodes = (
(345,364,o),
(356,353,o),
(354,332,c),
(353,329,o),
(344,317,o),
(329,301,c),
(336,278,o),
(339,251,o),
(339,221,c),
(335,158,o),
(311,95,o),
(266,38,c),
(249,17,o),
(228,1,o),
(201,-7,c),
(174,-13,o),
(150,-10,o),
(126,2,c),
(113,11,o),
(101,22,o),
(90,34,c),
(81,22,o),
(72,13,o),
(68,11,c),
(42,1,o),
(9,25,o),
(15,59,c),
(17,70,o),
(21,79,o),
(26,86,c),
(33,95,o),
(42,104,o),
(51,113,c),
(41,148,o),
(38,184,o),
(41,220,c),
(45,275,o),
(63,325,o),
(101,367,c),
(116,383,o),
(135,394,o),
(156,398,c),
(174,403,o),
(191,398,o),
(204,386,c),
(210,382,o),
(215,382,o),
(221,382,c),
(255,386,o),
(281,373,o),
(302,349,c),
(314,358,o),
(321,364,o),
(324,364,c)
);
}
);
width = 377;
}
);
unicode = 248;
},
{
glyphname = oe;
kernLeft = o;
kernRight = e;
lastChange = "2023-01-05 15:41:16 +0000";
layers = (
{
layerId = m01;
shapes = (
{
closed = 1;
nodes = (
(222,146,o),
(230,163,o),
(234,181,c),
(240,206,o),
(246,232,o),
(240,259,c),
(233,287,o),
(222,296,o),
(194,296,c),
(186,296,o),
(179,295,o),
(171,293,c),
(158,293,o),
(152,286,o),
(147,274,c),
(128,224,o),
(128,176,o),
(143,125,c),
(147,113,o),
(153,103,o),
(162,92,c),
(171,83,o),
(174,82,o),
(183,91,c),
(195,103,o),
(207,115,o),
(215,130,c)
);
},
{
closed = 1;
nodes = (
(351,271,o),
(350,266,o),
(354,263,c),
(357,260,o),
(362,262,o),
(365,263,c),
(395,280,o),
(417,305,o),
(428,337,c),
(429,340,o),
(429,344,o),
(429,344,c),
(429,353,o),
(428,361,o),
(422,364,c),
(416,367,o),
(410,364,o),
(404,359,c),
(399,356,o),
(395,352,o),
(390,347,c),
(372,325,o),
(362,299,o),
(353,274,c)
);
},
{
closed = 1;
nodes = (
(339,184,o),
(338,182,o),
(338,173,c),
(336,151,o),
(341,130,o),
(348,109,c),
(356,91,o),
(360,89,o),
(377,100,c),
(390,107,o),
(401,116,o),
(411,127,c),
(423,137,o),
(435,146,o),
(447,155,c),
(450,158,o),
(455,161,o),
(459,163,c),
(479,170,o),
(495,158,o),
(495,137,c),
(495,128,o),
(494,118,o),
(491,109,c),
(473,58,o),
(443,19,o),
(389,2,c),
(351,-8,o),
(318,1,o),
(290,29,c),
(284,35,o),
(278,43,o),
(273,50,c),
(270,47,o),
(267,43,o),
(264,38,c),
(248,17,o),
(227,1,o),
(200,-7,c),
(173,-13,o),
(149,-10,o),
(125,2,c),
(107,13,o),
(90,28,o),
(80,46,c),
(45,100,o),
(35,158,o),
(39,220,c),
(44,275,o),
(62,325,o),
(98,367,c),
(113,383,o),
(132,394,o),
(155,398,c),
(173,403,o),
(188,398,o),
(203,386,c),
(207,382,o),
(212,382,o),
(219,382,c),
(249,385,o),
(273,376,o),
(293,356,c),
(308,383,o),
(326,406,o),
(351,424,c),
(368,436,o),
(386,443,o),
(405,445,c),
(467,449,o),
(513,397,o),
(504,334,c),
(503,322,o),
(498,308,o),
(492,296,c),
(474,262,o),
(452,232,o),
(419,209,c),
(398,194,o),
(375,182,o),
(348,184,c)
);
}
);
width = 543;
}
);
unicode = 339;
},
{
glyphname = p;
lastChange = "2023-01-05 15:41:16 +0000";
layers = (
{
anchors = (
{
name = bottom;
pos = (192,-131);
},
{
name = top;
pos = (218,389);
}
);
layerId = m01;
shapes = (
{
closed = 1;
nodes = (
(177,224,o),
(159,133,o),
(146,40,c),
(158,41,o),
(162,49,o),
(168,53,c),
(233,106,o),
(254,176,o),
(251,257,c),
(249,274,o),
(245,290,o),
(228,307,c)
);
},
{
closed = 1;
nodes = (
(144,350,o),
(150,358,o),
(156,365,c),
(200,413,o),
(264,415,o),
(308,361,c),
(333,329,o),
(345,290,o),
(345,250,c),
(347,167,o),
(326,91,o),
(272,25,c),
(263,14,o),
(252,4,o),
(240,-4,c),
(213,-22,o),
(185,-35,o),
(153,-38,c),
(143,-40,o),
(141,-44,o),
(141,-53,c),
(141,-79,o),
(141,-104,o),
(144,-130,c),
(149,-182,o),
(156,-233,o),
(159,-286,c),
(159,-298,o),
(159,-308,o),
(158,-319,c),
(153,-340,o),
(137,-353,o),
(117,-355,c),
(99,-356,o),
(83,-344,o),
(75,-325,c),
(71,-311,o),
(68,-298,o),
(66,-284,c),
(57,-214,o),
(51,-145,o),
(45,-76,c),
(41,2,o),
(39,79,o),
(38,157,c),
(36,206,o),
(38,256,o),
(39,305,c),
(41,328,o),
(44,350,o),
(47,373,c),
(50,386,o),
(54,401,o),
(65,412,c),
(89,436,o),
(123,428,o),
(134,397,c),
(137,386,o),
(140,374,o),
(137,362,c),
(135,356,o),
(135,350,o),
(135,344,c),
(137,344,o),
(138,343,o),
(138,343,c)
);
}
);
width = 383;
}
);
unicode = 112;
},
{
glyphname = thorn;
kernLeft = p;
kernRight = p;
lastChange = "2023-01-05 15:41:16 +0000";
layers = (
{
layerId = m01;
shapes = (
{
closed = 1;
nodes = (
(132,160,o),
(140,170,o),
(150,179,c),
(179,203,o),
(203,232,o),
(219,266,c),
(224,277,o),
(228,287,o),
(228,301,c),
(230,323,o),
(216,337,o),
(194,337,c),
(173,338,o),
(153,331,o),
(137,320,c),
(128,314,o),
(123,307,o),
(123,296,c),
(119,250,o),
(120,202,o),
(117,151,c)
);
},
{
closed = 1;
nodes = (
(153,409,o),
(176,412,o),
(200,412,c),
(251,412,o),
(294,374,o),
(305,323,c),
(314,286,o),
(303,251,o),
(284,220,c),
(252,166,o),
(201,131,o),
(149,100,c),
(143,97,o),
(135,94,o),
(128,92,c),
(117,91,o),
(116,85,o),
(116,76,c),
(114,52,o),
(113,26,o),
(113,2,c),
(113,-7,o),
(113,-16,o),
(110,-23,c),
(104,-38,o),
(87,-41,o),
(77,-29,c),
(69,-22,o),
(68,-13,o),
(66,-2,c),
(60,38,o),
(59,79,o),
(56,119,c),
(51,203,o),
(45,287,o),
(41,373,c),
(36,430,o),
(38,488,o),
(47,545,c),
(50,560,o),
(54,572,o),
(68,580,c),
(87,592,o),
(108,586,o),
(117,563,c),
(122,553,o),
(123,542,o),
(125,530,c),
(128,497,o),
(128,464,o),
(128,430,c),
(128,421,o),
(128,412,o),
(128,400,c)
);
}
);
width = 345;
}
);
unicode = 254;
},
{
glyphname = q;
lastChange = "2023-03-23 09:58:55 +0000";
layers = (
{
anchors = (
{
name = bottom;
pos = (200,-131);
},
{
name = top;
pos = (200,445);
}
);
layerId = m01;
shapes = (
{
closed = 1;
nodes = (
(162,82,o),
(164,88,o),
(167,92,c),
(177,113,o),
(186,134,o),
(195,155,c),
(213,202,o),
(225,248,o),
(234,296,c),
(237,314,o),
(236,319,o),
(219,326,c),
(207,331,o),
(197,328,o),
(186,322,c),
(171,311,o),
(162,298,o),
(155,281,c),
(122,214,o),
(125,146,o),
(153,76,c)
);
},
{
closed = 1;
nodes = (
(249,47,o),
(245,40,o),
(239,32,c),
(230,16,o),
(218,-1,o),
(203,-11,c),
(170,-37,o),
(131,-35,o),
(101,-8,c),
(89,4,o),
(78,16,o),
(72,31,c),
(26,131,o),
(24,232,o),
(75,332,c),
(87,355,o),
(102,374,o),
(122,389,c),
(164,422,o),
(209,434,o),
(258,409,c),
(264,406,o),
(269,404,o),
(275,410,c),
(290,427,o),
(308,430,o),
(327,422,c),
(348,415,o),
(357,398,o),
(360,377,c),
(360,373,o),
(360,370,o),
(360,365,c),
(359,283,o),
(357,200,o),
(354,118,c),
(351,28,o),
(345,-64,o),
(350,-155,c),
(353,-202,o),
(357,-248,o),
(359,-295,c),
(359,-302,o),
(359,-311,o),
(357,-319,c),
(356,-334,o),
(348,-343,o),
(333,-347,c),
(320,-350,o),
(308,-346,o),
(299,-335,c),
(290,-325,o),
(284,-311,o),
(281,-298,c),
(267,-254,o),
(257,-209,o),
(255,-163,c),
(254,-128,o),
(254,-95,o),
(254,-61,c),
(255,-26,o),
(257,8,o),
(257,43,c),
(257,47,o),
(258,52,o),
(255,58,c)
);
}
);
width = 398;
}
);
unicode = 113;
},
{
glyphname = r;
kernLeft = r;
kernRight = r;
lastChange = "2023-01-05 15:41:16 +0000";
layers = (
{
anchors = (
{
name = bottom;
pos = (191,-17);
},
{
name = top;
pos = (191,404);
}
);
layerId = m01;
shapes = (
{
closed = 1;
nodes = (
(137,332,o),
(138,340,o),
(141,346,c),
(153,368,o),
(168,391,o),
(191,404,c),
(221,422,o),
(251,427,o),
(282,409,c),
(305,397,o),
(317,370,o),
(312,346,c),
(308,320,o),
(288,311,o),
(266,325,c),
(254,332,o),
(248,332,o),
(237,322,c),
(231,316,o),
(227,308,o),
(222,301,c),
(213,280,o),
(206,259,o),
(200,238,c),
(188,196,o),
(177,154,o),
(171,112,c),
(168,85,o),
(165,59,o),
(165,32,c),
(165,22,o),
(165,11,o),
(161,1,c),
(155,-17,o),
(140,-29,o),
(120,-29,c),
(99,-31,o),
(84,-22,o),
(75,-4,c),
(69,7,o),
(68,19,o),
(66,29,c),
(57,85,o),
(50,140,o),
(44,196,c),
(38,251,o),
(38,308,o),
(39,365,c),
(39,383,o),
(45,397,o),
(60,406,c),
(84,421,o),
(114,409,o),
(122,382,c),
(126,371,o),
(128,361,o),
(128,350,c),
(126,343,o),
(128,335,o),
(128,326,c)
);
}
);
width = 351;
}
);
unicode = 114;
},
{
glyphname = s;
kernLeft = s;
kernRight = s;
lastChange = "2023-03-30 19:50:57 +0000";
layers = (
{
anchors = (
{
name = bottom;
pos = (146,-50);
},
{
name = top;
pos = (188,442);
}
);
layerId = m01;
shapes = (
{
closed = 1;
nodes = (
(203,79,o),
(194,82,o),
(185,85,c),
(95,119,o),
(45,185,o),
(38,280,c),
(33,341,o),
(57,395,o),
(108,431,c),
(140,454,o),
(174,463,o),
(212,443,c),
(224,437,o),
(236,428,o),
(243,416,c),
(279,362,o),
(284,305,o),
(261,247,c),
(257,232,o),
(240,223,o),
(227,226,c),
(212,227,o),
(203,239,o),
(201,257,c),
(201,275,o),
(203,293,o),
(200,311,c),
(198,326,o),
(194,340,o),
(185,352,c),
(177,361,o),
(171,362,o),
(162,355,c),
(146,341,o),
(137,323,o),
(132,302,c),
(125,256,o),
(156,205,o),
(194,185,c),
(216,173,o),
(239,166,o),
(264,161,c),
(276,158,o),
(287,154,o),
(299,151,c),
(329,139,o),
(344,109,o),
(336,77,c),
(333,62,o),
(326,49,o),
(314,37,c),
(284,4,o),
(246,-17,o),
(207,-38,c),
(183,-50,o),
(161,-61,o),
(134,-65,c),
(122,-67,o),
(111,-65,o),
(99,-62,c),
(66,-52,o),
(62,-19,o),
(71,4,c),
(74,13,o),
(80,22,o),
(86,28,c),
(96,37,o),
(108,41,o),
(119,34,c),
(128,29,o),
(134,31,o),
(141,34,c),
(159,44,o),
(179,53,o),
(198,64,c),
(203,67,o),
(209,70,o),
(212,76,c)
);
}
);
width = 375;
}
);
unicode = 115;
},
{
glyphname = germandbls;
lastChange = "2023-01-05 15:41:16 +0000";
layers = (
{
layerId = m01;
shapes = (
{
closed = 1;
nodes = (
(249,368,o),
(261,364,o),
(273,358,c),
(326,334,o),
(347,289,o),
(330,233,c),
(318,191,o),
(293,158,o),
(257,134,c),
(233,118,o),
(207,103,o),
(179,95,c),
(170,92,o),
(159,92,o),
(149,97,c),
(137,101,o),
(131,110,o),
(129,124,c),
(128,137,o),
(135,146,o),
(146,152,c),
(191,176,o),
(222,211,o),
(246,253,c),
(249,257,o),
(251,262,o),
(252,266,c),
(260,283,o),
(255,293,o),
(237,299,c),
(228,302,o),
(219,302,o),
(210,305,c),
(207,305,o),
(204,305,o),
(200,307,c),
(155,316,o),
(140,349,o),
(161,389,c),
(176,418,o),
(192,443,o),
(206,472,c),
(212,487,o),
(218,502,o),
(221,518,c),
(222,533,o),
(219,544,o),
(212,547,c),
(198,550,o),
(191,542,o),
(183,533,c),
(171,518,o),
(164,500,o),
(156,482,c),
(140,439,o),
(129,392,o),
(123,346,c),
(114,275,o),
(117,205,o),
(125,136,c),
(129,95,o),
(135,56,o),
(143,16,c),
(146,-1,o),
(141,-13,o),
(126,-20,c),
(116,-25,o),
(98,-20,o),
(89,-10,c),
(80,1,o),
(74,14,o),
(69,26,c),
(57,62,o),
(50,100,o),
(45,137,c),
(38,191,o),
(35,247,o),
(39,302,c),
(45,379,o),
(59,455,o),
(90,527,c),
(102,553,o),
(117,575,o),
(138,595,c),
(168,622,o),
(210,628,o),
(245,610,c),
(278,593,o),
(297,556,o),
(291,515,c),
(288,487,o),
(278,460,o),
(266,434,c),
(257,415,o),
(246,394,o),
(236,373,c)
);
}
);
width = 374;
}
);
unicode = 223;
},
{
glyphname = t;
kernLeft = t;
kernRight = t;
lastChange = "2023-03-30 19:53:21 +0000";
layers = (
{
anchors = (
{
name = bottom;
pos = (159,-41);
},
{
name = center;
pos = (104,469);
},
{
name = top;
pos = (102,779);
},
{
name = topright;
pos = (222,575);
}
);
layerId = m01;
shapes = (
{
closed = 1;
nodes = (
(171,56,o),
(182,67,o),
(191,80,c),
(215,113,o),
(240,148,o),
(257,185,c),
(258,190,o),
(260,193,o),
(260,197,c),
(261,212,o),
(270,220,o),
(284,223,c),
(299,224,o),
(311,218,o),
(318,206,c),
(326,197,o),
(327,187,o),
(327,175,c),
(324,139,o),
(314,104,o),
(299,73,c),
(279,34,o),
(252,1,o),
(219,-25,c),
(204,-37,o),
(189,-46,o),
(171,-50,c),
(137,-58,o),
(101,-43,o),
(81,-13,c),
(69,7,o),
(60,29,o),
(53,52,c),
(36,101,o),
(30,154,o),
(23,206,c),
(12,281,o),
(6,358,o),
(6,436,c),
(6,451,o),
(6,452,o),
(-10,449,c),
(-28,445,o),
(-46,440,o),
(-64,437,c),
(-76,434,o),
(-88,436,o),
(-100,442,c),
(-124,457,o),
(-127,487,o),
(-108,506,c),
(-99,514,o),
(-88,520,o),
(-78,523,c),
(-54,530,o),
(-31,536,o),
(-7,542,c),
(9,545,o),
(9,545,o),
(11,562,c),
(12,607,o),
(18,652,o),
(30,697,c),
(35,713,o),
(39,730,o),
(48,745,c),
(56,755,o),
(63,764,o),
(74,770,c),
(87,779,o),
(102,779,o),
(116,772,c),
(129,763,o),
(131,749,o),
(129,734,c),
(126,704,o),
(116,676,o),
(113,646,c),
(110,620,o),
(107,595,o),
(104,569,c),
(104,557,o),
(104,557,o),
(117,557,c),
(143,557,o),
(167,559,o),
(192,559,c),
(215,559,o),
(234,550,o),
(249,533,c),
(257,526,o),
(261,517,o),
(263,508,c),
(266,485,o),
(243,464,o),
(225,472,c),
(222,472,o),
(219,473,o),
(215,472,c),
(186,461,o),
(155,467,o),
(125,463,c),
(120,463,o),
(116,463,o),
(111,463,c),
(102,463,o),
(99,458,o),
(99,451,c),
(101,425,o),
(101,401,o),
(102,376,c),
(105,311,o),
(111,245,o),
(122,181,c),
(126,148,o),
(132,115,o),
(141,82,c),
(144,70,o),
(150,59,o),
(155,44,c)
);
}
);
width = 365;
}
);
unicode = 116;
},
{
glyphname = u;
kernLeft = u;
kernRight = u;
lastChange = "2023-03-30 19:51:15 +0000";
layers = (
{
anchors = (
{
name = bottom;
pos = (209,-131);
},
{
name = ogonek;
pos = (330,2);
},
{
name = top;
pos = (210,416);
},
{
name = topright;
pos = (366,430);
}
);
layerId = m01;
shapes = (
{
closed = 1;
nodes = (
(276,79,o),
(270,71,o),
(264,62,c),
(255,49,o),
(243,35,o),
(230,25,c),
(186,-7,o),
(140,5,o),
(111,29,c),
(93,44,o),
(80,62,o),
(72,83,c),
(35,167,o),
(30,256,o),
(50,344,c),
(54,364,o),
(62,380,o),
(77,392,c),
(89,403,o),
(102,409,o),
(117,401,c),
(132,395,o),
(138,382,o),
(138,367,c),
(138,355,o),
(138,343,o),
(137,332,c),
(131,290,o),
(132,248,o),
(137,206,c),
(140,176,o),
(144,148,o),
(158,121,c),
(159,119,o),
(161,116,o),
(162,115,c),
(170,100,o),
(174,98,o),
(189,106,c),
(204,115,o),
(216,127,o),
(225,142,c),
(245,167,o),
(254,197,o),
(261,227,c),
(273,275,o),
(276,325,o),
(275,374,c),
(275,394,o),
(282,410,o),
(299,422,c),
(326,440,o),
(366,430,o),
(375,389,c),
(380,367,o),
(380,346,o),
(378,323,c),
(377,254,o),
(374,185,o),
(378,116,c),
(381,82,o),
(378,46,o),
(377,11,c),
(375,-4,o),
(368,-14,o),
(354,-20,c),
(341,-25,o),
(326,-19,o),
(317,-8,c),
(309,1,o),
(305,10,o),
(302,19,c),
(294,41,o),
(288,64,o),
(282,88,c)
);
}
);
width = 417;
}
);
unicode = 117;
},
{
glyphname = v;
lastChange = "2023-03-23 09:59:08 +0000";
layers = (
{
anchors = (
{
name = bottom;
pos = (179,-131);
},
{
name = top;
pos = (179,427);
}
);
layerId = m01;
shapes = (
{
closed = 1;
nodes = (
(165,157,o),
(168,170,o),
(171,184,c),
(185,233,o),
(197,284,o),
(210,335,c),
(213,349,o),
(218,362,o),
(224,374,c),
(233,398,o),
(252,415,o),
(275,427,c),
(288,433,o),
(302,431,o),
(311,422,c),
(320,413,o),
(320,401,o),
(312,391,c),
(306,380,o),
(306,368,o),
(305,358,c),
(296,311,o),
(281,266,o),
(272,220,c),
(263,175,o),
(254,131,o),
(240,86,c),
(234,65,o),
(228,46,o),
(219,25,c),
(215,16,o),
(210,7,o),
(203,-1,c),
(177,-31,o),
(138,-31,o),
(113,-1,c),
(99,14,o),
(92,32,o),
(86,52,c),
(63,115,o),
(53,181,o),
(45,247,c),
(41,275,o),
(39,304,o),
(38,332,c),
(38,350,o),
(39,368,o),
(45,386,c),
(47,394,o),
(50,400,o),
(54,406,c),
(72,428,o),
(99,427,o),
(113,401,c),
(120,386,o),
(123,370,o),
(125,353,c),
(132,290,o),
(140,227,o),
(152,164,c),
(153,157,o),
(155,151,o),
(158,140,c)
);
}
);
width = 333;
}
);
unicode = 118;
},
{
glyphname = w;
kernLeft = w;
kernRight = w;
lastChange = "2023-03-23 09:59:11 +0000";
layers = (
{
anchors = (
{
name = bottom;
pos = (288,0);
},
{
name = top;
pos = (273,385);
}
);
layerId = m01;
shapes = (
{
closed = 1;
nodes = (
(174,115,o),
(182,133,o),
(191,149,c),
(204,178,o),
(212,206,o),
(221,236,c),
(233,269,o),
(240,304,o),
(239,340,c),
(239,362,o),
(254,379,o),
(273,385,c),
(293,389,o),
(314,380,o),
(326,362,c),
(330,355,o),
(335,344,o),
(338,335,c),
(342,316,o),
(348,295,o),
(353,275,c),
(366,232,o),
(380,188,o),
(402,149,c),
(407,142,o),
(410,134,o),
(419,130,c),
(423,134,o),
(425,140,o),
(426,146,c),
(437,184,o),
(440,221,o),
(441,260,c),
(441,289,o),
(441,317,o),
(440,344,c),
(440,358,o),
(438,370,o),
(437,383,c),
(432,400,o),
(437,418,o),
(458,427,c),
(473,434,o),
(488,431,o),
(500,416,c),
(507,409,o),
(513,400,o),
(518,389,c),
(537,343,o),
(539,295,o),
(536,247,c),
(533,214,o),
(530,182,o),
(524,151,c),
(518,124,o),
(510,98,o),
(498,73,c),
(492,64,o),
(488,53,o),
(480,46,c),
(453,17,o),
(423,13,o),
(387,31,c),
(372,38,o),
(360,52,o),
(348,64,c),
(326,91,o),
(309,121,o),
(296,154,c),
(293,158,o),
(291,166,o),
(285,172,c),
(279,154,o),
(273,137,o),
(267,121,c),
(258,100,o),
(249,80,o),
(239,62,c),
(228,47,o),
(218,34,o),
(203,22,c),
(168,-8,o),
(122,2,o),
(98,28,c),
(81,46,o),
(69,65,o),
(62,86,c),
(41,146,o),
(33,209,o),
(41,272,c),
(44,296,o),
(50,322,o),
(59,344,c),
(63,356,o),
(69,368,o),
(80,376,c),
(90,386,o),
(102,389,o),
(116,383,c),
(129,377,o),
(135,365,o),
(134,352,c),
(134,326,o),
(132,301,o),
(132,275,c),
(131,238,o),
(132,200,o),
(138,163,c),
(141,142,o),
(147,122,o),
(159,101,c)
);
}
);
width = 575;
}
);
unicode = 119;
},
{
glyphname = x;
lastChange = "2023-03-23 09:59:14 +0000";
layers = (
{
anchors = (
{
name = bottom;
pos = (195,-131);
},
{
name = top;
pos = (183,395);
}
);
layerId = m01;
shapes = (
{
closed = 1;
nodes = (
(150,47,o),
(141,25,o),
(126,7,c),
(119,-2,o),
(111,-13,o),
(101,-22,c),
(87,-32,o),
(71,-35,o),
(56,-28,c),
(42,-20,o),
(35,-4,o),
(38,14,c),
(39,23,o),
(44,34,o),
(48,43,c),
(65,76,o),
(83,109,o),
(101,140,c),
(107,151,o),
(108,158,o),
(102,170,c),
(86,202,o),
(75,238,o),
(66,272,c),
(60,289,o),
(56,305,o),
(53,322,c),
(47,349,o),
(60,367,o),
(86,374,c),
(99,377,o),
(117,370,o),
(128,355,c),
(134,346,o),
(137,337,o),
(140,326,c),
(147,304,o),
(155,281,o),
(165,259,c),
(173,259,o),
(173,263,o),
(174,268,c),
(192,298,o),
(210,329,o),
(228,359,c),
(243,385,o),
(263,404,o),
(287,419,c),
(299,427,o),
(309,431,o),
(323,430,c),
(347,428,o),
(360,404,o),
(350,385,c),
(320,334,o),
(291,283,o),
(263,232,c),
(249,209,o),
(237,187,o),
(224,164,c),
(219,157,o),
(218,152,o),
(222,143,c),
(240,110,o),
(261,79,o),
(284,49,c),
(287,43,o),
(291,38,o),
(299,34,c),
(312,25,o),
(317,13,o),
(312,-1,c),
(309,-13,o),
(296,-22,o),
(282,-23,c),
(269,-25,o),
(258,-19,o),
(248,-11,c),
(227,4,o),
(209,22,o),
(191,41,c),
(183,50,o),
(176,58,o),
(168,68,c)
);
}
);
width = 360;
}
);
unicode = 120;
},
{
glyphname = y;
kernLeft = y;
kernRight = y;
lastChange = "2023-03-30 19:50:47 +0000";
layers = (
{
anchors = (
{
name = bottom;
pos = (191,-131);
},
{
name = top;
pos = (188,404);
}
);
layerId = m01;
shapes = (
{
closed = 1;
nodes = (
(243,128,o),
(234,112,o),
(222,97,c),
(207,80,o),
(191,64,o),
(170,55,c),
(146,46,o),
(123,47,o),
(102,62,c),
(84,74,o),
(74,92,o),
(65,112,c),
(47,149,o),
(39,191,o),
(38,232,c),
(38,263,o),
(39,295,o),
(48,325,c),
(51,337,o),
(56,346,o),
(63,355,c),
(71,362,o),
(81,367,o),
(93,364,c),
(105,361,o),
(110,352,o),
(111,340,c),
(114,322,o),
(113,304,o),
(114,286,c),
(114,238,o),
(117,191,o),
(129,145,c),
(132,134,o),
(134,119,o),
(146,116,c),
(158,113,o),
(165,125,o),
(173,133,c),
(192,151,o),
(203,173,o),
(213,197,c),
(230,229,o),
(239,262,o),
(248,296,c),
(251,308,o),
(249,320,o),
(249,332,c),
(249,350,o),
(251,368,o),
(252,386,c),
(254,397,o),
(257,406,o),
(261,413,c),
(278,436,o),
(311,434,o),
(323,409,c),
(332,392,o),
(333,374,o),
(335,355,c),
(341,307,o),
(342,257,o),
(342,208,c),
(342,133,o),
(342,56,o),
(341,-19,c),
(339,-62,o),
(336,-106,o),
(326,-148,c),
(318,-179,o),
(305,-206,o),
(279,-229,c),
(261,-244,o),
(242,-250,o),
(219,-242,c),
(195,-235,o),
(183,-215,o),
(179,-193,c),
(173,-169,o),
(171,-143,o),
(174,-119,c),
(177,-109,o),
(180,-98,o),
(188,-91,c),
(192,-85,o),
(200,-80,o),
(207,-83,c),
(216,-86,o),
(221,-91,o),
(222,-100,c),
(222,-104,o),
(224,-110,o),
(224,-115,c),
(224,-128,o),
(228,-142,o),
(234,-152,c),
(242,-151,o),
(243,-145,o),
(245,-140,c),
(251,-119,o),
(255,-98,o),
(255,-77,c),
(257,-49,o),
(261,-20,o),
(261,8,c),
(260,53,o),
(261,100,o),
(255,145,c)
);
}
);
width = 380;
}
);
unicode = 121;
},
{
glyphname = z;
kernLeft = z;
kernRight = z;
lastChange = "2023-03-23 09:59:22 +0000";
layers = (
{
anchors = (
{
name = bottom;
pos = (189,-131);
},
{
name = center;
pos = (189,469);
},
{
name = top;
pos = (212,379);
}
);
layerId = m01;
shapes = (
{
closed = 1;
nodes = (
(159,109,o),
(179,109,o),
(200,107,c),
(234,107,o),
(267,101,o),
(300,88,c),
(309,83,o),
(317,77,o),
(321,68,c),
(329,53,o),
(320,40,o),
(305,41,c),
(297,41,o),
(291,43,o),
(285,43,c),
(261,46,o),
(237,41,o),
(215,37,c),
(179,29,o),
(143,23,o),
(107,26,c),
(89,28,o),
(74,32,o),
(60,43,c),
(39,58,o),
(33,79,o),
(39,103,c),
(42,116,o),
(48,127,o),
(56,137,c),
(90,181,o),
(132,217,o),
(173,253,c),
(195,271,o),
(218,290,o),
(237,311,c),
(240,313,o),
(243,316,o),
(243,320,c),
(213,320,o),
(185,314,o),
(156,308,c),
(138,305,o),
(120,301,o),
(102,298,c),
(96,296,o),
(89,295,o),
(83,296,c),
(72,298,o),
(62,302,o),
(57,314,c),
(53,326,o),
(56,337,o),
(63,346,c),
(72,356,o),
(83,362,o),
(93,367,c),
(141,386,o),
(191,400,o),
(242,400,c),
(261,400,o),
(281,397,o),
(299,391,c),
(336,377,o),
(350,343,o),
(332,308,c),
(324,293,o),
(315,281,o),
(303,269,c),
(281,247,o),
(255,227,o),
(231,205,c),
(216,191,o),
(198,178,o),
(183,164,c),
(167,148,o),
(150,131,o),
(134,109,c)
);
}
);
width = 377;
}
);
unicode = 122;
},
{
glyphname = ordfeminine;
lastChange = "2023-01-05 15:41:16 +0000";
layers = (
{
layerId = m01;
shapes = (
{
closed = 1;
nodes = (
(98,439,o),
(105,446,o),
(111,457,c),
(113,460,o),
(111,464,o),
(107,467,c),
(104,469,o),
(102,466,o),
(101,464,c),
(99,464,o),
(99,463,o),
(98,463,c),
(90,452,o),
(87,442,o),
(90,430,c)
);
},
{
closed = 1;
nodes = (
(119,418,o),
(117,415,o),
(116,412,c),
(110,404,o),
(104,397,o),
(96,394,c),
(81,388,o),
(65,394,o),
(59,409,c),
(48,437,o),
(54,463,o),
(72,485,c),
(81,499,o),
(96,505,o),
(113,500,c),
(114,500,o),
(114,500,o),
(116,500,c),
(117,505,o),
(116,508,o),
(114,511,c),
(113,521,o),
(111,532,o),
(107,542,c),
(101,554,o),
(98,556,o),
(87,547,c),
(78,539,o),
(71,530,o),
(65,521,c),
(63,518,o),
(62,517,o),
(62,514,c),
(62,508,o),
(60,505,o),
(54,503,c),
(50,502,o),
(44,503,o),
(42,508,c),
(38,512,o),
(38,518,o),
(38,524,c),
(39,536,o),
(45,547,o),
(51,556,c),
(57,565,o),
(66,574,o),
(77,580,c),
(92,590,o),
(113,590,o),
(128,574,c),
(134,568,o),
(138,559,o),
(141,551,c),
(147,535,o),
(150,518,o),
(153,502,c),
(156,479,o),
(158,457,o),
(159,434,c),
(159,428,o),
(159,421,o),
(159,415,c),
(158,400,o),
(143,392,o),
(131,400,c),
(126,403,o),
(123,407,o),
(123,413,c),
(123,416,o),
(123,418,o),
(122,421,c)
);
}
);
width = 197;
}
);
unicode = 170;
},
{
glyphname = ordmasculine;
lastChange = "2023-01-05 15:41:16 +0000";
layers = (
{
layerId = m01;
shapes = (
{
closed = 1;
nodes = (
(95,505,o),
(92,503,o),
(89,503,c),
(83,503,o),
(81,500,o),
(80,496,c),
(72,478,o),
(72,458,o),
(78,440,c),
(80,436,o),
(81,431,o),
(86,427,c),
(89,424,o),
(90,422,o),
(93,427,c),
(98,431,o),
(102,436,o),
(105,442,c),
(108,448,o),
(111,454,o),
(113,461,c),
(116,470,o),
(117,481,o),
(116,490,c),
(113,500,o),
(108,505,o),
(98,505,c)
);
},
{
closed = 1;
nodes = (
(150,452,o),
(141,428,o),
(125,407,c),
(117,398,o),
(110,392,o),
(99,389,c),
(89,388,o),
(80,388,o),
(71,394,c),
(65,397,o),
(59,403,o),
(54,409,c),
(41,430,o),
(36,452,o),
(39,475,c),
(41,496,o),
(47,515,o),
(62,532,c),
(66,538,o),
(74,541,o),
(83,544,c),
(89,545,o),
(95,544,o),
(101,539,c),
(102,536,o),
(104,536,o),
(107,536,c),
(120,538,o),
(132,532,o),
(140,521,c),
(149,509,o),
(152,494,o),
(152,476,c)
);
}
);
width = 189;
}
);
unicode = 186;
},
{
glyphname = zero;
lastChange = "2023-01-05 15:41:16 +0000";
layers = (
{
layerId = m01;
shapes = (
{
closed = 1;
nodes = (
(128,212,o),
(134,170,o),
(149,130,c),
(153,118,o),
(161,106,o),
(168,95,c),
(179,82,o),
(191,79,o),
(206,88,c),
(215,92,o),
(222,100,o),
(228,107,c),
(252,130,o),
(264,158,o),
(278,187,c),
(290,212,o),
(296,238,o),
(297,265,c),
(302,314,o),
(294,362,o),
(276,409,c),
(257,455,o),
(227,473,o),
(179,470,c),
(170,470,o),
(164,466,o),
(159,455,c),
(138,391,o),
(126,325,o),
(126,260,c)
);
},
{
closed = 1;
nodes = (
(372,208,o),
(342,136,o),
(293,71,c),
(276,50,o),
(258,32,o),
(236,19,c),
(194,-8,o),
(143,-2,o),
(107,32,c),
(92,47,o),
(80,65,o),
(69,85,c),
(53,121,o),
(44,157,o),
(41,196,c),
(30,281,o),
(42,365,o),
(75,445,c),
(86,473,o),
(101,499,o),
(123,520,c),
(140,535,o),
(159,545,o),
(183,535,c),
(189,532,o),
(195,533,o),
(201,533,c),
(264,535,o),
(311,506,o),
(338,451,c),
(356,416,o),
(365,379,o),
(368,340,c),
(369,325,o),
(372,308,o),
(372,293,c)
);
}
);
width = 410;
}
);
unicode = 48;
},
{
glyphname = one;
lastChange = "2023-01-05 15:41:16 +0000";
layers = (
{
layerId = m01;
shapes = (
{
closed = 1;
nodes = (
(105,203,o),
(110,148,o),
(110,92,c),
(110,71,o),
(110,49,o),
(114,26,c),
(117,16,o),
(113,7,o),
(105,2,c),
(98,-1,o),
(89,1,o),
(81,10,c),
(77,13,o),
(75,17,o),
(74,22,c),
(68,37,o),
(65,53,o),
(63,68,c),
(57,118,o),
(53,166,o),
(50,215,c),
(48,259,o),
(44,302,o),
(41,346,c),
(38,397,o),
(35,448,o),
(44,499,c),
(45,509,o),
(50,518,o),
(54,526,c),
(60,535,o),
(69,541,o),
(80,539,c),
(92,538,o),
(99,530,o),
(102,520,c),
(108,502,o),
(110,484,o),
(110,466,c),
(111,416,o),
(110,368,o),
(108,319,c),
(108,299,o),
(108,278,o),
(108,259,c)
);
}
);
width = 153;
}
);
unicode = 49;
},
{
glyphname = two;
lastChange = "2023-01-05 15:41:16 +0000";
layers = (
{
layerId = m01;
shapes = (
{
closed = 1;
nodes = (
(204,104,o),
(221,109,o),
(239,107,c),
(276,107,o),
(309,92,o),
(342,76,c),
(356,68,o),
(362,56,o),
(359,46,c),
(356,34,o),
(345,25,o),
(330,23,c),
(312,22,o),
(293,25,o),
(275,26,c),
(222,28,o),
(170,19,o),
(119,7,c),
(110,4,o),
(101,2,o),
(90,2,c),
(74,2,o),
(60,8,o),
(53,23,c),
(45,40,o),
(48,55,o),
(60,67,c),
(72,82,o),
(86,95,o),
(99,109,c),
(147,160,o),
(186,217,o),
(216,280,c),
(233,313,o),
(246,346,o),
(251,382,c),
(252,401,o),
(254,419,o),
(246,437,c),
(239,454,o),
(230,460,o),
(212,457,c),
(201,455,o),
(192,451,o),
(183,445,c),
(149,422,o),
(117,392,o),
(96,355,c),
(93,349,o),
(92,343,o),
(89,335,c),
(83,319,o),
(65,313,o),
(51,326,c),
(39,337,o),
(36,350,o),
(38,365,c),
(41,391,o),
(53,412,o),
(66,433,c),
(89,469,o),
(117,497,o),
(153,518,c),
(170,527,o),
(188,535,o),
(207,538,c),
(266,547,o),
(308,511,o),
(324,469,c),
(335,440,o),
(335,412,o),
(332,383,c),
(323,334,o),
(305,289,o),
(281,247,c),
(257,203,o),
(228,161,o),
(197,122,c),
(192,118,o),
(188,113,o),
(185,104,c)
);
}
);
width = 398;
}
);
unicode = 50;
},
{
glyphname = three;
lastChange = "2023-01-05 15:41:16 +0000";
layers = (
{
layerId = m01;
shapes = (
{
closed = 1;
nodes = (
(248,359,o),
(258,356,o),
(269,353,c),
(311,340,o),
(341,311,o),
(359,271,c),
(375,235,o),
(380,194,o),
(369,154,c),
(354,91,o),
(315,50,o),
(255,28,c),
(224,16,o),
(191,7,o),
(156,2,c),
(141,1,o),
(128,2,o),
(114,5,c),
(98,10,o),
(87,22,o),
(83,40,c),
(80,50,o),
(83,61,o),
(92,68,c),
(101,74,o),
(110,74,o),
(119,68,c),
(123,65,o),
(129,65,o),
(135,67,c),
(174,77,o),
(212,92,o),
(245,116,c),
(275,139,o),
(294,167,o),
(297,205,c),
(302,247,o),
(279,283,o),
(231,292,c),
(213,295,o),
(194,292,o),
(174,293,c),
(135,298,o),
(117,331,o),
(140,364,c),
(150,379,o),
(164,392,o),
(176,407,c),
(191,422,o),
(204,439,o),
(216,457,c),
(218,458,o),
(221,461,o),
(219,464,c),
(216,467,o),
(213,466,o),
(210,466,c),
(171,455,o),
(134,442,o),
(102,415,c),
(96,409,o),
(90,401,o),
(87,392,c),
(83,376,o),
(71,371,o),
(56,380,c),
(39,391,o),
(33,413,o),
(42,436,c),
(50,457,o),
(66,473,o),
(83,485,c),
(123,515,o),
(170,532,o),
(218,538,c),
(231,541,o),
(242,538,o),
(254,535,c),
(287,526,o),
(305,497,o),
(297,463,c),
(293,439,o),
(279,418,o),
(264,398,c),
(255,388,o),
(245,376,o),
(236,364,c)
);
}
);
width = 413;
}
);
unicode = 51;
},
{
glyphname = four;
lastChange = "2023-01-05 15:41:16 +0000";
layers = (
{
layerId = m01;
shapes = (
{
closed = 1;
nodes = (
(147,268,o),
(173,274,o),
(198,280,c),
(206,280,o),
(213,283,o),
(222,283,c),
(231,283,o),
(233,289,o),
(233,296,c),
(231,340,o),
(234,385,o),
(237,428,c),
(240,455,o),
(243,484,o),
(252,509,c),
(255,518,o),
(258,526,o),
(263,533,c),
(270,545,o),
(282,551,o),
(297,548,c),
(308,547,o),
(318,536,o),
(320,521,c),
(323,500,o),
(323,481,o),
(323,461,c),
(320,412,o),
(317,362,o),
(312,313,c),
(309,274,o),
(305,235,o),
(302,194,c),
(299,169,o),
(297,142,o),
(296,115,c),
(293,85,o),
(290,55,o),
(290,25,c),
(290,7,o),
(272,-4,o),
(255,5,c),
(246,11,o),
(242,20,o),
(239,29,c),
(234,44,o),
(236,59,o),
(234,74,c),
(233,116,o),
(233,158,o),
(233,200,c),
(233,205,o),
(234,209,o),
(231,214,c),
(228,217,o),
(225,214,o),
(222,212,c),
(183,197,o),
(141,190,o),
(101,175,c),
(92,172,o),
(80,170,o),
(69,173,c),
(47,179,o),
(35,199,o),
(39,223,c),
(45,242,o),
(51,260,o),
(57,280,c),
(69,325,o),
(83,370,o),
(96,415,c),
(104,443,o),
(113,472,o),
(123,500,c),
(125,508,o),
(129,517,o),
(134,524,c),
(141,536,o),
(152,541,o),
(162,538,c),
(171,535,o),
(177,526,o),
(177,512,c),
(179,494,o),
(176,476,o),
(173,458,c),
(161,394,o),
(141,332,o),
(122,269,c),
(120,268,o),
(120,265,o),
(119,260,c)
);
}
);
width = 360;
}
);
unicode = 52;
},
{
glyphname = five;
lastChange = "2023-01-05 15:41:16 +0000";
layers = (
{
layerId = m01;
shapes = (
{
closed = 1;
nodes = (
(129,346,o),
(138,352,o),
(147,356,c),
(231,386,o),
(309,307,o),
(299,233,c),
(293,197,o),
(281,166,o),
(260,137,c),
(227,94,o),
(188,58,o),
(146,25,c),
(138,20,o),
(132,16,o),
(125,13,c),
(101,2,o),
(75,16,o),
(74,41,c),
(72,55,o),
(78,62,o),
(90,67,c),
(95,68,o),
(99,70,o),
(104,74,c),
(143,118,o),
(180,164,o),
(200,221,c),
(203,230,o),
(204,239,o),
(206,250,c),
(207,262,o),
(204,274,o),
(192,281,c),
(183,289,o),
(173,286,o),
(162,281,c),
(147,274,o),
(135,263,o),
(123,253,c),
(114,245,o),
(105,238,o),
(95,235,c),
(71,229,o),
(48,242,o),
(41,268,c),
(36,284,o),
(38,301,o),
(38,319,c),
(38,367,o),
(41,416,o),
(50,464,c),
(51,473,o),
(53,482,o),
(57,491,c),
(63,503,o),
(72,512,o),
(87,511,c),
(95,511,o),
(99,515,o),
(105,517,c),
(165,535,o),
(225,536,o),
(285,526,c),
(291,524,o),
(297,521,o),
(302,518,c),
(308,515,o),
(312,509,o),
(311,502,c),
(309,493,o),
(303,488,o),
(294,487,c),
(239,476,o),
(185,461,o),
(128,454,c),
(110,451,o),
(110,451,o),
(111,433,c),
(113,404,o),
(114,374,o),
(116,344,c)
);
}
);
width = 348;
}
);
unicode = 53;
},
{
glyphname = six;
lastChange = "2023-01-05 15:41:16 +0000";
layers = (
{
layerId = m01;
shapes = (
{
closed = 1;
nodes = (
(249,193,o),
(248,194,o),
(246,193,c),
(240,191,o),
(233,188,o),
(227,185,c),
(191,167,o),
(159,142,o),
(140,106,c),
(134,95,o),
(135,86,o),
(143,79,c),
(150,70,o),
(158,73,o),
(167,77,c),
(171,79,o),
(174,82,o),
(179,85,c),
(198,97,o),
(212,113,o),
(224,130,c),
(239,148,o),
(251,167,o),
(254,193,c)
);
},
{
closed = 1;
nodes = (
(141,211,o),
(161,230,o),
(183,247,c),
(200,260,o),
(218,271,o),
(240,274,c),
(290,281,o),
(327,247,o),
(323,194,c),
(321,172,o),
(314,151,o),
(303,131,c),
(278,85,o),
(245,44,o),
(198,19,c),
(165,-1,o),
(132,-5,o),
(99,17,c),
(84,28,o),
(75,43,o),
(66,58,c),
(48,89,o),
(42,124,o),
(39,160,c),
(36,212,o),
(42,263,o),
(51,314,c),
(60,359,o),
(72,404,o),
(92,446,c),
(105,473,o),
(119,499,o),
(143,520,c),
(152,527,o),
(161,535,o),
(173,538,c),
(186,541,o),
(198,538,o),
(209,527,c),
(219,515,o),
(219,506,o),
(210,496,c),
(194,478,o),
(185,458,o),
(176,437,c),
(150,371,o),
(129,304,o),
(123,233,c),
(122,220,o),
(122,205,o),
(120,191,c)
);
}
);
width = 360;
}
);
unicode = 54;
},
{
glyphname = seven;
lastChange = "2023-01-05 15:41:16 +0000";
layers = (
{
layerId = m01;
shapes = (
{
closed = 1;
nodes = (
(206,464,o),
(171,458,o),
(137,449,c),
(119,443,o),
(101,440,o),
(81,440,c),
(74,439,o),
(65,439,o),
(59,443,c),
(45,449,o),
(36,463,o),
(38,478,c),
(39,491,o),
(50,500,o),
(62,503,c),
(78,508,o),
(96,512,o),
(114,517,c),
(162,527,o),
(212,533,o),
(260,538,c),
(273,539,o),
(285,539,o),
(299,535,c),
(318,529,o),
(330,512,o),
(330,491,c),
(330,481,o),
(329,470,o),
(324,460,c),
(317,442,o),
(308,424,o),
(297,407,c),
(267,355,o),
(237,304,o),
(209,251,c),
(183,205,o),
(159,158,o),
(140,109,c),
(134,91,o),
(126,74,o),
(120,56,c),
(117,44,o),
(113,34,o),
(116,22,c),
(117,14,o),
(113,8,o),
(105,4,c),
(99,1,o),
(93,2,o),
(87,7,c),
(77,14,o),
(74,26,o),
(72,38,c),
(72,58,o),
(77,77,o),
(83,95,c),
(96,146,o),
(114,197,o),
(134,247,c),
(161,320,o),
(198,389,o),
(237,457,c),
(239,460,o),
(240,463,o),
(242,467,c),
(242,467,o),
(242,469,o),
(243,472,c)
);
}
);
width = 368;
}
);
unicode = 55;
},
{
glyphname = eight;
lastChange = "2023-01-05 15:41:16 +0000";
layers = (
{
layerId = m01;
shapes = (
{
closed = 1;
nodes = (
(191,428,o),
(189,428,o),
(188,427,c),
(167,403,o),
(146,379,o),
(131,349,c),
(126,340,o),
(122,331,o),
(119,320,c),
(116,301,o),
(120,289,o),
(138,278,c),
(141,275,o),
(147,272,o),
(152,271,c),
(164,266,o),
(164,266,o),
(167,280,c),
(173,319,o),
(179,359,o),
(188,398,c),
(191,409,o),
(194,418,o),
(194,430,c)
);
},
{
closed = 1;
nodes = (
(204,163,o),
(203,161,o),
(201,160,c),
(194,148,o),
(183,146,o),
(171,149,c),
(159,154,o),
(155,164,o),
(153,175,c),
(152,181,o),
(153,187,o),
(153,193,c),
(153,196,o),
(153,200,o),
(149,202,c),
(146,202,o),
(143,199,o),
(141,196,c),
(125,161,o),
(111,127,o),
(110,88,c),
(110,67,o),
(114,65,o),
(132,74,c),
(134,76,o),
(137,76,o),
(138,77,c),
(165,94,o),
(186,116,o),
(201,143,c),
(204,149,o),
(209,155,o),
(206,164,c)
);
},
{
closed = 1;
nodes = (
(36,133,o),
(57,170,o),
(81,206,c),
(84,214,o),
(93,218,o),
(93,226,c),
(92,232,o),
(84,235,o),
(80,241,c),
(56,266,o),
(51,298,o),
(57,331,c),
(60,352,o),
(69,370,o),
(80,386,c),
(108,436,o),
(146,478,o),
(185,518,c),
(192,526,o),
(201,532,o),
(212,536,c),
(237,547,o),
(264,538,o),
(278,512,c),
(285,497,o),
(287,482,o),
(285,467,c),
(282,425,o),
(273,386,o),
(261,346,c),
(252,316,o),
(242,286,o),
(231,256,c),
(228,247,o),
(228,241,o),
(237,235,c),
(267,211,o),
(275,181,o),
(264,145,c),
(257,119,o),
(242,100,o),
(225,79,c),
(206,56,o),
(185,35,o),
(159,20,c),
(144,11,o),
(128,4,o),
(110,2,c),
(77,-1,o),
(47,23,o),
(39,56,c),
(38,67,o),
(38,76,o),
(38,86,c)
);
}
);
width = 323;
}
);
unicode = 56;
},
{
glyphname = nine;
lastChange = "2023-01-05 15:41:16 +0000";
layers = (
{
layerId = m01;
shapes = (
{
closed = 1;
nodes = (
(147,289,o),
(158,298,o),
(173,316,c),
(198,349,o),
(212,388,o),
(219,430,c),
(222,443,o),
(218,448,o),
(204,443,c),
(198,443,o),
(194,440,o),
(189,436,c),
(155,412,o),
(137,376,o),
(126,335,c),
(123,317,o),
(122,299,o),
(129,281,c)
);
},
{
closed = 1;
nodes = (
(252,323,o),
(246,311,o),
(239,298,c),
(222,265,o),
(201,235,o),
(171,214,c),
(143,194,o),
(114,188,o),
(83,205,c),
(69,212,o),
(60,224,o),
(53,238,c),
(44,254,o),
(39,274,o),
(38,293,c),
(35,370,o),
(62,433,o),
(114,487,c),
(137,509,o),
(165,523,o),
(198,523,c),
(209,523,o),
(218,518,o),
(228,517,c),
(239,515,o),
(242,527,o),
(252,530,c),
(270,535,o),
(290,530,o),
(302,515,c),
(309,506,o),
(312,496,o),
(317,485,c),
(347,403,o),
(356,316,o),
(351,227,c),
(350,190,o),
(344,152,o),
(333,116,c),
(321,76,o),
(300,41,o),
(264,19,c),
(227,-7,o),
(183,-5,o),
(161,41,c),
(156,53,o),
(155,64,o),
(164,74,c),
(171,83,o),
(183,86,o),
(197,79,c),
(207,73,o),
(213,77,o),
(219,85,c),
(239,110,o),
(251,137,o),
(255,169,c),
(260,199,o),
(266,227,o),
(266,259,c),
(266,284,o),
(266,310,o),
(258,335,c)
);
}
);
width = 390;
}
);
unicode = 57;
},
{
glyphname = .notdef;
lastChange = "2023-03-23 09:55:53 +0000";
layers = (
{
layerId = m01;
shapes = (
{
closed = 1;
nodes = (
(90,-125,o),
(99,-124,o),
(107,-122,cs),
(131,-116,o),
(153,-110,o),
(177,-106,cs),
(240,-92,o),
(303,-79,o),
(363,-58,cs),
(383,-50,o),
(402,-43,o),
(422,-40,cs),
(424,-40,o),
(425,-39,o),
(427,-39,c),
(430,-44,ls),
(443,-66,o),
(472,-71,o),
(490,-53,cs),
(497,-45,o),
(500,-38,o),
(503,-29,cs),
(506,-20,o),
(508,-9,o),
(509,1,cs),
(512,34,o),
(512,66,o),
(512,99,cs),
(514,163,o),
(512,226,o),
(515,417,cs),
(516,481,o),
(512,547,o),
(512,604,cs),
(512,687,ls),
(512,721,o),
(514,754,o),
(515,789,cs),
(517,819,o),
(499,840,o),
(467,843,cs),
(460,844,o),
(451,843,o),
(443,841,cs),
(419,835,o),
(397,829,o),
(373,825,cs),
(310,811,o),
(247,798,o),
(187,777,cs),
(167,769,o),
(148,762,o),
(128,759,cs),
(126,759,o),
(125,758,o),
(123,758,c),
(120,763,ls),
(107,785,o),
(78,790,o),
(60,772,cs),
(53,764,o),
(50,757,o),
(47,748,cs),
(44,739,o),
(42,728,o),
(41,718,cs),
(38,685,o),
(38,653,o),
(38,620,cs),
(36,556,o),
(39,493,o),
(38,428,cs),
(35,238,o),
(36,172,o),
(38,115,cs),
(38,32,ls),
(39,-2,o),
(36,-35,o),
(35,-70,cs),
(33,-100,o),
(51,-121,o),
(83,-124,cs)
);
},
{
closed = 1;
nodes = (
(119,-22,o),
(117,-22,o),
(117,4,cs),
(116,55,o),
(116,104,o),
(117,154,cs),
(120,220,o),
(125,413,o),
(126,479,cs),
(126,487,o),
(128,494,o),
(128,502,cs),
(132,569,o),
(134,635,o),
(132,702,c),
(167,702,ls),
(206,702,o),
(247,705,o),
(287,711,cs),
(328,717,o),
(367,727,o),
(407,736,cs),
(431,741,o),
(433,741,o),
(433,715,cs),
(434,664,o),
(434,615,o),
(433,565,cs),
(430,499,o),
(425,306,o),
(424,240,cs),
(424,232,o),
(422,225,o),
(422,217,cs),
(418,150,o),
(416,84,o),
(418,17,c),
(383,17,ls),
(344,19,o),
(303,14,o),
(263,8,cs),
(222,2,o),
(183,-8,o),
(143,-17,cs)
);
}
);
width = 560;
}
);
},
{
glyphname = period;
lastChange = "2023-03-30 19:45:51 +0000";
layers = (
{
layerId = m01;
shapes = (
{
closed = 1;
nodes = (
(45,0,o),
(18,30,o),
(18,57,cs),
(18,90,o),
(41,121,o),
(74,121,cs),
(106,121,o),
(133,108,o),
(133,46,cs),
(133,14,o),
(115,0,o),
(80,0,cs)
);
}
);
width = 150;
}
);
unicode = 46;
},
{
glyphname = comma;
lastChange = "2023-03-30 19:45:48 +0000";
layers = (
{
layerId = m01;
shapes = (
{
closed = 1;
nodes = (
(127,-5,o),
(81,-84,o),
(48,-99,cs),
(43,-102,o),
(37,-103,o),
(32,-103,cs),
(22,-102,o),
(14,-94,o),
(14,-80,cs),
(14,-77,o),
(16,-24,o),
(28,48,cs),
(32,74,o),
(53,103,o),
(86,103,cs),
(102,103,o),
(112,90,o),
(118,80,cs),
(127,65,o),
(127,55,o),
(127,50,cs)
);
}
);
width = 161;
}
);
unicode = 44;
},
{
glyphname = colon;
lastChange = "2023-03-30 19:46:55 +0000";
layers = (
{
layerId = m01;
shapes = (
{
closed = 1;
nodes = (
(31,309,o),
(52,335,o),
(81,338,c),
(95,339,o),
(106,336,o),
(114,324,c),
(127,309,o),
(134,288,o),
(132,266,c),
(128,240,o),
(106,219,o),
(80,222,c),
(51,223,o),
(29,247,o),
(31,276,c)
);
},
{
closed = 1;
nodes = (
(48,53,o),
(27,75,o),
(29,103,c),
(29,131,o),
(52,154,o),
(78,154,c),
(106,154,o),
(128,129,o),
(128,100,c),
(127,73,o),
(106,51,o),
(80,51,c)
);
}
);
width = 161;
}
);
unicode = 58;
},
{
glyphname = semicolon;
lastChange = "2023-03-30 19:46:50 +0000";
layers = (
{
layerId = m01;
shapes = (
{
closed = 1;
nodes = (
(143,53,o),
(116,5,o),
(102,-12,cs),
(89,-29,o),
(72,-50,o),
(49,-50,cs),
(39,-50,o),
(37,-37,o),
(37,-20,cs),
(37,-4,o),
(49,32,o),
(63,94,cs),
(66,109,o),
(84,131,o),
(105,131,cs),
(126,131,o),
(143,113,o),
(143,72,cs)
);
},
{
closed = 1;
nodes = (
(165,247,ls),
(165,221,o),
(144,202,o),
(118,201,cs),
(94,197,o),
(72,212,o),
(64,237,cs),
(56,260,o),
(68,287,o),
(91,297,cs),
(103,303,o),
(117,307,o),
(130,309,cs),
(149,313,o),
(165,301,o),
(165,282,cs),
(165,264,l)
);
}
);
width = 203;
}
);
unicode = 59;
},
{
glyphname = ellipsis;
lastChange = "2023-01-05 15:41:16 +0000";
layers = (
{
layerId = m01;
shapes = (
{
closed = 1;
nodes = (
(56,28,o),
(38,50,o),
(38,68,c),
(36,89,o),
(53,106,o),
(74,109,c),
(90,110,o),
(110,95,o),
(113,77,c),
(113,73,o),
(113,67,o),
(113,61,c),
(110,38,o),
(101,31,o),
(78,31,c)
);
},
{
closed = 1;
nodes = (
(243,28,o),
(225,50,o),
(225,68,c),
(225,89,o),
(240,106,o),
(261,109,c),
(279,110,o),
(297,95,o),
(300,77,c),
(302,73,o),
(302,67,o),
(300,61,c),
(297,38,o),
(288,31,o),
(266,31,c)
);
},
{
closed = 1;
nodes = (
(431,28,o),
(413,50,o),
(413,68,c),
(413,89,o),
(429,106,o),
(449,109,c),
(467,110,o),
(485,95,o),
(488,77,c),
(489,73,o),
(489,67,o),
(488,61,c),
(486,38,o),
(477,31,o),
(455,31,c)
);
}
);
width = 527;
}
);
unicode = 8230;
},
{
glyphname = exclam;
lastChange = "2023-03-30 19:47:02 +0000";
layers = (
{
layerId = m01;
shapes = (
{
closed = 1;
nodes = (
(56,391,o),
(56,446,o),
(56,500,c),
(57,562,o),
(57,623,o),
(60,685,c),
(62,728,o),
(66,773,o),
(71,817,c),
(72,829,o),
(75,841,o),
(81,851,c),
(89,868,o),
(104,877,o),
(119,875,c),
(138,874,o),
(149,862,o),
(155,845,c),
(161,827,o),
(159,808,o),
(158,790,c),
(155,757,o),
(156,724,o),
(155,692,c),
(153,640,o),
(146,590,o),
(141,539,c),
(140,514,o),
(140,488,o),
(137,464,c),
(131,425,o),
(131,385,o),
(126,346,c),
(123,323,o),
(123,301,o),
(120,277,c),
(116,233,o),
(113,188,o),
(108,143,c),
(108,134,o),
(105,125,o),
(101,116,c),
(96,106,o),
(89,101,o),
(78,103,c),
(69,103,o),
(62,109,o),
(59,119,c),
(54,136,o),
(54,152,o),
(54,169,c),
(54,224,o),
(53,280,o),
(56,355,c)
);
},
{
closed = 1;
nodes = (
(116,-57,o),
(116,-65,o),
(112,-75,c),
(103,-95,o),
(85,-106,o),
(64,-104,c),
(46,-101,o),
(30,-82,o),
(30,-62,c),
(30,-38,o),
(39,-18,o),
(59,-5,c),
(83,12,o),
(112,-2,o),
(116,-29,c),
(118,-35,o),
(116,-40,o),
(118,-46,c)
);
}
);
width = 197;
}
);
unicode = 33;
},
{
glyphname = exclamdown;
lastChange = "2023-01-05 15:41:16 +0000";
layers = (
{
layerId = m01;
shapes = (
{
closed = 1;
nodes = (
(141,376,o),
(141,320,o),
(141,266,c),
(140,205,o),
(140,143,o),
(137,82,c),
(135,38,o),
(131,-5,o),
(126,-50,c),
(125,-62,o),
(122,-74,o),
(116,-85,c),
(108,-101,o),
(93,-110,o),
(78,-109,c),
(59,-107,o),
(48,-95,o),
(42,-77,c),
(36,-59,o),
(38,-41,o),
(39,-23,c),
(42,10,o),
(41,43,o),
(42,76,c),
(44,127,o),
(51,178,o),
(56,229,c),
(57,253,o),
(57,278,o),
(60,302,c),
(66,341,o),
(66,382,o),
(71,421,c),
(74,443,o),
(74,467,o),
(77,490,c),
(81,533,o),
(84,578,o),
(89,623,c),
(89,632,o),
(92,643,o),
(96,650,c),
(101,661,o),
(108,665,o),
(119,665,c),
(128,664,o),
(135,658,o),
(138,647,c),
(143,631,o),
(143,614,o),
(143,598,c),
(143,542,o),
(144,487,o),
(141,412,c)
);
},
{
closed = 1;
nodes = (
(89,821,o),
(89,829,o),
(92,838,c),
(99,853,o),
(114,863,o),
(131,860,c),
(146,857,o),
(159,844,o),
(159,826,c),
(159,806,o),
(152,790,o),
(135,779,c),
(116,766,o),
(92,776,o),
(89,799,c),
(87,803,o),
(89,808,o),
(87,812,c)
);
}
);
width = 197;
}
);
unicode = 161;
},
{
glyphname = question;
lastChange = "2023-03-30 19:47:06 +0000";
layers = (
{
layerId = m01;
shapes = (
{
closed = 1;
nodes = (
(420,694,o),
(416,670,o),
(408,647,c),
(387,577,o),
(357,511,o),
(318,448,c),
(291,404,o),
(263,361,o),
(237,316,c),
(219,284,o),
(201,254,o),
(183,223,c),
(162,190,o),
(144,155,o),
(128,121,c),
(123,110,o),
(119,101,o),
(111,94,c),
(105,86,o),
(98,82,o),
(89,85,c),
(78,88,o),
(72,97,o),
(74,109,c),
(75,122,o),
(78,136,o),
(83,149,c),
(96,188,o),
(113,227,o),
(131,265,c),
(162,331,o),
(195,395,o),
(227,461,c),
(252,517,o),
(281,571,o),
(303,626,c),
(311,647,o),
(317,670,o),
(323,691,c),
(326,703,o),
(326,716,o),
(326,728,c),
(324,751,o),
(312,761,o),
(290,757,c),
(276,755,o),
(264,748,o),
(252,742,c),
(216,718,o),
(188,686,o),
(162,652,c),
(155,641,o),
(149,631,o),
(153,617,c),
(156,607,o),
(149,599,o),
(140,595,c),
(128,589,o),
(116,589,o),
(105,596,c),
(90,607,o),
(84,622,o),
(83,640,c),
(81,659,o),
(86,679,o),
(95,697,c),
(122,754,o),
(165,794,o),
(219,826,c),
(242,841,o),
(266,847,o),
(291,850,c),
(356,854,o),
(407,814,o),
(417,751,c),
(419,740,o),
(422,730,o),
(420,718,c)
);
},
{
closed = 1;
nodes = (
(79,-14,o),
(82,-16,o),
(87,-16,c),
(124,-20,o),
(138,-37,o),
(132,-69,c),
(124,-109,o),
(93,-134,o),
(59,-125,c),
(29,-119,o),
(14,-91,o),
(19,-61,c),
(20,-34,o),
(47,-11,o),
(78,-14,c)
);
}
);
width = 458;
}
);
unicode = 63;
},
{
glyphname = questiondown;
lastChange = "2023-01-05 15:41:16 +0000";
layers = (
{
layerId = m01;
shapes = (
{
closed = 1;
nodes = (
(38,73,o),
(42,97,o),
(50,121,c),
(71,190,o),
(101,256,o),
(140,319,c),
(167,362,o),
(195,406,o),
(221,451,c),
(239,482,o),
(257,512,o),
(275,544,c),
(296,577,o),
(314,611,o),
(330,647,c),
(335,656,o),
(339,665,o),
(347,673,c),
(353,680,o),
(360,685,o),
(369,682,c),
(380,679,o),
(386,670,o),
(384,658,c),
(383,644,o),
(380,631,o),
(375,617,c),
(362,578,o),
(345,539,o),
(327,502,c),
(296,437,o),
(263,371,o),
(231,305,c),
(206,250,o),
(177,196,o),
(155,140,c),
(147,119,o),
(141,98,o),
(135,76,c),
(132,64,o),
(132,50,o),
(132,38,c),
(134,16,o),
(146,7,o),
(168,10,c),
(182,11,o),
(194,19,o),
(206,26,c),
(242,49,o),
(270,80,o),
(296,115,c),
(303,125,o),
(309,136,o),
(305,149,c),
(302,160,o),
(309,167,o),
(318,172,c),
(330,178,o),
(342,178,o),
(353,170,c),
(368,160,o),
(374,145,o),
(375,128,c),
(377,107,o),
(372,88,o),
(363,70,c),
(336,13,o),
(293,-28,o),
(239,-59,c),
(216,-73,o),
(192,-80,o),
(167,-83,c),
(102,-88,o),
(51,-47,o),
(41,16,c),
(39,26,o),
(36,38,o),
(38,49,c)
);
},
{
closed = 1;
nodes = (
(380,802,o),
(378,802,o),
(375,802,c),
(350,805,o),
(341,815,o),
(345,836,c),
(350,865,o),
(371,880,o),
(393,874,c),
(413,869,o),
(423,851,o),
(420,832,c),
(419,814,o),
(401,800,o),
(381,800,c)
);
}
);
width = 458;
}
);
unicode = 191;
},
{
glyphname = periodcentered;
lastChange = "2023-01-05 15:41:16 +0000";
layers = (
{
layerId = m01;
shapes = (
{
closed = 1;
nodes = (
(56,251,o),
(38,272,o),
(38,292,c),
(38,311,o),
(53,329,o),
(74,331,c),
(92,332,o),
(110,319,o),
(113,301,c),
(113,295,o),
(113,289,o),
(113,284,c),
(110,262,o),
(101,254,o),
(78,254,c)
);
}
);
width = 150;
}
);
unicode = 183;
},
{
glyphname = bullet;
lastChange = "2023-01-05 15:41:16 +0000";
layers = (
{
layerId = m01;
shapes = (
{
closed = 1;
nodes = (
(131,310,o),
(146,283,o),
(144,259,c),
(143,224,o),
(113,203,o),
(86,205,c),
(57,208,o),
(36,235,o),
(38,266,c),
(39,289,o),
(62,311,o),
(81,311,c)
);
}
);
width = 182;
}
);
unicode = 8226;
},
{
glyphname = asterisk;
lastChange = "2023-01-05 15:41:16 +0000";
layers = (
{
layerId = m01;
shapes = (
{
closed = 1;
nodes = (
(159,565,o),
(161,583,o),
(161,601,c),
(162,613,o),
(162,625,o),
(165,637,c),
(167,641,o),
(168,646,o),
(170,649,c),
(176,661,o),
(185,665,o),
(195,664,c),
(207,662,o),
(215,655,o),
(215,641,c),
(216,628,o),
(215,614,o),
(213,601,c),
(212,590,o),
(210,580,o),
(212,566,c),
(231,584,o),
(248,599,o),
(263,617,c),
(273,629,o),
(284,634,o),
(291,629,c),
(302,623,o),
(305,611,o),
(300,596,c),
(297,587,o),
(293,578,o),
(287,569,c),
(266,544,o),
(245,518,o),
(222,493,c),
(215,482,o),
(215,482,o),
(224,473,c),
(233,466,o),
(243,458,o),
(251,449,c),
(260,437,o),
(261,427,o),
(254,419,c),
(246,412,o),
(231,412,o),
(221,422,c),
(215,428,o),
(210,436,o),
(198,436,c),
(195,419,o),
(192,403,o),
(189,386,c),
(188,379,o),
(185,371,o),
(180,365,c),
(176,359,o),
(170,355,o),
(162,358,c),
(153,361,o),
(152,367,o),
(153,376,c),
(153,386,o),
(155,398,o),
(156,412,c),
(146,407,o),
(143,400,o),
(137,395,c),
(128,386,o),
(122,377,o),
(113,370,c),
(108,364,o),
(102,359,o),
(96,356,c),
(80,344,o),
(60,346,o),
(48,358,c),
(35,371,o),
(35,391,o),
(45,407,c),
(53,418,o),
(62,427,o),
(72,436,c),
(81,443,o),
(92,452,o),
(101,461,c),
(104,466,o),
(114,470,o),
(113,475,c),
(110,482,o),
(110,491,o),
(104,497,c),
(101,499,o),
(99,502,o),
(96,505,c),
(87,515,o),
(86,535,o),
(93,545,c),
(102,557,o),
(119,563,o),
(134,557,c),
(141,554,o),
(149,550,o),
(158,547,c)
);
}
);
width = 339;
}
);
unicode = 42;
},
{
glyphname = numbersign;
lastChange = "2023-01-05 15:41:16 +0000";
layers = (
{
layerId = m01;
shapes = (
{
closed = 1;
nodes = (
(234,248,o),
(210,239,o),
(185,230,c),
(179,229,o),
(174,224,o),
(174,217,c),
(173,194,o),
(173,172,o),
(174,149,c),
(174,139,o),
(177,137,o),
(188,140,c),
(210,146,o),
(234,152,o),
(258,158,c),
(267,161,o),
(272,166,o),
(270,176,c),
(267,202,o),
(264,229,o),
(261,257,c)
);
},
{
closed = 1;
nodes = (
(120,43,o),
(113,38,o),
(104,37,c),
(90,34,o),
(80,38,o),
(72,49,c),
(63,58,o),
(65,71,o),
(74,83,c),
(84,100,o),
(101,107,o),
(116,116,c),
(120,119,o),
(123,121,o),
(123,127,c),
(123,128,o),
(123,130,o),
(123,131,c),
(119,155,o),
(120,179,o),
(116,203,c),
(107,203,o),
(102,199,o),
(95,197,c),
(71,188,o),
(47,200,o),
(39,226,c),
(35,239,o),
(48,266,o),
(65,277,c),
(75,283,o),
(86,289,o),
(96,293,c),
(108,296,o),
(110,302,o),
(110,313,c),
(107,346,o),
(107,377,o),
(113,410,c),
(116,427,o),
(122,440,o),
(138,446,c),
(155,452,o),
(173,445,o),
(179,428,c),
(183,415,o),
(183,403,o),
(183,389,c),
(183,368,o),
(183,347,o),
(183,325,c),
(203,329,o),
(224,334,o),
(243,337,c),
(252,338,o),
(255,343,o),
(255,352,c),
(255,371,o),
(257,391,o),
(258,410,c),
(260,424,o),
(263,434,o),
(272,443,c),
(293,466,o),
(329,458,o),
(338,428,c),
(342,416,o),
(345,403,o),
(344,389,c),
(344,385,o),
(344,380,o),
(345,376,c),
(348,352,o),
(345,355,o),
(368,353,c),
(383,353,o),
(396,349,o),
(407,337,c),
(413,329,o),
(419,319,o),
(413,307,c),
(407,296,o),
(398,292,o),
(386,293,c),
(383,293,o),
(378,293,o),
(375,293,c),
(348,290,o),
(345,286,o),
(344,260,c),
(342,236,o),
(341,212,o),
(339,187,c),
(339,179,o),
(341,175,o),
(351,176,c),
(360,178,o),
(371,175,o),
(381,172,c),
(392,169,o),
(401,160,o),
(399,149,c),
(399,139,o),
(393,131,o),
(381,128,c),
(371,125,o),
(360,122,o),
(350,119,c),
(342,118,o),
(339,115,o),
(339,107,c),
(339,64,o),
(335,19,o),
(344,-25,c),
(345,-37,o),
(342,-46,o),
(332,-50,c),
(321,-55,o),
(309,-52,o),
(302,-41,c),
(294,-31,o),
(291,-19,o),
(290,-7,c),
(285,28,o),
(281,61,o),
(278,95,c),
(269,97,o),
(263,92,o),
(257,91,c),
(234,83,o),
(212,74,o),
(188,67,c),
(182,65,o),
(177,62,o),
(177,53,c),
(180,29,o),
(182,5,o),
(186,-19,c),
(188,-23,o),
(189,-25,o),
(192,-28,c),
(200,-35,o),
(200,-43,o),
(195,-50,c),
(191,-58,o),
(180,-61,o),
(171,-58,c),
(159,-55,o),
(153,-46,o),
(149,-37,c),
(141,-19,o),
(138,-1,o),
(135,17,c),
(134,26,o),
(132,34,o),
(131,43,c)
);
}
);
width = 453;
}
);
unicode = 35;
},
{
glyphname = slash;
lastChange = "2023-03-30 19:48:51 +0000";
layers = (
{
layerId = m01;
shapes = (
{
closed = 1;
nodes = (
(39,53,o),
(48,88,o),
(53,124,c),
(62,181,o),
(74,236,o),
(86,292,c),
(105,383,o),
(126,475,o),
(158,562,c),
(164,575,o),
(170,589,o),
(180,599,c),
(201,617,o),
(231,613,o),
(246,590,c),
(254,578,o),
(254,566,o),
(251,553,c),
(248,538,o),
(243,521,o),
(237,505,c),
(221,457,o),
(210,407,o),
(194,358,c),
(182,316,o),
(170,274,o),
(158,232,c),
(138,161,o),
(120,91,o),
(102,20,c),
(98,7,o),
(95,-5,o),
(89,-19,c),
(83,-32,o),
(72,-38,o),
(59,-35,c),
(47,-34,o),
(41,-26,o),
(39,-10,c),
(39,-7,o),
(39,-2,o),
(38,2,c),
(38,7,o),
(38,11,o),
(38,16,c)
);
}
);
width = 290;
}
);
unicode = 47;
},
{
glyphname = backslash;
lastChange = "2023-01-05 15:41:16 +0000";
layers = (
{
layerId = m01;
shapes = (
{
closed = 1;
nodes = (
(99,608,o),
(114,596,o),
(122,574,c),
(129,548,o),
(134,523,o),
(141,496,c),
(156,433,o),
(162,370,o),
(171,305,c),
(182,236,o),
(191,166,o),
(206,98,c),
(213,65,o),
(219,32,o),
(231,1,c),
(233,-2,o),
(234,-5,o),
(234,-10,c),
(234,-19,o),
(231,-28,o),
(222,-32,c),
(213,-35,o),
(204,-35,o),
(197,-28,c),
(182,-14,o),
(171,2,o),
(164,22,c),
(144,71,o),
(132,122,o),
(117,172,c),
(98,245,o),
(83,317,o),
(66,391,c),
(56,433,o),
(53,476,o),
(45,518,c),
(42,533,o),
(38,547,o),
(38,560,c),
(38,574,o),
(41,587,o),
(51,598,c),
(59,605,o),
(68,610,o),
(77,608,c)
);
}
);
width = 272;
}
);
unicode = 92;
},
{
glyphname = hyphen;
lastChange = "2023-01-05 15:41:16 +0000";
layers = (
{
layerId = m01;
shapes = (
{
closed = 1;
nodes = (
(168,307,o),
(195,308,o),
(221,302,c),
(237,298,o),
(252,292,o),
(264,281,c),
(273,275,o),
(276,265,o),
(272,254,c),
(267,245,o),
(260,239,o),
(249,239,c),
(248,239,o),
(245,239,o),
(243,241,c),
(198,248,o),
(155,242,o),
(110,238,c),
(104,236,o),
(98,235,o),
(92,233,c),
(77,230,o),
(63,232,o),
(50,242,c),
(38,254,o),
(35,268,o),
(39,281,c),
(44,295,o),
(54,304,o),
(69,305,c),
(84,308,o),
(102,310,o),
(119,310,c),
(126,310,o),
(134,310,o),
(144,310,c)
);
}
);
width = 311;
}
);
unicode = 45;
},
{
glyphname = endash;
lastChange = "2023-01-05 15:41:16 +0000";
layers = (
{
layerId = m01;
shapes = (
{
closed = 1;
nodes = (
(365,296,o),
(380,290,o),
(392,280,c),
(401,272,o),
(404,263,o),
(399,253,c),
(395,244,o),
(387,238,o),
(377,238,c),
(375,238,o),
(372,238,o),
(371,238,c),
(326,247,o),
(155,242,o),
(110,238,c),
(104,236,o),
(98,235,o),
(92,233,c),
(77,230,o),
(63,232,o),
(50,242,c),
(38,254,o),
(35,268,o),
(39,281,c),
(44,295,o),
(54,304,o),
(69,305,c),
(209,316,o),
(323,305,o),
(348,299,c)
);
}
);
width = 438;
}
);
unicode = 8211;
},
{
glyphname = emdash;
lastChange = "2023-01-05 15:41:16 +0000";
layers = (
{
layerId = m01;
shapes = (
{
closed = 1;
nodes = (
(626,296,o),
(639,290,o),
(653,280,c),
(662,272,o),
(665,263,o),
(660,253,c),
(656,244,o),
(648,238,o),
(638,238,c),
(635,238,o),
(633,238,o),
(632,238,c),
(587,247,o),
(155,242,o),
(110,238,c),
(104,236,o),
(98,235,o),
(92,233,c),
(77,230,o),
(63,232,o),
(50,242,c),
(38,254,o),
(35,268,o),
(39,281,c),
(44,295,o),
(54,304,o),
(69,305,c),
(248,325,o),
(582,305,o),
(609,299,c)
);
}
);
width = 699;
}
);
unicode = 8212;
},
{
glyphname = underscore;
lastChange = "2023-01-05 15:41:16 +0000";
layers = (
{
layerId = m01;
shapes = (
{
closed = 1;
nodes = (
(474,-44,o),
(476,-53,o),
(470,-64,c),
(464,-73,o),
(455,-73,o),
(446,-71,c),
(395,-59,o),
(342,-65,o),
(291,-65,c),
(228,-67,o),
(165,-76,o),
(102,-79,c),
(89,-80,o),
(77,-80,o),
(63,-76,c),
(50,-71,o),
(41,-62,o),
(38,-47,c),
(36,-34,o),
(42,-22,o),
(56,-13,c),
(69,-5,o),
(84,-1,o),
(98,2,c),
(170,19,o),
(243,26,o),
(309,22,c),
(353,20,o),
(389,16,o),
(422,1,c),
(440,-7,o),
(455,-22,o),
(467,-37,c)
);
}
);
width = 510;
}
);
unicode = 95;
},
{
glyphname = parenleft;
lastChange = "2023-01-05 15:41:16 +0000";
layers = (
{
layerId = m01;
shapes = (
{
closed = 1;
nodes = (
(39,374,o),
(50,433,o),
(68,491,c),
(78,526,o),
(95,559,o),
(114,590,c),
(123,604,o),
(134,616,o),
(146,625,c),
(156,632,o),
(167,635,o),
(180,634,c),
(204,629,o),
(216,602,o),
(200,586,c),
(182,566,o),
(173,542,o),
(164,518,c),
(149,479,o),
(138,439,o),
(129,397,c),
(119,344,o),
(116,290,o),
(120,236,c),
(125,172,o),
(143,112,o),
(168,52,c),
(176,34,o),
(185,14,o),
(197,-2,c),
(201,-10,o),
(206,-13,o),
(216,-13,c),
(234,-11,o),
(242,-28,o),
(233,-43,c),
(224,-59,o),
(203,-64,o),
(185,-56,c),
(167,-47,o),
(155,-34,o),
(144,-19,c),
(107,35,o),
(84,94,o),
(63,155,c),
(47,208,o),
(39,260,o),
(38,308,c)
);
}
);
width = 275;
}
);
unicode = 40;
},
{
glyphname = parenright;
lastChange = "2023-01-05 15:41:16 +0000";
layers = (
{
layerId = m01;
shapes = (
{
closed = 1;
nodes = (
(236,278,o),
(224,223,o),
(207,169,c),
(192,118,o),
(171,70,o),
(144,23,c),
(129,-2,o),
(113,-28,o),
(87,-44,c),
(80,-49,o),
(74,-53,o),
(66,-56,c),
(54,-62,o),
(45,-59,o),
(41,-52,c),
(35,-44,o),
(36,-37,o),
(44,-28,c),
(44,-26,o),
(45,-25,o),
(47,-25,c),
(78,4,o),
(98,40,o),
(114,79,c),
(137,133,o),
(152,187,o),
(161,244,c),
(174,326,o),
(170,409,o),
(144,488,c),
(134,521,o),
(120,553,o),
(102,580,c),
(99,584,o),
(98,587,o),
(96,590,c),
(90,604,o),
(92,617,o),
(102,626,c),
(111,635,o),
(126,637,o),
(140,629,c),
(159,617,o),
(171,598,o),
(182,578,c),
(200,547,o),
(212,514,o),
(221,479,c),
(227,457,o),
(228,433,o),
(233,409,c),
(236,385,o),
(237,359,o),
(236,335,c)
);
}
);
width = 273;
}
);
unicode = 41;
},
{
glyphname = braceleft;
lastChange = "2023-01-05 15:41:16 +0000";
layers = (
{
layerId = m01;
shapes = (
{
closed = 1;
nodes = (
(83,121,o),
(83,146,o),
(86,170,c),
(86,178,o),
(84,182,o),
(75,182,c),
(54,185,o),
(42,197,o),
(38,214,c),
(35,230,o),
(44,247,o),
(62,257,c),
(71,263,o),
(80,268,o),
(89,269,c),
(99,271,o),
(107,278,o),
(111,286,c),
(120,299,o),
(125,314,o),
(126,329,c),
(129,370,o),
(126,412,o),
(120,452,c),
(116,488,o),
(111,524,o),
(114,560,c),
(117,601,o),
(152,659,o),
(210,673,c),
(228,677,o),
(245,674,o),
(258,661,c),
(273,647,o),
(273,625,o),
(260,614,c),
(255,610,o),
(249,605,o),
(242,608,c),
(231,613,o),
(225,605,o),
(219,599,c),
(207,587,o),
(204,571,o),
(203,556,c),
(201,529,o),
(207,505,o),
(209,479,c),
(212,446,o),
(216,413,o),
(218,382,c),
(221,337,o),
(215,295,o),
(192,256,c),
(188,248,o),
(183,241,o),
(177,235,c),
(167,226,o),
(164,214,o),
(164,200,c),
(167,163,o),
(159,127,o),
(162,91,c),
(164,52,o),
(168,13,o),
(185,-23,c),
(188,-28,o),
(189,-31,o),
(192,-35,c),
(197,-43,o),
(200,-43,o),
(204,-37,c),
(209,-29,o),
(213,-20,o),
(218,-13,c),
(222,-8,o),
(225,-2,o),
(230,2,c),
(236,7,o),
(242,7,o),
(248,4,c),
(254,1,o),
(258,-7,o),
(255,-13,c),
(248,-38,o),
(242,-67,o),
(219,-85,c),
(195,-106,o),
(161,-106,o),
(138,-82,c),
(116,-58,o),
(101,-28,o),
(92,5,c),
(84,35,o),
(81,65,o),
(80,94,c)
);
}
);
width = 308;
}
);
unicode = 123;
},
{
glyphname = braceright;
lastChange = "2023-01-05 15:41:16 +0000";
layers = (
{
layerId = m01;
shapes = (
{
closed = 1;
nodes = (
(198,283,o),
(201,286,o),
(206,286,c),
(230,290,o),
(252,274,o),
(249,250,c),
(245,215,o),
(254,185,o),
(260,152,c),
(264,119,o),
(273,88,o),
(276,55,c),
(278,40,o),
(278,23,o),
(276,8,c),
(272,-40,o),
(236,-71,o),
(195,-80,c),
(165,-88,o),
(134,-86,o),
(104,-77,c),
(93,-73,o),
(83,-68,o),
(75,-59,c),
(65,-49,o),
(62,-35,o),
(69,-23,c),
(75,-11,o),
(84,-10,o),
(101,-11,c),
(134,-16,o),
(164,-5,o),
(188,16,c),
(203,28,o),
(203,47,o),
(203,65,c),
(201,91,o),
(197,115,o),
(191,139,c),
(186,155,o),
(182,172,o),
(177,190,c),
(176,197,o),
(173,202,o),
(164,203,c),
(134,208,o),
(117,230,o),
(108,257,c),
(98,289,o),
(98,322,o),
(99,355,c),
(102,406,o),
(108,455,o),
(114,506,c),
(116,523,o),
(117,539,o),
(119,556,c),
(119,569,o),
(117,571,o),
(102,568,c),
(95,566,o),
(86,565,o),
(77,566,c),
(59,566,o),
(44,578,o),
(39,595,c),
(35,611,o),
(41,629,o),
(57,638,c),
(86,653,o),
(116,662,o),
(149,658,c),
(179,653,o),
(195,634,o),
(204,607,c),
(213,581,o),
(213,556,o),
(210,529,c),
(206,475,o),
(200,419,o),
(194,365,c),
(191,338,o),
(192,311,o),
(194,286,c)
);
}
);
width = 315;
}
);
unicode = 125;
},
{
glyphname = bracketleft;
lastChange = "2023-01-05 15:41:16 +0000";
layers = (
{
layerId = m01;
shapes = (
{
closed = 1;
nodes = (
(42,340,o),
(41,412,o),
(39,485,c),
(38,520,o),
(36,554,o),
(45,589,c),
(50,604,o),
(56,617,o),
(65,629,c),
(90,662,o),
(147,658,o),
(168,623,c),
(173,616,o),
(174,608,o),
(170,601,c),
(165,593,o),
(158,593,o),
(150,595,c),
(117,599,o),
(117,598,o),
(120,566,c),
(123,536,o),
(126,505,o),
(126,475,c),
(128,362,o),
(128,250,o),
(128,137,c),
(128,98,o),
(123,61,o),
(122,22,c),
(122,7,o),
(123,5,o),
(138,7,c),
(149,8,o),
(161,8,o),
(171,13,c),
(180,17,o),
(191,17,o),
(200,8,c),
(206,1,o),
(207,-11,o),
(200,-22,c),
(176,-55,o),
(144,-74,o),
(105,-77,c),
(71,-80,o),
(44,-52,o),
(45,-17,c),
(48,49,o),
(47,113,o),
(45,179,c),
(45,208,o),
(44,238,o),
(44,256,c)
);
}
);
width = 242;
}
);
unicode = 91;
},
{
glyphname = bracketright;
lastChange = "2023-01-05 15:41:16 +0000";
layers = (
{
layerId = m01;
shapes = (
{
closed = 1;
nodes = (
(104,551,o),
(90,548,o),
(77,548,c),
(60,548,o),
(45,557,o),
(39,571,c),
(35,584,o),
(39,604,o),
(53,613,c),
(83,634,o),
(117,641,o),
(153,632,c),
(171,626,o),
(186,613,o),
(194,593,c),
(206,566,o),
(210,538,o),
(212,508,c),
(215,430,o),
(210,353,o),
(207,275,c),
(204,218,o),
(195,163,o),
(189,106,c),
(188,79,o),
(186,52,o),
(186,23,c),
(186,13,o),
(186,1,o),
(189,-10,c),
(198,-43,o),
(171,-68,o),
(138,-59,c),
(119,-55,o),
(101,-46,o),
(84,-35,c),
(83,-34,o),
(81,-34,o),
(80,-32,c),
(71,-25,o),
(66,-14,o),
(71,-7,c),
(75,2,o),
(84,5,o),
(93,5,c),
(99,5,o),
(105,4,o),
(110,2,c),
(117,1,o),
(120,4,o),
(120,11,c),
(122,35,o),
(123,58,o),
(125,80,c),
(128,154,o),
(128,227,o),
(128,301,c),
(128,374,o),
(128,448,o),
(123,521,c),
(123,532,o),
(122,544,o),
(117,556,c)
);
}
);
width = 251;
}
);
unicode = 93;
},
{
glyphname = quotesinglbase;
lastChange = "2023-01-05 15:41:16 +0000";
layers = (
{
layerId = m01;
shapes = (
{
closed = 1;
nodes = (
(101,118,o),
(116,100,o),
(111,76,c),
(107,56,o),
(104,37,o),
(99,17,c),
(98,10,o),
(96,1,o),
(99,-7,c),
(101,-17,o),
(98,-26,o),
(89,-32,c),
(80,-38,o),
(69,-37,o),
(60,-32,c),
(48,-25,o),
(42,-14,o),
(41,-2,c),
(35,29,o),
(38,61,o),
(44,91,c),
(48,109,o),
(63,119,o),
(78,119,c)
);
}
);
width = 150;
}
);
unicode = 8218;
},
{
glyphname = quotedblbase;
lastChange = "2023-01-05 15:41:16 +0000";
layers = (
{
layerId = m01;
shapes = (
{
closed = 1;
nodes = (
(108,8,o),
(113,47,o),
(126,85,c),
(129,94,o),
(132,103,o),
(140,109,c),
(149,118,o),
(159,122,o),
(171,116,c),
(183,112,o),
(189,101,o),
(189,89,c),
(189,79,o),
(186,70,o),
(183,61,c),
(167,25,o),
(155,-14,o),
(146,-53,c),
(143,-65,o),
(137,-71,o),
(128,-73,c),
(119,-73,o),
(111,-65,o),
(107,-55,c),
(107,-52,o),
(105,-49,o),
(105,-47,c),
(105,-41,o),
(105,-37,o),
(105,-32,c)
);
},
{
closed = 1;
nodes = (
(39,49,o),
(41,68,o),
(42,88,c),
(47,112,o),
(66,124,o),
(87,116,c),
(98,112,o),
(104,103,o),
(104,91,c),
(104,86,o),
(104,82,o),
(102,79,c),
(90,49,o),
(86,19,o),
(80,-11,c),
(77,-23,o),
(71,-29,o),
(62,-31,c),
(53,-31,o),
(41,-20,o),
(39,-10,c),
(36,4,o),
(38,17,o),
(38,35,c)
);
}
);
width = 227;
}
);
unicode = 8222;
},
{
glyphname = quotedblleft;
lastChange = "2023-01-05 15:41:16 +0000";
layers = (
{
layerId = m01;
shapes = (
{
closed = 1;
nodes = (
(108,650,o),
(114,689,o),
(126,727,c),
(129,736,o),
(132,745,o),
(140,752,c),
(149,760,o),
(159,764,o),
(171,758,c),
(183,754,o),
(189,745,o),
(189,731,c),
(191,722,o),
(186,713,o),
(183,704,c),
(167,667,o),
(155,629,o),
(146,590,c),
(143,577,o),
(137,571,o),
(128,571,c),
(119,571,o),
(111,577,o),
(107,589,c),
(107,590,o),
(105,593,o),
(105,596,c),
(105,601,o),
(105,605,o),
(105,611,c)
);
},
{
closed = 1;
nodes = (
(39,692,o),
(41,712,o),
(44,730,c),
(47,755,o),
(66,767,o),
(87,758,c),
(98,754,o),
(104,746,o),
(104,734,c),
(104,730,o),
(104,725,o),
(102,721,c),
(90,692,o),
(86,662,o),
(80,632,c),
(77,620,o),
(71,613,o),
(62,613,c),
(53,611,o),
(41,623,o),
(39,632,c),
(36,646,o),
(38,659,o),
(38,677,c)
);
}
);
width = 227;
}
);
unicode = 8220;
},
{
glyphname = quotedblright;
lastChange = "2023-01-05 15:41:16 +0000";
layers = (
{
layerId = m01;
shapes = (
{
closed = 1;
nodes = (
(108,650,o),
(114,689,o),
(126,727,c),
(129,736,o),
(132,745,o),
(140,752,c),
(149,760,o),
(159,764,o),
(171,758,c),
(183,754,o),
(189,745,o),
(189,731,c),
(191,722,o),
(186,713,o),
(183,704,c),
(167,667,o),
(155,629,o),
(146,590,c),
(143,577,o),
(137,571,o),
(128,571,c),
(119,571,o),
(111,577,o),
(107,589,c),
(107,590,o),
(105,593,o),
(105,596,c),
(105,601,o),
(105,605,o),
(105,611,c)
);
},
{
closed = 1;
nodes = (
(39,692,o),
(41,712,o),
(44,730,c),
(47,755,o),
(66,767,o),
(87,758,c),
(98,754,o),
(104,746,o),
(104,734,c),
(104,730,o),
(104,725,o),
(102,721,c),
(90,692,o),
(86,662,o),
(80,632,c),
(77,620,o),
(71,613,o),
(62,613,c),
(53,611,o),
(41,623,o),
(39,632,c),
(36,646,o),
(38,659,o),
(38,677,c)
);
}
);
width = 227;
}
);
unicode = 8221;
},
{
glyphname = quoteleft;
lastChange = "2023-01-05 15:41:16 +0000";
layers = (
{
layerId = m01;
shapes = (
{
closed = 1;
nodes = (
(101,761,o),
(116,742,o),
(111,718,c),
(107,698,o),
(104,680,o),
(99,661,c),
(98,652,o),
(96,644,o),
(99,635,c),
(101,625,o),
(98,616,o),
(89,610,c),
(80,604,o),
(69,605,o),
(60,611,c),
(50,617,o),
(42,628,o),
(41,640,c),
(35,671,o),
(38,703,o),
(45,734,c),
(48,751,o),
(63,761,o),
(80,761,c)
);
}
);
width = 150;
}
);
unicode = 8216;
},
{
glyphname = quoteright;
lastChange = "2023-01-05 15:41:16 +0000";
layers = (
{
layerId = m01;
shapes = (
{
closed = 1;
nodes = (
(101,761,o),
(116,742,o),
(111,718,c),
(107,698,o),
(104,680,o),
(99,661,c),
(98,652,o),
(96,644,o),
(99,635,c),
(101,625,o),
(98,616,o),
(89,610,c),
(80,604,o),
(69,605,o),
(60,611,c),
(50,617,o),
(42,628,o),
(41,640,c),
(35,671,o),
(38,703,o),
(45,734,c),
(48,751,o),
(63,761,o),
(80,761,c)
);
}
);
width = 150;
}
);
unicode = 8217;
},
{
glyphname = guillemetleft;
lastChange = "2023-01-05 15:41:16 +0000";
layers = (
{
layerId = m01;
shapes = (
{
closed = 1;
nodes = (
(402,239,o),
(416,230,o),
(431,221,c),
(458,205,o),
(485,187,o),
(509,164,c),
(534,140,o),
(560,118,o),
(593,104,c),
(605,100,o),
(608,86,o),
(599,76,c),
(591,65,o),
(579,62,o),
(567,65,c),
(554,67,o),
(542,71,o),
(530,76,c),
(498,88,o),
(465,97,o),
(435,110,c),
(413,121,o),
(392,136,o),
(371,148,c),
(347,161,o),
(323,176,o),
(299,190,c),
(260,211,o),
(258,254,o),
(291,281,c),
(345,326,o),
(401,371,o),
(449,424,c),
(467,443,o),
(486,461,o),
(506,481,c),
(513,488,o),
(522,496,o),
(533,502,c),
(545,509,o),
(561,509,o),
(572,500,c),
(584,491,o),
(588,478,o),
(582,463,c),
(575,442,o),
(560,424,o),
(546,406,c),
(500,347,o),
(444,299,o),
(386,248,c)
);
},
{
closed = 1;
nodes = (
(173,239,o),
(186,230,o),
(201,221,c),
(228,205,o),
(255,187,o),
(279,164,c),
(305,140,o),
(330,118,o),
(363,104,c),
(375,100,o),
(378,86,o),
(369,76,c),
(362,65,o),
(350,62,o),
(338,65,c),
(324,67,o),
(312,71,o),
(300,76,c),
(269,88,o),
(236,97,o),
(206,110,c),
(183,121,o),
(162,136,o),
(141,148,c),
(117,161,o),
(93,176,o),
(69,190,c),
(30,211,o),
(29,254,o),
(62,281,c),
(116,326,o),
(171,371,o),
(219,424,c),
(237,443,o),
(257,461,o),
(276,481,c),
(284,488,o),
(293,496,o),
(303,502,c),
(315,509,o),
(332,509,o),
(342,500,c),
(354,491,o),
(359,478,o),
(353,463,c),
(345,442,o),
(330,424,o),
(317,406,c),
(270,347,o),
(215,299,o),
(156,248,c)
);
}
);
width = 641;
}
);
unicode = 171;
},
{
glyphname = guillemetright;
lastChange = "2023-01-05 15:41:16 +0000";
layers = (
{
layerId = m01;
shapes = (
{
closed = 1;
nodes = (
(263,301,o),
(249,308,o),
(234,314,c),
(179,338,o),
(126,370,o),
(75,403,c),
(63,412,o),
(53,422,o),
(44,436,c),
(33,454,o),
(39,479,o),
(54,491,c),
(68,502,o),
(90,503,o),
(107,490,c),
(129,470,o),
(156,457,o),
(183,445,c),
(240,418,o),
(291,383,o),
(342,347,c),
(375,323,o),
(381,293,o),
(357,260,c),
(341,238,o),
(323,220,o),
(302,205,c),
(252,167,o),
(197,137,o),
(144,106,c),
(132,98,o),
(119,89,o),
(107,82,c),
(102,79,o),
(96,77,o),
(92,74,c),
(84,70,o),
(78,73,o),
(72,77,c),
(68,83,o),
(68,91,o),
(72,97,c),
(75,103,o),
(80,109,o),
(84,113,c),
(101,128,o),
(117,143,o),
(135,157,c),
(182,194,o),
(225,233,o),
(266,277,c),
(270,281,o),
(275,286,o),
(281,293,c)
);
},
{
closed = 1;
nodes = (
(531,301,o),
(516,308,o),
(503,314,c),
(446,338,o),
(395,370,o),
(344,403,c),
(330,412,o),
(320,422,o),
(312,436,c),
(300,454,o),
(308,479,o),
(323,491,c),
(336,502,o),
(359,503,o),
(374,490,c),
(398,470,o),
(425,457,o),
(452,445,c),
(507,418,o),
(560,383,o),
(609,347,c),
(644,323,o),
(648,293,o),
(624,260,c),
(609,238,o),
(591,220,o),
(570,205,c),
(521,167,o),
(465,137,o),
(413,106,c),
(399,98,o),
(387,89,o),
(374,82,c),
(369,79,o),
(365,77,o),
(359,74,c),
(351,70,o),
(345,73,o),
(341,77,c),
(335,83,o),
(335,91,o),
(339,97,c),
(344,103,o),
(347,109,o),
(353,113,c),
(369,128,o),
(386,143,o),
(404,157,c),
(449,194,o),
(494,233,o),
(534,277,c),
(539,281,o),
(542,286,o),
(548,293,c)
);
}
);
width = 677;
}
);
unicode = 187;
},
{
glyphname = guilsinglleft;
lastChange = "2023-01-05 15:41:16 +0000";
layers = (
{
layerId = m01;
shapes = (
{
closed = 1;
nodes = (
(173,239,o),
(186,230,o),
(200,221,c),
(228,205,o),
(255,187,o),
(279,164,c),
(303,140,o),
(330,118,o),
(363,104,c),
(375,100,o),
(378,86,o),
(369,76,c),
(362,65,o),
(350,62,o),
(338,65,c),
(324,67,o),
(312,71,o),
(300,76,c),
(269,88,o),
(236,97,o),
(206,110,c),
(182,121,o),
(162,136,o),
(141,148,c),
(117,161,o),
(93,176,o),
(69,190,c),
(30,211,o),
(29,254,o),
(62,281,c),
(116,326,o),
(170,371,o),
(219,424,c),
(237,443,o),
(257,461,o),
(276,481,c),
(284,488,o),
(293,496,o),
(303,502,c),
(315,509,o),
(332,509,o),
(342,500,c),
(354,491,o),
(359,478,o),
(353,463,c),
(344,442,o),
(330,424,o),
(317,406,c),
(270,347,o),
(215,299,o),
(156,248,c)
);
}
);
width = 411;
}
);
unicode = 8249;
},
{
glyphname = guilsinglright;
lastChange = "2023-01-05 15:41:16 +0000";
layers = (
{
layerId = m01;
shapes = (
{
closed = 1;
nodes = (
(263,301,o),
(249,308,o),
(234,314,c),
(179,338,o),
(126,370,o),
(75,403,c),
(63,412,o),
(53,422,o),
(44,436,c),
(33,454,o),
(39,479,o),
(54,491,c),
(68,502,o),
(90,503,o),
(105,490,c),
(129,470,o),
(156,457,o),
(183,445,c),
(240,418,o),
(291,383,o),
(342,347,c),
(375,323,o),
(381,293,o),
(357,260,c),
(341,238,o),
(323,220,o),
(302,205,c),
(252,167,o),
(197,137,o),
(144,106,c),
(132,98,o),
(119,89,o),
(107,82,c),
(102,79,o),
(96,77,o),
(92,74,c),
(84,70,o),
(78,73,o),
(72,77,c),
(66,83,o),
(68,91,o),
(72,97,c),
(75,103,o),
(80,109,o),
(84,113,c),
(101,128,o),
(117,143,o),
(135,157,c),
(182,194,o),
(225,233,o),
(266,277,c),
(270,281,o),
(275,286,o),
(279,293,c)
);
}
);
width = 410;
}
);
unicode = 8250;
},
{
glyphname = quotedbl;
lastChange = "2023-01-05 15:41:16 +0000";
layers = (
{
layerId = m01;
shapes = (
{
closed = 1;
nodes = (
(108,650,o),
(114,689,o),
(126,727,c),
(129,736,o),
(132,745,o),
(140,752,c),
(149,760,o),
(159,764,o),
(171,758,c),
(183,754,o),
(189,745,o),
(189,731,c),
(191,722,o),
(186,713,o),
(183,704,c),
(167,667,o),
(155,629,o),
(146,590,c),
(143,577,o),
(137,571,o),
(128,571,c),
(119,571,o),
(111,577,o),
(107,589,c),
(107,590,o),
(105,593,o),
(105,596,c),
(105,601,o),
(105,605,o),
(105,611,c)
);
},
{
closed = 1;
nodes = (
(39,692,o),
(41,712,o),
(44,730,c),
(47,755,o),
(66,767,o),
(87,758,c),
(98,754,o),
(104,746,o),
(104,734,c),
(104,730,o),
(104,725,o),
(102,721,c),
(90,692,o),
(86,662,o),
(80,632,c),
(77,620,o),
(71,613,o),
(62,613,c),
(53,611,o),
(41,623,o),
(39,632,c),
(36,646,o),
(38,659,o),
(38,677,c)
);
}
);
width = 227;
}
);
unicode = 34;
},
{
glyphname = quotesingle;
lastChange = "2023-01-05 15:41:16 +0000";
layers = (
{
layerId = m01;
shapes = (
{
closed = 1;
nodes = (
(101,761,o),
(116,742,o),
(111,718,c),
(107,698,o),
(104,680,o),
(99,661,c),
(98,652,o),
(96,644,o),
(99,635,c),
(101,625,o),
(98,616,o),
(89,610,c),
(80,604,o),
(69,605,o),
(60,611,c),
(50,617,o),
(42,628,o),
(41,640,c),
(35,671,o),
(38,703,o),
(45,734,c),
(48,751,o),
(63,761,o),
(80,761,c)
);
}
);
width = 150;
}
);
unicode = 39;
},
{
glyphname = at;
lastChange = "2023-01-05 15:41:16 +0000";
layers = (
{
layerId = m01;
shapes = (
{
closed = 1;
nodes = (
(359,203,o),
(362,202,o),
(363,203,c),
(398,220,o),
(417,250,o),
(432,284,c),
(435,292,o),
(432,293,o),
(423,292,c),
(384,287,o),
(351,244,o),
(356,202,c)
);
},
{
closed = 1;
nodes = (
(447,163,o),
(435,148,o),
(420,136,c),
(402,121,o),
(383,109,o),
(357,106,c),
(315,101,o),
(281,124,o),
(266,163,c),
(257,190,o),
(257,217,o),
(264,242,c),
(281,293,o),
(311,332,o),
(357,358,c),
(386,371,o),
(414,377,o),
(446,368,c),
(456,365,o),
(467,361,o),
(476,353,c),
(488,346,o),
(498,335,o),
(510,326,c),
(522,319,o),
(528,304,o),
(531,290,c),
(534,275,o),
(536,260,o),
(539,245,c),
(540,241,o),
(540,235,o),
(542,230,c),
(545,223,o),
(545,212,o),
(552,211,c),
(561,209,o),
(567,220,o),
(572,226,c),
(587,250,o),
(594,274,o),
(591,301,c),
(587,353,o),
(566,397,o),
(525,431,c),
(498,452,o),
(467,461,o),
(432,461,c),
(350,463,o),
(278,436,o),
(219,377,c),
(162,319,o),
(132,247,o),
(129,164,c),
(128,121,o),
(138,79,o),
(165,43,c),
(185,17,o),
(210,4,o),
(243,4,c),
(291,5,o),
(335,16,o),
(371,50,c),
(384,62,o),
(401,74,o),
(414,86,c),
(423,94,o),
(432,95,o),
(441,91,c),
(450,85,o),
(452,76,o),
(450,65,c),
(446,47,o),
(437,29,o),
(426,14,c),
(413,-4,o),
(395,-17,o),
(377,-29,c),
(338,-55,o),
(296,-73,o),
(249,-77,c),
(191,-82,o),
(141,-65,o),
(102,-22,c),
(62,23,o),
(41,77,o),
(38,137,c),
(36,197,o),
(48,253,o),
(72,307,c),
(120,416,o),
(197,494,o),
(312,532,c),
(372,551,o),
(434,557,o),
(495,541,c),
(537,529,o),
(575,509,o),
(605,476,c),
(653,424,o),
(678,362,o),
(680,292,c),
(681,259,o),
(669,227,o),
(653,197,c),
(642,175,o),
(626,155,o),
(608,137,c),
(579,109,o),
(518,98,o),
(480,148,c),
(473,157,o),
(467,166,o),
(459,178,c)
);
}
);
width = 717;
}
);
unicode = 64;
},
{
glyphname = ampersand;
lastChange = "2023-01-05 15:41:16 +0000";
layers = (
{
layerId = m01;
shapes = (
{
closed = 1;
nodes = (
(266,340,o),
(267,344,o),
(269,350,c),
(278,374,o),
(285,398,o),
(287,424,c),
(290,446,o),
(291,469,o),
(282,490,c),
(279,497,o),
(279,506,o),
(269,509,c),
(248,452,o),
(249,395,o),
(258,335,c)
);
},
{
closed = 1;
nodes = (
(138,5,o),
(140,4,o),
(140,2,c),
(192,26,o),
(242,52,o),
(291,83,c),
(272,107,o),
(258,131,o),
(242,160,c),
(206,107,o),
(171,56,o),
(137,7,c)
);
},
{
closed = 1;
nodes = (
(366,416,o),
(356,382,o),
(344,346,c),
(330,311,o),
(314,277,o),
(294,245,c),
(288,235,o),
(287,226,o),
(291,217,c),
(305,187,o),
(323,160,o),
(341,134,c),
(347,127,o),
(350,125,o),
(356,133,c),
(363,140,o),
(369,149,o),
(374,158,c),
(377,166,o),
(377,172,o),
(374,178,c),
(368,187,o),
(368,196,o),
(375,203,c),
(383,211,o),
(392,209,o),
(401,205,c),
(420,197,o),
(428,184,o),
(429,164,c),
(432,139,o),
(423,118,o),
(411,97,c),
(410,92,o),
(407,88,o),
(404,83,c),
(399,77,o),
(399,73,o),
(405,70,c),
(422,58,o),
(437,47,o),
(452,35,c),
(459,31,o),
(465,26,o),
(471,19,c),
(482,2,o),
(473,-19,o),
(453,-22,c),
(432,-23,o),
(414,-16,o),
(396,-7,c),
(381,1,o),
(368,10,o),
(354,22,c),
(347,28,o),
(341,28,o),
(333,22,c),
(290,-11,o),
(242,-37,o),
(194,-61,c),
(168,-74,o),
(141,-85,o),
(114,-91,c),
(104,-94,o),
(93,-94,o),
(84,-94,c),
(50,-91,o),
(30,-64,o),
(41,-31,c),
(45,-19,o),
(51,-8,o),
(59,2,c),
(77,28,o),
(96,52,o),
(113,77,c),
(147,124,o),
(180,172,o),
(207,224,c),
(210,229,o),
(212,233,o),
(210,241,c),
(189,308,o),
(180,377,o),
(183,448,c),
(183,481,o),
(189,514,o),
(203,544,c),
(230,602,o),
(287,608,o),
(326,568,c),
(354,536,o),
(365,497,o),
(366,455,c)
);
}
);
width = 513;
}
);
unicode = 38;
},
{
glyphname = paragraph;
lastChange = "2023-01-05 15:41:16 +0000";
layers = (
{
layerId = m01;
shapes = (
{
closed = 1;
nodes = (
(339,652,o),
(342,629,o),
(344,607,c),
(345,557,o),
(347,508,o),
(345,458,c),
(345,380,o),
(342,304,o),
(338,226,c),
(332,157,o),
(326,86,o),
(317,17,c),
(315,4,o),
(314,-10,o),
(308,-23,c),
(300,-43,o),
(284,-55,o),
(266,-53,c),
(246,-52,o),
(230,-38,o),
(225,-17,c),
(224,-7,o),
(224,4,o),
(224,16,c),
(228,67,o),
(234,119,o),
(239,172,c),
(242,197,o),
(243,223,o),
(242,248,c),
(242,257,o),
(240,262,o),
(230,263,c),
(198,266,o),
(170,280,o),
(144,298,c),
(131,305,o),
(120,316,o),
(111,326,c),
(57,392,o),
(36,469,o),
(38,551,c),
(38,592,o),
(51,629,o),
(75,662,c),
(119,715,o),
(183,715,o),
(227,667,c),
(233,659,o),
(239,652,o),
(245,644,c),
(245,644,o),
(246,646,o),
(248,646,c),
(248,652,o),
(248,658,o),
(246,664,c),
(243,676,o),
(246,688,o),
(249,698,c),
(260,730,o),
(296,737,o),
(318,713,c),
(329,703,o),
(333,688,o),
(336,673,c)
);
},
{
closed = 1;
nodes = (
(522,557,o),
(522,508,o),
(522,458,c),
(521,380,o),
(519,304,o),
(513,226,c),
(509,157,o),
(501,86,o),
(492,17,c),
(491,4,o),
(489,-10,o),
(485,-23,c),
(477,-43,o),
(459,-55,o),
(441,-53,c),
(423,-52,o),
(407,-38,o),
(402,-17,c),
(399,-7,o),
(399,4,o),
(401,16,c),
(404,67,o),
(410,119,o),
(414,172,c),
(417,197,o),
(419,223,o),
(419,248,c),
(429,341,o),
(423,646,o),
(425,646,c),
(423,652,o),
(423,658,o),
(422,664,c),
(419,676,o),
(422,688,o),
(426,698,c),
(437,730,o),
(471,737,o),
(494,713,c),
(506,703,o),
(510,688,o),
(512,673,c),
(515,652,o),
(519,629,o),
(519,607,c)
);
}
);
width = 560;
}
);
unicode = 182;
},
{
glyphname = section;
lastChange = "2023-01-05 15:41:16 +0000";
layers = (
{
layerId = m01;
shapes = (
{
closed = 1;
nodes = (
(225,347,o),
(254,329,o),
(276,307,c),
(285,311,o),
(293,316,o),
(300,319,c),
(305,322,o),
(309,325,o),
(314,331,c),
(303,334,o),
(296,337,o),
(287,340,c),
(252,353,o),
(224,371,o),
(201,394,c),
(194,389,o),
(186,385,o),
(179,380,c),
(174,379,o),
(168,376,o),
(165,370,c),
(174,365,o),
(183,362,o),
(192,359,c)
);
},
{
closed = 1;
nodes = (
(429,394,o),
(446,364,o),
(438,332,c),
(434,317,o),
(426,302,o),
(416,292,c),
(390,265,o),
(359,244,o),
(327,226,c),
(333,208,o),
(336,187,o),
(338,164,c),
(342,103,o),
(320,50,o),
(267,13,c),
(236,-10,o),
(201,-17,o),
(165,2,c),
(152,8,o),
(141,17,o),
(134,29,c),
(96,82,o),
(92,139,o),
(114,199,c),
(120,214,o),
(135,223,o),
(150,220,c),
(164,217,o),
(174,205,o),
(174,188,c),
(176,170,o),
(173,152,o),
(176,134,c),
(179,119,o),
(182,106,o),
(192,94,c),
(200,83,o),
(204,83,o),
(215,91,c),
(231,104,o),
(240,122,o),
(243,143,c),
(251,190,o),
(221,241,o),
(183,260,c),
(161,272,o),
(137,280,o),
(113,284,c),
(101,287,o),
(89,290,o),
(78,295,c),
(48,307,o),
(32,337,o),
(39,368,c),
(44,383,o),
(51,397,o),
(63,409,c),
(89,436,o),
(119,455,o),
(152,473,c),
(146,493,o),
(141,512,o),
(140,535,c),
(135,596,o),
(158,650,o),
(210,686,c),
(242,709,o),
(276,718,o),
(314,698,c),
(326,692,o),
(336,683,o),
(345,671,c),
(381,617,o),
(386,560,o),
(363,502,c),
(359,487,o),
(342,478,o),
(329,481,c),
(314,482,o),
(305,494,o),
(303,512,c),
(303,530,o),
(305,548,o),
(302,566,c),
(300,580,o),
(296,595,o),
(287,607,c),
(279,616,o),
(273,617,o),
(264,610,c),
(248,596,o),
(237,578,o),
(234,557,c),
(227,511,o),
(257,460,o),
(294,440,c),
(317,428,o),
(341,421,o),
(365,415,c),
(377,413,o),
(389,409,o),
(401,406,c)
);
}
);
width = 477;
}
);
unicode = 167;
},
{
glyphname = copyright;
lastChange = "2023-01-05 15:41:16 +0000";
layers = (
{
layerId = m01;
shapes = (
{
closed = 1;
nodes = (
(267,71,o),
(383,134,o),
(383,265,c),
(383,440,o),
(273,473,o),
(215,470,c),
(203,470,o),
(195,466,o),
(191,455,c),
(140,425,o),
(117,326,o),
(119,262,c),
(120,214,o),
(132,71,o),
(231,71,c)
);
},
{
closed = 1;
nodes = (
(452,325,o),
(455,308,o),
(455,293,c),
(455,208,o),
(417,136,o),
(356,71,c),
(336,50,o),
(314,32,o),
(287,19,c),
(233,-8,o),
(170,-2,o),
(126,32,c),
(105,47,o),
(90,65,o),
(80,85,c),
(59,121,o),
(48,157,o),
(42,196,c),
(30,281,o),
(45,365,o),
(86,445,c),
(99,473,o),
(117,499,o),
(146,520,c),
(167,535,o),
(191,545,o),
(221,535,c),
(227,532,o),
(236,533,o),
(243,533,c),
(321,535,o),
(378,506,o),
(413,451,c),
(434,416,o),
(444,379,o),
(450,340,c)
);
},
{
closed = 1;
nodes = (
(324,229,o),
(329,224,o),
(329,215,c),
(330,193,o),
(320,176,o),
(305,161,c),
(287,142,o),
(264,131,o),
(240,127,c),
(218,124,o),
(198,130,o),
(183,145,c),
(162,164,o),
(153,188,o),
(149,215,c),
(147,226,o),
(144,238,o),
(146,248,c),
(144,296,o),
(162,338,o),
(191,374,c),
(204,392,o),
(224,406,o),
(245,413,c),
(264,419,o),
(284,416,o),
(300,406,c),
(308,401,o),
(314,394,o),
(317,385,c),
(321,361,o),
(305,341,o),
(281,347,c),
(267,352,o),
(260,347,o),
(251,337,c),
(219,302,o),
(207,263,o),
(219,217,c),
(225,190,o),
(240,184,o),
(266,196,c),
(276,200,o),
(284,208,o),
(290,217,c),
(293,220,o),
(294,224,o),
(299,227,c),
(303,232,o),
(309,235,o),
(317,232,c)
);
}
);
width = 492;
}
);
unicode = 169;
},
{
glyphname = registered;
lastChange = "2023-01-05 15:41:16 +0000";
layers = (
{
layerId = m01;
shapes = (
{
closed = 1;
nodes = (
(369,467,o),
(383,502,o),
(383,545,c),
(383,719,o),
(273,752,o),
(215,751,c),
(201,749,o),
(194,746,o),
(189,734,c),
(138,704,o),
(117,605,o),
(117,542,c),
(119,494,o),
(131,350,o),
(230,350,c),
(248,350,o),
(287,367,o),
(321,400,c),
(320,400,o),
(320,400,o),
(320,400,c),
(317,400,o),
(314,400,o),
(312,400,c),
(305,401,o),
(299,404,o),
(294,407,c),
(282,416,o),
(270,424,o),
(258,430,c),
(245,436,o),
(233,440,o),
(221,445,c),
(222,440,o),
(222,436,o),
(222,431,c),
(222,427,o),
(222,422,o),
(224,418,c),
(225,397,o),
(212,389,o),
(204,388,c),
(201,386,o),
(198,386,o),
(195,386,c),
(185,386,o),
(176,391,o),
(170,400,c),
(164,410,o),
(161,421,o),
(159,430,c),
(156,449,o),
(153,466,o),
(152,482,c),
(149,500,o),
(147,518,o),
(147,541,c),
(146,568,o),
(146,596,o),
(146,623,c),
(146,634,o),
(147,643,o),
(149,655,c),
(150,668,o),
(158,680,o),
(170,685,c),
(191,703,o),
(213,709,o),
(230,713,c),
(236,715,o),
(243,715,o),
(249,715,c),
(276,715,o),
(302,701,o),
(318,677,c),
(327,662,o),
(332,644,o),
(332,623,c),
(332,605,o),
(327,586,o),
(317,565,c),
(306,542,o),
(291,521,o),
(270,500,c),
(282,496,o),
(294,490,o),
(305,484,c),
(314,479,o),
(323,473,o),
(333,466,c),
(338,463,o),
(344,458,o),
(347,451,c),
(350,446,o),
(351,442,o),
(353,439,c)
);
},
{
closed = 1;
nodes = (
(215,629,o),
(215,623,o),
(215,617,c),
(215,595,o),
(216,571,o),
(216,548,c),
(216,545,l),
(221,548,o),
(224,553,o),
(227,556,c),
(239,569,o),
(248,581,o),
(254,593,c),
(261,608,o),
(263,620,o),
(261,631,c),
(261,634,o),
(260,643,o),
(251,644,c),
(249,646,o),
(246,646,o),
(245,646,c),
(243,646,o),
(242,646,o),
(240,646,c),
(231,643,o),
(224,640,o),
(215,637,c)
);
},
{
closed = 1;
nodes = (
(450,604,o),
(455,587,o),
(453,574,c),
(453,487,o),
(416,415,o),
(354,350,c),
(335,329,o),
(312,311,o),
(285,298,c),
(231,272,o),
(168,278,o),
(125,311,c),
(105,326,o),
(89,344,o),
(78,365,c),
(57,400,o),
(47,437,o),
(41,475,c),
(30,560,o),
(44,644,o),
(84,725,c),
(98,752,o),
(116,778,o),
(144,799,c),
(165,815,o),
(189,826,o),
(219,814,c),
(225,811,o),
(234,812,o),
(242,812,c),
(320,814,o),
(377,785,o),
(411,730,c),
(432,695,o),
(444,658,o),
(449,620,c)
);
}
);
width = 491;
}
);
unicode = 174;
},
{
glyphname = trademark;
lastChange = "2023-01-05 15:41:16 +0000";
layers = (
{
layerId = m01;
shapes = (
{
closed = 1;
nodes = (
(558,677,o),
(558,631,o),
(554,584,c),
(552,560,o),
(551,536,o),
(549,512,c),
(548,506,o),
(548,499,o),
(546,493,c),
(543,485,o),
(537,481,o),
(528,481,c),
(519,481,o),
(515,485,o),
(512,494,c),
(509,503,o),
(507,512,o),
(504,521,c),
(495,554,o),
(486,587,o),
(477,622,c),
(467,601,o),
(455,583,o),
(431,580,c),
(408,578,o),
(393,590,o),
(375,604,c),
(369,581,o),
(371,562,o),
(374,541,c),
(374,536,o),
(377,533,o),
(378,530,c),
(384,521,o),
(381,502,o),
(374,494,c),
(368,487,o),
(357,487,o),
(348,494,c),
(342,500,o),
(339,508,o),
(336,517,c),
(318,574,o),
(305,634,o),
(308,695,c),
(308,700,o),
(308,703,o),
(309,707,c),
(311,721,o),
(314,736,o),
(330,740,c),
(345,746,o),
(362,743,o),
(375,733,c),
(383,725,o),
(390,716,o),
(396,706,c),
(405,686,o),
(417,668,o),
(431,649,c),
(444,674,o),
(461,694,o),
(467,721,c),
(468,727,o),
(470,733,o),
(473,739,c),
(483,764,o),
(515,769,o),
(531,746,c),
(537,739,o),
(540,730,o),
(543,722,c)
);
},
{
closed = 1;
nodes = (
(294,742,o),
(297,736,o),
(297,728,c),
(299,715,o),
(288,706,o),
(276,712,c),
(251,722,o),
(228,712,o),
(204,707,c),
(198,706,o),
(198,703,o),
(197,697,c),
(194,656,o),
(189,614,o),
(189,574,c),
(189,557,o),
(191,542,o),
(195,529,c),
(198,521,o),
(200,515,o),
(192,509,c),
(185,505,o),
(176,506,o),
(170,512,c),
(164,518,o),
(161,524,o),
(158,532,c),
(150,566,o),
(147,601,o),
(146,637,c),
(146,653,o),
(144,670,o),
(144,688,c),
(125,683,o),
(108,679,o),
(92,674,c),
(86,673,o),
(78,671,o),
(72,673,c),
(56,674,o),
(42,683,o),
(39,697,c),
(36,712,o),
(42,725,o),
(56,734,c),
(71,743,o),
(86,748,o),
(101,751,c),
(152,760,o),
(201,761,o),
(252,760,c),
(266,760,o),
(276,755,o),
(287,748,c)
);
}
);
width = 594;
}
);
unicode = 8482;
},
{
glyphname = degree;
lastChange = "2023-01-05 15:41:16 +0000";
layers = (
{
layerId = m01;
shapes = (
{
closed = 1;
nodes = (
(99,565,o),
(99,557,o),
(104,551,c),
(107,545,o),
(110,542,o),
(117,542,c),
(128,544,o),
(137,551,o),
(143,560,c),
(147,571,o),
(150,581,o),
(144,592,c),
(138,599,o),
(129,607,o),
(122,611,c),
(116,616,o),
(111,614,o),
(110,608,c),
(104,596,o),
(99,584,o),
(99,572,c)
);
},
{
closed = 1;
nodes = (
(36,596,o),
(47,620,o),
(66,638,c),
(81,653,o),
(98,659,o),
(119,649,c),
(132,643,o),
(147,640,o),
(159,632,c),
(195,605,o),
(201,574,o),
(176,538,c),
(164,518,o),
(146,503,o),
(123,496,c),
(84,484,o),
(45,509,o),
(38,551,c),
(38,557,o),
(38,563,o),
(38,568,c)
);
}
);
width = 228;
}
);
unicode = 176;
},
{
glyphname = bar;
lastChange = "2023-01-05 15:41:16 +0000";
layers = (
{
layerId = m01;
shapes = (
{
closed = 1;
nodes = (
(114,164,o),
(110,88,o),
(110,11,c),
(110,-4,o),
(110,-19,o),
(114,-34,c),
(116,-44,o),
(114,-53,o),
(105,-59,c),
(96,-65,o),
(86,-65,o),
(77,-58,c),
(62,-46,o),
(57,-31,o),
(54,-14,c),
(50,8,o),
(48,32,o),
(47,55,c),
(44,169,o),
(41,283,o),
(38,397,c),
(36,436,o),
(39,476,o),
(47,517,c),
(48,527,o),
(51,538,o),
(56,547,c),
(63,562,o),
(77,569,o),
(90,566,c),
(105,565,o),
(114,554,o),
(117,541,c),
(120,527,o),
(122,515,o),
(122,502,c),
(128,442,o),
(125,380,o),
(122,320,c),
(120,293,o),
(119,268,o),
(117,242,c)
);
}
);
width = 162;
}
);
unicode = 124;
},
{
glyphname = cent;
lastChange = "2023-01-05 15:41:16 +0000";
layers = (
{
layerId = m01;
shapes = (
{
closed = 1;
nodes = (
(141,233,o),
(137,280,o),
(134,328,c),
(104,296,o),
(117,217,o),
(144,187,c)
);
},
{
closed = 1;
nodes = (
(197,178,o),
(204,184,o),
(212,193,c),
(225,208,o),
(240,220,o),
(252,236,c),
(258,242,o),
(264,242,o),
(272,241,c),
(279,238,o),
(285,232,o),
(284,224,c),
(279,205,o),
(278,187,o),
(267,170,c),
(248,142,o),
(227,116,o),
(194,104,c),
(188,101,o),
(186,98,o),
(186,92,c),
(188,80,o),
(188,68,o),
(189,56,c),
(189,49,o),
(189,41,o),
(180,40,c),
(173,38,o),
(168,43,o),
(165,50,c),
(159,62,o),
(158,76,o),
(156,88,c),
(155,94,o),
(153,98,o),
(147,100,c),
(113,106,o),
(90,128,o),
(72,154,c),
(39,202,o),
(30,254,o),
(42,310,c),
(45,325,o),
(54,340,o),
(63,355,c),
(78,380,o),
(99,403,o),
(125,418,c),
(132,422,o),
(135,427,o),
(135,434,c),
(135,455,o),
(138,475,o),
(140,496,c),
(141,503,o),
(144,508,o),
(147,514,c),
(158,529,o),
(176,526,o),
(182,509,c),
(186,499,o),
(186,487,o),
(188,475,c),
(189,466,o),
(189,458,o),
(189,449,c),
(189,442,o),
(194,437,o),
(201,437,c),
(218,436,o),
(234,428,o),
(248,416,c),
(260,406,o),
(266,392,o),
(266,376,c),
(264,361,o),
(254,353,o),
(242,364,c),
(233,374,o),
(219,380,o),
(204,379,c),
(194,379,o),
(192,379,o),
(191,367,c),
(189,314,o),
(185,262,o),
(185,209,c),
(186,197,o),
(183,185,o),
(186,172,c)
);
}
);
width = 321;
}
);
unicode = 162;
},
{
glyphname = dollar;
lastChange = "2023-01-05 15:41:16 +0000";
layers = (
{
layerId = m01;
shapes = (
{
closed = 1;
nodes = (
(132,314,o),
(129,307,o),
(123,304,c),
(129,298,o),
(134,295,o),
(143,295,c),
(140,302,o),
(144,310,o),
(140,316,c)
);
},
{
closed = 1;
nodes = (
(213,191,o),
(206,193,o),
(198,194,c),
(195,196,o),
(192,194,o),
(192,190,c),
(192,187,o),
(192,182,o),
(195,179,c),
(203,182,o),
(212,185,o),
(222,190,c)
);
},
{
closed = 1;
nodes = (
(200,311,o),
(198,299,o),
(197,287,c),
(195,272,o),
(195,272,o),
(210,268,c),
(234,263,o),
(257,257,o),
(281,253,c),
(288,250,o),
(297,248,o),
(306,244,c),
(338,229,o),
(348,193,o),
(329,164,c),
(309,136,o),
(282,122,o),
(251,116,c),
(237,113,o),
(222,110,o),
(207,110,c),
(195,110,o),
(195,109,o),
(195,97,c),
(197,85,o),
(197,74,o),
(201,62,c),
(204,53,o),
(200,44,o),
(191,43,c),
(185,40,o),
(177,44,o),
(173,53,c),
(167,65,o),
(165,80,o),
(162,94,c),
(159,107,o),
(159,107,o),
(144,109,c),
(119,109,o),
(95,109,o),
(69,115,c),
(50,119,o),
(38,134,o),
(39,152,c),
(41,170,o),
(56,179,o),
(72,169,c),
(77,166,o),
(81,164,o),
(87,164,c),
(105,164,o),
(122,167,o),
(140,169,c),
(147,169,o),
(150,172,o),
(149,179,c),
(149,181,o),
(147,182,o),
(147,184,c),
(149,199,o),
(143,206,o),
(128,211,c),
(105,217,o),
(84,227,o),
(66,242,c),
(35,269,o),
(29,305,o),
(48,340,c),
(56,353,o),
(66,364,o),
(77,373,c),
(93,386,o),
(111,398,o),
(131,407,c),
(140,412,o),
(146,418,o),
(146,430,c),
(147,451,o),
(150,473,o),
(155,494,c),
(156,500,o),
(158,506,o),
(162,511,c),
(173,526,o),
(191,524,o),
(198,509,c),
(204,499,o),
(204,487,o),
(206,476,c),
(206,466,o),
(206,457,o),
(206,446,c),
(206,439,o),
(206,434,o),
(216,436,c),
(225,436,o),
(234,434,o),
(243,431,c),
(276,419,o),
(294,389,o),
(290,355,c),
(287,337,o),
(279,320,o),
(270,305,c),
(261,293,o),
(249,292,o),
(242,299,c),
(236,305,o),
(234,313,o),
(237,320,c),
(240,329,o),
(240,338,o),
(240,347,c),
(239,361,o),
(234,364,o),
(221,361,c),
(218,361,o),
(213,359,o),
(210,358,c),
(206,358,o),
(203,355,o),
(201,349,c),
(201,341,o),
(200,332,o),
(200,325,c),
(200,325,o),
(200,325,o),
(201,325,c)
);
}
);
width = 377;
}
);
unicode = 36;
},
{
glyphname = euro;
lastChange = "2023-01-05 15:41:16 +0000";
layers = (
{
layerId = m01;
shapes = (
{
closed = 1;
nodes = (
(168,358,o),
(173,361,o),
(179,361,c),
(195,364,o),
(212,365,o),
(228,364,c),
(236,362,o),
(246,361,o),
(249,352,c),
(254,343,o),
(254,334,o),
(246,326,c),
(240,320,o),
(233,313,o),
(222,317,c),
(216,320,o),
(212,319,o),
(207,317,c),
(191,310,o),
(173,304,o),
(156,298,c),
(147,295,o),
(144,290,o),
(144,281,c),
(144,268,o),
(144,256,o),
(144,241,c),
(161,242,o),
(177,247,o),
(192,251,c),
(206,254,o),
(221,256,o),
(234,259,c),
(243,260,o),
(251,256,o),
(254,248,c),
(257,239,o),
(252,233,o),
(246,229,c),
(231,218,o),
(215,214,o),
(198,208,c),
(185,205,o),
(173,200,o),
(159,196,c),
(153,194,o),
(150,191,o),
(153,187,c),
(159,169,o),
(161,151,o),
(170,134,c),
(174,128,o),
(177,122,o),
(182,118,c),
(188,113,o),
(194,110,o),
(201,113,c),
(210,118,o),
(219,122,o),
(225,128,c),
(240,142,o),
(254,157,o),
(263,175,c),
(266,181,o),
(269,187,o),
(267,194,c),
(264,200,o),
(267,205,o),
(273,206,c),
(279,209,o),
(285,206,o),
(288,200,c),
(294,182,o),
(305,164,o),
(299,143,c),
(285,98,o),
(258,67,o),
(215,50,c),
(183,40,o),
(156,47,o),
(132,68,c),
(117,80,o),
(107,97,o),
(98,113,c),
(93,124,o),
(89,134,o),
(86,146,c),
(81,160,o),
(77,172,o),
(66,182,c),
(57,190,o),
(57,200,o),
(65,209,c),
(69,215,o),
(69,223,o),
(69,230,c),
(68,239,o),
(68,250,o),
(68,260,c),
(68,266,o),
(66,269,o),
(59,271,c),
(35,277,o),
(30,296,o),
(48,313,c),
(51,316,o),
(54,320,o),
(59,322,c),
(72,326,o),
(75,337,o),
(78,349,c),
(89,389,o),
(104,428,o),
(129,463,c),
(147,485,o),
(170,503,o),
(197,514,c),
(227,524,o),
(264,509,o),
(278,481,c),
(279,478,o),
(281,475,o),
(281,472,c),
(282,460,o),
(275,452,o),
(263,454,c),
(260,455,o),
(257,457,o),
(254,458,c),
(236,467,o),
(221,461,o),
(209,448,c),
(186,422,o),
(170,394,o),
(161,361,c)
);
}
);
width = 338;
}
);
unicode = 8364;
},
{
glyphname = sterling;
lastChange = "2023-01-05 15:41:16 +0000";
layers = (
{
layerId = m01;
shapes = (
{
closed = 1;
nodes = (
(179,185,o),
(204,184,o),
(230,181,c),
(237,179,o),
(245,179,o),
(251,175,c),
(264,169,o),
(266,152,o),
(255,142,c),
(251,137,o),
(245,134,o),
(239,133,c),
(221,127,o),
(203,121,o),
(185,115,c),
(167,107,o),
(149,100,o),
(135,85,c),
(135,85,o),
(134,83,o),
(132,82,c),
(119,73,o),
(104,70,o),
(95,77,c),
(83,86,o),
(78,97,o),
(83,112,c),
(86,128,o),
(84,143,o),
(83,158,c),
(81,182,o),
(78,206,o),
(77,230,c),
(75,245,o),
(74,245,o),
(60,248,c),
(50,250,o),
(42,254,o),
(39,265,c),
(35,277,o),
(39,284,o),
(48,292,c),
(50,293,o),
(53,296,o),
(56,298,c),
(69,302,o),
(72,311,o),
(71,325,c),
(71,353,o),
(72,382,o),
(81,409,c),
(92,448,o),
(114,476,o),
(156,487,c),
(179,493,o),
(201,488,o),
(218,470,c),
(228,460,o),
(233,448,o),
(231,434,c),
(231,427,o),
(228,421,o),
(221,419,c),
(215,419,o),
(212,424,o),
(210,428,c),
(209,430,o),
(209,431,o),
(207,433,c),
(195,452,o),
(174,454,o),
(159,434,c),
(150,424,o),
(147,409,o),
(146,395,c),
(143,377,o),
(141,358,o),
(141,338,c),
(143,328,o),
(143,328,o),
(155,328,c),
(167,329,o),
(179,329,o),
(189,328,c),
(198,326,o),
(206,325,o),
(212,319,c),
(219,311,o),
(222,299,o),
(219,290,c),
(215,281,o),
(207,280,o),
(192,283,c),
(177,286,o),
(164,280,o),
(149,275,c),
(144,274,o),
(144,269,o),
(146,266,c),
(147,236,o),
(150,206,o),
(152,173,c)
);
}
);
width = 300;
}
);
unicode = 163;
},
{
glyphname = yen;
lastChange = "2023-01-05 15:41:16 +0000";
layers = (
{
layerId = m01;
shapes = (
{
closed = 1;
nodes = (
(224,308,o),
(237,310,o),
(251,313,c),
(261,314,o),
(269,311,o),
(272,304,c),
(275,296,o),
(272,289,o),
(263,283,c),
(251,274,o),
(236,269,o),
(221,265,c),
(186,254,o),
(186,256,o),
(174,221,c),
(173,218,o),
(173,215,o),
(171,211,c),
(185,212,o),
(195,215,o),
(206,218,c),
(212,220,o),
(218,223,o),
(224,224,c),
(233,226,o),
(240,223,o),
(243,215,c),
(248,208,o),
(243,202,o),
(239,196,c),
(227,185,o),
(213,179,o),
(198,173,c),
(185,170,o),
(173,166,o),
(159,163,c),
(152,161,o),
(147,157,o),
(146,149,c),
(143,139,o),
(137,127,o),
(137,115,c),
(137,109,o),
(134,101,o),
(131,95,c),
(128,89,o),
(123,85,o),
(116,85,c),
(108,85,o),
(102,89,o),
(99,95,c),
(98,101,o),
(96,106,o),
(96,112,c),
(96,118,o),
(96,122,o),
(96,127,c),
(96,142,o),
(96,142,o),
(81,143,c),
(75,143,o),
(71,145,o),
(66,146,c),
(56,151,o),
(50,160,o),
(51,172,c),
(51,182,o),
(57,190,o),
(66,194,c),
(75,199,o),
(84,199,o),
(93,199,c),
(102,199,o),
(105,202,o),
(107,211,c),
(107,217,o),
(108,223,o),
(110,229,c),
(101,232,o),
(93,226,o),
(84,227,c),
(72,230,o),
(65,235,o),
(62,247,c),
(57,257,o),
(63,265,o),
(71,271,c),
(83,283,o),
(99,287,o),
(116,290,c),
(120,292,o),
(126,290,o),
(131,295,c),
(128,302,o),
(122,305,o),
(116,310,c),
(83,337,o),
(59,370,o),
(44,410,c),
(39,422,o),
(38,434,o),
(38,446,c),
(38,449,o),
(38,452,o),
(39,455,c),
(41,466,o),
(48,476,o),
(59,478,c),
(69,479,o),
(78,473,o),
(83,464,c),
(93,445,o),
(104,427,o),
(114,407,c),
(125,388,o),
(135,367,o),
(149,346,c),
(156,353,o),
(158,361,o),
(161,368,c),
(174,398,o),
(191,428,o),
(207,457,c),
(210,463,o),
(215,467,o),
(221,472,c),
(233,482,o),
(249,476,o),
(252,461,c),
(254,452,o),
(252,445,o),
(251,437,c),
(243,403,o),
(233,368,o),
(219,335,c),
(216,326,o),
(213,319,o),
(209,305,c)
);
}
);
width = 311;
}
);
unicode = 165;
},
{
glyphname = plus;
lastChange = "2023-03-23 09:56:38 +0000";
layers = (
{
layerId = m01;
shapes = (
{
closed = 1;
nodes = (
(245,322,o),
(260,326,o),
(275,326,c),
(288,326,o),
(302,328,o),
(317,328,c),
(326,329,o),
(335,325,o),
(338,316,c),
(341,305,o),
(335,298,o),
(327,292,c),
(317,284,o),
(303,280,o),
(290,278,c),
(269,274,o),
(246,266,o),
(225,263,c),
(215,262,o),
(212,256,o),
(209,247,c),
(201,217,o),
(194,187,o),
(186,157,c),
(182,140,o),
(176,124,o),
(167,110,c),
(164,106,o),
(161,100,o),
(156,97,c),
(150,91,o),
(143,89,o),
(135,92,c),
(126,97,o),
(122,104,o),
(122,113,c),
(122,118,o),
(123,124,o),
(125,130,c),
(134,161,o),
(134,194,o),
(140,226,c),
(141,238,o),
(137,241,o),
(126,238,c),
(111,232,o),
(96,230,o),
(80,230,c),
(60,232,o),
(45,244,o),
(42,262,c),
(38,278,o),
(48,295,o),
(66,304,c),
(89,313,o),
(114,314,o),
(140,316,c),
(150,316,o),
(155,319,o),
(156,329,c),
(161,353,o),
(165,376,o),
(170,400,c),
(173,410,o),
(176,419,o),
(180,428,c),
(189,445,o),
(201,452,o),
(216,451,c),
(230,448,o),
(242,436,o),
(245,419,c),
(246,404,o),
(246,391,o),
(242,377,c),
(237,359,o),
(234,343,o),
(230,325,c)
);
}
);
width = 380;
}
);
unicode = 43;
},
{
glyphname = minus;
lastChange = "2023-03-23 09:56:38 +0000";
layers = (
{
layerId = m01;
shapes = (
{
closed = 1;
nodes = (
(203,307,o),
(230,308,o),
(256,302,c),
(272,298,o),
(287,292,o),
(299,281,c),
(308,275,o),
(311,265,o),
(307,254,c),
(302,245,o),
(295,239,o),
(284,239,c),
(283,239,o),
(280,239,o),
(278,241,c),
(233,248,o),
(190,242,o),
(145,238,c),
(139,236,o),
(133,235,o),
(127,233,c),
(112,230,o),
(98,232,o),
(85,242,c),
(73,254,o),
(70,268,o),
(74,281,c),
(79,295,o),
(89,304,o),
(104,305,c),
(119,308,o),
(137,310,o),
(154,310,c),
(161,310,o),
(169,310,o),
(179,310,c)
);
}
);
width = 380;
}
);
unicode = 8722;
},
{
glyphname = multiply;
lastChange = "2023-03-23 09:56:38 +0000";
layers = (
{
layerId = m01;
shapes = (
{
closed = 1;
nodes = (
(154,430,o),
(170,419,o),
(176,401,c),
(181,379,o),
(194,362,o),
(203,341,c),
(206,332,o),
(209,332,o),
(217,340,c),
(236,361,o),
(256,382,o),
(275,403,c),
(281,407,o),
(287,413,o),
(293,418,c),
(299,424,o),
(307,422,o),
(314,418,c),
(322,412,o),
(320,404,o),
(317,397,c),
(316,394,o),
(313,391,o),
(311,388,c),
(287,356,o),
(265,326,o),
(241,296,c),
(235,287,o),
(236,281,o),
(242,275,c),
(256,262,o),
(268,248,o),
(283,236,c),
(287,232,o),
(292,227,o),
(299,227,c),
(308,226,o),
(313,220,o),
(314,211,c),
(314,200,o),
(307,191,o),
(298,188,c),
(289,185,o),
(280,188,o),
(271,193,c),
(251,202,o),
(235,214,o),
(217,226,c),
(200,236,o),
(200,236,o),
(190,221,c),
(169,191,o),
(148,163,o),
(124,136,c),
(119,130,o),
(113,122,o),
(107,118,c),
(98,112,o),
(88,109,o),
(77,115,c),
(67,121,o),
(61,130,o),
(61,143,c),
(62,160,o),
(71,175,o),
(80,187,c),
(100,212,o),
(119,236,o),
(140,260,c),
(152,272,o),
(152,274,o),
(140,286,c),
(116,310,o),
(101,340,o),
(95,373,c),
(89,398,o),
(104,422,o),
(127,428,c),
(131,428,o),
(134,430,o),
(136,430,c)
);
}
);
width = 380;
}
);
unicode = 215;
},
{
glyphname = divide;
lastChange = "2023-03-23 09:56:38 +0000";
layers = (
{
layerId = m01;
shapes = (
{
closed = 1;
nodes = (
(345,311,o),
(342,304,o),
(333,295,c),
(323,287,o),
(311,283,o),
(299,280,c),
(251,266,o),
(201,257,o),
(153,248,c),
(137,245,o),
(120,241,o),
(104,239,c),
(93,236,o),
(81,236,o),
(69,239,c),
(50,245,o),
(38,257,o),
(38,275,c),
(36,292,o),
(48,307,o),
(68,314,c),
(83,319,o),
(99,319,o),
(116,320,c),
(123,320,o),
(131,320,o),
(138,320,c),
(138,319,o),
(138,319,o),
(138,319,c),
(197,323,o),
(254,329,o),
(312,334,c),
(314,334,o),
(315,335,o),
(318,335,c),
(330,335,o),
(338,331,o),
(342,320,c)
);
},
{
closed = 1;
nodes = (
(180,212,o),
(186,208,o),
(191,202,c),
(195,191,o),
(200,179,o),
(201,169,c),
(200,146,o),
(183,128,o),
(162,125,c),
(144,122,o),
(125,137,o),
(119,158,c),
(114,178,o),
(126,199,o),
(144,206,c),
(153,209,o),
(164,209,o),
(173,211,c)
);
},
{
closed = 1;
nodes = (
(140,343,o),
(120,362,o),
(122,383,c),
(122,401,o),
(138,418,o),
(156,416,c),
(179,415,o),
(192,400,o),
(194,371,c),
(194,355,o),
(179,343,o),
(161,343,c)
);
}
);
width = 380;
}
);
unicode = 247;
},
{
glyphname = equal;
lastChange = "2023-03-23 09:56:38 +0000";
layers = (
{
layerId = m01;
shapes = (
{
closed = 1;
nodes = (
(313,236,o),
(316,227,o),
(311,220,c),
(307,212,o),
(301,209,o),
(292,208,c),
(251,205,o),
(211,196,o),
(170,185,c),
(154,181,o),
(136,175,o),
(118,175,c),
(94,173,o),
(83,182,o),
(77,197,c),
(71,212,o),
(82,235,o),
(98,244,c),
(119,254,o),
(140,262,o),
(164,260,c),
(178,259,o),
(191,260,o),
(205,260,c),
(232,259,o),
(257,260,o),
(284,257,c),
(293,256,o),
(302,251,o),
(308,242,c)
);
},
{
closed = 1;
nodes = (
(88,284,o),
(77,287,o),
(70,299,c),
(64,307,o),
(67,322,o),
(74,332,c),
(83,343,o),
(94,352,o),
(107,356,c),
(140,368,o),
(175,367,o),
(215,367,c),
(232,367,o),
(256,367,o),
(278,364,c),
(286,364,o),
(293,361,o),
(299,356,c),
(307,353,o),
(311,346,o),
(310,338,c),
(308,329,o),
(304,325,o),
(295,325,c),
(283,322,o),
(271,320,o),
(257,317,c),
(223,314,o),
(190,308,o),
(157,298,c),
(139,292,o),
(121,290,o),
(101,286,c)
);
}
);
width = 380;
}
);
unicode = 61;
},
{
glyphname = greater;
lastChange = "2023-03-23 09:56:38 +0000";
layers = (
{
layerId = m01;
shapes = (
{
closed = 1;
nodes = (
(248,301,o),
(234,308,o),
(219,314,c),
(164,338,o),
(111,370,o),
(60,403,c),
(48,412,o),
(38,422,o),
(29,436,c),
(18,454,o),
(24,479,o),
(39,491,c),
(53,502,o),
(75,503,o),
(90,490,c),
(114,470,o),
(141,457,o),
(168,445,c),
(225,418,o),
(276,383,o),
(327,347,c),
(360,323,o),
(366,293,o),
(342,260,c),
(326,238,o),
(308,220,o),
(287,205,c),
(237,167,o),
(182,137,o),
(129,106,c),
(117,98,o),
(104,89,o),
(92,82,c),
(87,79,o),
(81,77,o),
(77,74,c),
(69,70,o),
(63,73,o),
(57,77,c),
(51,83,o),
(53,91,o),
(57,97,c),
(60,103,o),
(65,109,o),
(69,113,c),
(86,128,o),
(102,143,o),
(120,157,c),
(167,194,o),
(210,233,o),
(251,277,c),
(255,281,o),
(260,286,o),
(264,293,c)
);
}
);
width = 380;
}
);
unicode = 62;
},
{
glyphname = less;
lastChange = "2023-03-23 09:56:38 +0000";
layers = (
{
layerId = m01;
shapes = (
{
closed = 1;
nodes = (
(157,239,o),
(170,230,o),
(184,221,c),
(212,205,o),
(239,187,o),
(263,164,c),
(287,140,o),
(314,118,o),
(347,104,c),
(359,100,o),
(362,86,o),
(353,76,c),
(346,65,o),
(334,62,o),
(322,65,c),
(308,67,o),
(296,71,o),
(284,76,c),
(253,88,o),
(220,97,o),
(190,110,c),
(166,121,o),
(146,136,o),
(125,148,c),
(101,161,o),
(77,176,o),
(53,190,c),
(14,211,o),
(13,254,o),
(46,281,c),
(100,326,o),
(154,371,o),
(203,424,c),
(221,443,o),
(241,461,o),
(260,481,c),
(268,488,o),
(277,496,o),
(287,502,c),
(299,509,o),
(316,509,o),
(326,500,c),
(338,491,o),
(343,478,o),
(337,463,c),
(328,442,o),
(314,424,o),
(301,406,c),
(254,347,o),
(199,299,o),
(140,248,c)
);
}
);
width = 380;
}
);
unicode = 60;
},
{
glyphname = plusminus;
lastChange = "2023-03-23 09:56:38 +0000";
layers = (
{
layerId = m01;
shapes = (
{
closed = 1;
nodes = (
(334,362,o),
(340,356,o),
(340,347,c),
(340,338,o),
(331,332,o),
(320,332,c),
(284,337,o),
(251,323,o),
(217,319,c),
(208,317,o),
(205,314,o),
(206,305,c),
(206,298,o),
(206,292,o),
(208,284,c),
(208,262,o),
(209,241,o),
(214,220,c),
(215,208,o),
(212,200,o),
(203,197,c),
(194,193,o),
(185,196,o),
(179,203,c),
(170,212,o),
(164,223,o),
(163,235,c),
(158,256,o),
(151,275,o),
(149,296,c),
(148,305,o),
(146,310,o),
(136,307,c),
(121,304,o),
(107,302,o),
(92,299,c),
(83,298,o),
(73,298,o),
(64,299,c),
(52,299,o),
(43,307,o),
(41,317,c),
(38,328,o),
(43,337,o),
(50,343,c),
(56,347,o),
(64,350,o),
(71,353,c),
(89,359,o),
(107,362,o),
(125,365,c),
(134,367,o),
(139,371,o),
(137,380,c),
(136,398,o),
(136,415,o),
(140,431,c),
(143,443,o),
(146,452,o),
(154,461,c),
(163,475,o),
(176,479,o),
(191,475,c),
(206,472,o),
(214,460,o),
(214,443,c),
(214,425,o),
(212,407,o),
(211,389,c),
(209,376,o),
(209,376,o),
(223,376,c),
(248,376,o),
(272,374,o),
(298,371,c),
(307,371,o),
(317,370,o),
(326,365,c)
);
},
{
closed = 1;
nodes = (
(281,152,o),
(292,146,o),
(298,136,c),
(302,131,o),
(302,125,o),
(299,121,c),
(295,115,o),
(290,113,o),
(284,115,c),
(245,124,o),
(209,115,o),
(172,106,c),
(151,100,o),
(131,92,o),
(109,89,c),
(103,89,o),
(97,88,o),
(91,89,c),
(79,92,o),
(71,100,o),
(68,110,c),
(65,122,o),
(70,133,o),
(79,140,c),
(85,143,o),
(91,146,o),
(98,148,c),
(116,152,o),
(133,155,o),
(151,157,c),
(175,157,o),
(200,157,o),
(224,157,c),
(224,157,o),
(224,158,o),
(224,158,c),
(239,157,o),
(254,157,o),
(269,154,c)
);
}
);
width = 380;
}
);
unicode = 177;
},
{
glyphname = asciitilde;
lastChange = "2023-03-23 09:56:38 +0000";
layers = (
{
layerId = m01;
shapes = (
{
closed = 1;
nodes = (
(224,190,o),
(179,209,o),
(141,244,c),
(131,253,o),
(122,263,o),
(113,274,c),
(104,284,o),
(102,284,o),
(95,275,c),
(83,263,o),
(74,250,o),
(68,235,c),
(65,227,o),
(65,221,o),
(66,214,c),
(68,197,o),
(62,187,o),
(50,184,c),
(35,179,o),
(21,185,o),
(15,200,c),
(8,221,o),
(11,241,o),
(18,260,c),
(27,289,o),
(42,313,o),
(63,335,c),
(86,358,o),
(116,365,o),
(141,355,c),
(158,347,o),
(173,335,o),
(186,320,c),
(204,304,o),
(222,289,o),
(245,280,c),
(249,278,o),
(254,275,o),
(258,275,c),
(290,266,o),
(300,271,o),
(306,308,c),
(309,319,o),
(311,328,o),
(321,334,c),
(335,340,o),
(350,335,o),
(357,320,c),
(386,257,o),
(365,194,o),
(288,191,c),
(284,190,o),
(279,191,o),
(275,191,c)
);
}
);
width = 380;
}
);
unicode = 126;
},
{
glyphname = asciicircum;
lastChange = "2023-01-05 15:41:16 +0000";
layers = (
{
layerId = m01;
shapes = (
{
closed = 1;
nodes = (
(125,505,o),
(113,476,o),
(101,449,c),
(96,440,o),
(93,431,o),
(87,422,c),
(80,410,o),
(68,406,o),
(57,409,c),
(44,412,o),
(38,424,o),
(38,439,c),
(39,443,o),
(41,449,o),
(42,454,c),
(59,509,o),
(81,563,o),
(104,616,c),
(120,653,o),
(162,658,o),
(188,625,c),
(201,608,o),
(209,587,o),
(215,566,c),
(222,533,o),
(231,500,o),
(242,467,c),
(246,449,o),
(254,433,o),
(260,416,c),
(260,413,o),
(261,409,o),
(263,406,c),
(264,391,o),
(254,380,o),
(239,383,c),
(227,385,o),
(219,392,o),
(212,401,c),
(201,416,o),
(194,433,o),
(186,448,c),
(173,473,o),
(159,499,o),
(147,523,c),
(144,526,o),
(144,530,o),
(137,533,c)
);
}
);
width = 300;
}
);
unicode = 94;
},
{
glyphname = percent;
lastChange = "2023-01-05 15:41:16 +0000";
layers = (
{
layerId = m01;
shapes = (
{
closed = 1;
nodes = (
(477,523,o),
(473,511,o),
(468,499,c),
(449,442,o),
(420,389,o),
(392,337,c),
(342,245,o),
(281,161,o),
(221,77,c),
(198,46,o),
(177,13,o),
(152,-17,c),
(146,-23,o),
(140,-31,o),
(134,-37,c),
(120,-49,o),
(107,-50,o),
(95,-41,c),
(84,-32,o),
(81,-19,o),
(87,-4,c),
(90,4,o),
(93,10,o),
(96,16,c),
(137,86,o),
(177,158,o),
(219,229,c),
(245,274,o),
(273,319,o),
(299,364,c),
(317,394,o),
(332,424,o),
(348,454,c),
(363,484,o),
(380,514,o),
(395,545,c),
(398,553,o),
(402,560,o),
(408,566,c),
(422,580,o),
(440,583,o),
(455,577,c),
(470,569,o),
(479,556,o),
(477,532,c)
);
},
{
closed = 1;
nodes = (
(122,395,o),
(122,392,o),
(122,389,c),
(122,374,o),
(126,373,o),
(138,382,c),
(161,397,o),
(177,416,o),
(186,443,c),
(192,463,o),
(185,476,o),
(165,482,c),
(156,485,o),
(152,485,o),
(146,476,c),
(129,454,o),
(123,427,o),
(122,403,c)
);
},
{
closed = 1;
nodes = (
(83,289,o),
(62,305,o),
(48,331,c),
(36,353,o),
(35,377,o),
(41,403,c),
(48,439,o),
(63,472,o),
(93,497,c),
(98,500,o),
(101,505,o),
(102,509,c),
(107,527,o),
(119,536,o),
(135,541,c),
(168,550,o),
(201,545,o),
(230,524,c),
(254,505,o),
(263,478,o),
(260,448,c),
(257,403,o),
(231,367,o),
(201,335,c),
(188,320,o),
(173,308,o),
(155,299,c),
(141,293,o),
(128,289,o),
(116,290,c)
);
},
{
closed = 1;
nodes = (
(453,139,o),
(441,101,o),
(447,61,c),
(468,85,o),
(480,113,o),
(485,143,c),
(486,157,o),
(480,169,o),
(467,176,c)
);
},
{
closed = 1;
nodes = (
(507,230,o),
(563,187,o),
(552,124,c),
(546,91,o),
(530,61,o),
(510,32,c),
(500,17,o),
(489,4,o),
(473,-8,c),
(434,-35,o),
(392,-26,o),
(371,17,c),
(356,49,o),
(357,82,o),
(363,115,c),
(369,142,o),
(378,166,o),
(396,187,c),
(402,193,o),
(405,200,o),
(410,206,c),
(422,226,o),
(440,232,o),
(458,233,c)
);
}
);
width = 591;
}
);
unicode = 37;
},
{
glyphname = perthousand;
lastChange = "2023-01-05 15:41:16 +0000";
layers = (
{
layerId = m01;
shapes = (
{
closed = 1;
nodes = (
(411,515,o),
(404,497,o),
(398,479,c),
(365,401,o),
(326,328,o),
(284,256,c),
(240,179,o),
(204,98,o),
(173,17,c),
(168,7,o),
(165,-2,o),
(165,-14,c),
(167,-25,o),
(162,-32,o),
(152,-35,c),
(143,-38,o),
(134,-35,o),
(128,-28,c),
(120,-22,o),
(117,-13,o),
(116,-2,c),
(114,13,o),
(116,28,o),
(120,43,c),
(140,110,o),
(162,175,o),
(186,239,c),
(213,307,o),
(242,373,o),
(275,437,c),
(290,469,o),
(308,499,o),
(323,530,c),
(329,542,o),
(335,554,o),
(344,563,c),
(357,577,o),
(374,581,o),
(390,574,c),
(404,568,o),
(413,551,o),
(413,535,c)
);
},
{
closed = 1;
nodes = (
(119,451,o),
(116,422,o),
(116,391,c),
(131,395,o),
(141,404,o),
(147,415,c),
(167,442,o),
(165,454,o),
(140,475,c),
(138,475,o),
(137,475,o),
(135,476,c)
);
},
{
closed = 1;
nodes = (
(207,379,o),
(177,340,o),
(126,320,c),
(89,305,o),
(44,326,o),
(38,377,c),
(38,382,o),
(38,385,o),
(38,389,c),
(41,428,o),
(54,463,o),
(87,488,c),
(92,491,o),
(95,496,o),
(96,502,c),
(101,521,o),
(113,529,o),
(132,527,c),
(167,526,o),
(207,496,o),
(219,463,c),
(222,452,o),
(224,442,o),
(221,431,c)
);
},
{
closed = 1;
nodes = (
(549,167,o),
(543,178,o),
(534,185,c),
(531,188,o),
(528,190,o),
(524,188,c),
(521,187,o),
(519,184,o),
(519,179,c),
(519,170,o),
(519,160,o),
(519,151,c),
(519,137,o),
(516,122,o),
(524,107,c),
(539,121,o),
(545,136,o),
(548,154,c)
);
},
{
closed = 1;
nodes = (
(617,175,o),
(617,154,o),
(609,134,c),
(596,101,o),
(575,71,o),
(546,50,c),
(516,29,o),
(485,31,o),
(462,67,c),
(453,82,o),
(450,100,o),
(450,121,c),
(452,149,o),
(458,179,o),
(480,202,c),
(485,206,o),
(488,212,o),
(489,217,c),
(503,242,o),
(524,251,o),
(549,242,c),
(573,233,o),
(593,217,o),
(606,194,c)
);
},
{
closed = 1;
nodes = (
(399,119,o),
(393,151,o),
(366,173,c),
(365,148,o),
(359,127,o),
(369,104,c)
);
},
{
closed = 1;
nodes = (
(441,170,o),
(446,157,o),
(446,137,c),
(447,97,o),
(411,58,o),
(374,47,c),
(342,40,o),
(308,64,o),
(299,98,c),
(291,127,o),
(299,154,o),
(315,178,c),
(320,185,o),
(321,191,o),
(320,200,c),
(317,226,o),
(338,244,o),
(363,235,c),
(390,224,o),
(411,208,o),
(431,185,c)
);
}
);
width = 653;
}
);
unicode = 8240;
},
{
glyphname = dieresiscomb;
lastChange = "2023-01-05 15:41:16 +0000";
layers = (
{
anchors = (
{
name = _top;
pos = (95,430);
},
{
name = top;
pos = (96,431);
}
);
layerId = m01;
shapes = (
{
closed = 1;
nodes = (
(176,536,o),
(161,521,o),
(144,521,c),
(128,523,o),
(114,536,o),
(114,554,c),
(116,571,o),
(129,584,o),
(146,584,c),
(162,584,o),
(177,569,o),
(176,551,c)
);
},
{
closed = 1;
nodes = (
(51,526,o),
(39,536,o),
(38,551,c),
(38,566,o),
(48,578,o),
(63,580,c),
(77,581,o),
(90,569,o),
(92,554,c),
(92,539,o),
(80,527,o),
(66,526,c)
);
}
);
width = 213;
}
);
unicode = 776;
},
{
glyphname = dotaccentcomb;
lastChange = "2023-01-05 15:41:16 +0000";
layers = (
{
anchors = (
{
name = _top;
pos = (66,445);
},
{
name = top;
pos = (69,443);
}
);
layerId = m01;
shapes = (
{
closed = 1;
nodes = (
(51,520,o),
(39,533,o),
(38,550,c),
(38,568,o),
(53,586,o),
(71,586,c),
(89,586,o),
(98,575,o),
(99,551,c),
(99,536,o),
(83,521,o),
(68,521,c)
);
}
);
width = 137;
}
);
unicode = 775;
},
{
glyphname = gravecomb;
lastChange = "2023-01-05 15:41:16 +0000";
layers = (
{
anchors = (
{
name = _top;
pos = (84,437);
},
{
name = top;
pos = (87,440);
}
);
layerId = m01;
shapes = (
{
closed = 1;
nodes = (
(38,632,o),
(53,643,o),
(71,634,c),
(75,631,o),
(80,626,o),
(84,622,c),
(96,608,o),
(102,592,o),
(110,577,c),
(120,550,o),
(132,523,o),
(144,497,c),
(146,494,o),
(147,491,o),
(149,488,c),
(150,482,o),
(149,478,o),
(144,473,c),
(140,469,o),
(134,469,o),
(128,470,c),
(119,473,o),
(113,479,o),
(108,487,c),
(96,505,o),
(84,521,o),
(75,539,c),
(65,554,o),
(54,569,o),
(45,586,c),
(42,595,o),
(39,604,o),
(38,611,c)
);
}
);
width = 186;
}
);
unicode = 768;
},
{
glyphname = acutecomb;
lastChange = "2023-01-05 15:41:16 +0000";
layers = (
{
anchors = (
{
name = _top;
pos = (101,437);
},
{
name = top;
pos = (92,434);
}
);
layerId = m01;
shapes = (
{
closed = 1;
nodes = (
(44,469,o),
(35,482,o),
(38,496,c),
(39,499,o),
(41,500,o),
(41,503,c),
(68,550,o),
(99,592,o),
(138,629,c),
(141,632,o),
(144,634,o),
(147,635,c),
(156,640,o),
(165,634,o),
(165,625,c),
(164,620,o),
(162,616,o),
(161,611,c),
(138,569,o),
(117,526,o),
(87,488,c),
(80,479,o),
(71,470,o),
(59,469,c)
);
}
);
width = 203;
}
);
unicode = 769;
},
